<?xml version="1.0" encoding="UTF-8" standalone="no"?>
<!-- Created with Inkscape (http://www.inkscape.org/) -->

<svg
   xmlns:dc="http://purl.org/dc/elements/1.1/"
   xmlns:cc="http://creativecommons.org/ns#"
   xmlns:rdf="http://www.w3.org/1999/02/22-rdf-syntax-ns#"
   xmlns:svg="http://www.w3.org/2000/svg"
   xmlns="http://www.w3.org/2000/svg"
   xmlns:sodipodi="http://sodipodi.sourceforge.net/DTD/sodipodi-0.dtd"
   xmlns:inkscape="http://www.inkscape.org/namespaces/inkscape"
   width="83.803192mm"
   height="116.79606mm"
   viewBox="0 0 296.94044 413.8443"
   id="svg5640"
   version="1.1"
   inkscape:version="0.91 r13725"
   sodipodi:docname="asador-cazado.svg">
  <defs
     id="defs5642" />
  <sodipodi:namedview
     id="base"
     pagecolor="#ffffff"
     bordercolor="#666666"
     borderopacity="1.0"
     inkscape:pageopacity="0.0"
     inkscape:pageshadow="2"
     inkscape:zoom="0.35"
     inkscape:cx="1926.3274"
     inkscape:cy="-730.2207"
     inkscape:document-units="px"
     inkscape:current-layer="layer1"
     showgrid="false"
     fit-margin-top="0"
     fit-margin-left="0"
     fit-margin-right="0"
     fit-margin-bottom="0"
     inkscape:window-width="1920"
     inkscape:window-height="1016"
     inkscape:window-x="0"
     inkscape:window-y="27"
     inkscape:window-maximized="1" />
  <metadata
     id="metadata5645">
    <rdf:RDF>
      <cc:Work
         rdf:about="">
        <dc:format>image/svg+xml</dc:format>
        <dc:type
           rdf:resource="http://purl.org/dc/dcmitype/StillImage" />
        <dc:title></dc:title>
      </cc:Work>
    </rdf:RDF>
  </metadata>
  <g
     inkscape:label="Layer 1"
     inkscape:groupmode="layer"
     id="layer1"
     transform="translate(2054.1845,611.70281)">
    <path
       style="opacity:0.76000001;fill:#0000ff;fill-opacity:0.47597285;stroke:#cbc906;stroke-width:0.63782138;stroke-opacity:1"
       id="path16194"
       sodipodi:type="arc"
       sodipodi:cx="275.55865"
       sodipodi:cy="1913.8187"
       sodipodi:rx="153.03822"
       sodipodi:ry="134.4648"
       sodipodi:start="4.7221454"
       sodipodi:end="3.1402837"
       sodipodi:open="true"
       d="M 277.05174,1779.3603 A 153.03822,134.4648 0 0 1 428.59406,1914.6346 153.03822,134.4648 0 0 1 275.1945,2048.2831 153.03822,134.4648 0 0 1 122.52056,1913.9947"
       transform="matrix(-0.36543185,0.9308381,-0.9308381,-0.36543185,0,0)" />
    <path
       style="fill:#ff0000;fill-opacity:0.96159273"
       id="path5622"
       d="m -1771.6404,-553.37804 c -11.2101,9.62514 -22.0559,19.67509 -32.4523,30.17231 -12.0148,12.39895 -22.7461,25.96619 -33.6401,39.34146 -1.8372,2.16525 -3.6744,4.3305 -5.5117,6.49575 0,0 -38.1038,16.11189 -38.1038,16.11189 l 0,0 c 1.8731,-2.13421 3.7462,-4.26842 5.6194,-6.40263 10.8364,-13.43857 21.5976,-26.99994 33.3643,-39.63661 10.0918,-10.51548 20.8171,-20.39222 31.6085,-30.18415 0,0 39.1157,-15.89802 39.1157,-15.89802 z"
       inkscape:connector-curvature="0" />
    <path
       style="fill:#ff0000;fill-opacity:0.96159273"
       id="path5624"
       d="m -2020.3542,-310.1683 c 10.3519,-9.5956 19.5572,-20.4053 29.1586,-30.7531 11.406,-11.771 21.5061,-24.6119 31.0557,-37.9002 8.1441,-10.93559 15.3237,-22.53008 22.3465,-34.20276 4.7527,-9.33006 10.3931,-18.09225 16.2661,-26.74009 4.8838,-7.59443 10.565,-14.61924 15.4275,-22.22215 4.709,-6.6734 9.8543,-12.94577 14.146,-19.90387 4.6325,-7.67868 9.8048,-14.98144 15.1895,-22.14289 5.6348,-7.91568 12.0878,-15.17822 18.6699,-22.30619 6.0449,-6.96774 12.628,-13.58595 17.8172,-21.2471 5.13,13.6207 -0.7497,-1.15287 37.827,-15.35805 1.4156,-0.52128 -1.9611,2.29296 -2.9271,3.45165 -4.4469,5.33383 -8.8246,10.72403 -13.1747,16.13682 -10.3773,12.90703 -19.3946,26.76316 -28.5649,40.52069 -6.4378,9.35953 -13.9994,17.80517 -20.0804,27.40819 -5.0152,7.70263 -9.892,15.48857 -14.7237,23.30792 -4.5194,6.95741 -8.4458,14.23651 -11.8863,21.77793 -2.8436,6.30512 -4.2367,13.12979 -7.0014,19.45135 -2.4464,3.97209 -4.0396,8.39313 -6.9329,12.07232 -3.108,3.82283 -4.1382,8.79256 -5.5183,13.42155 -0.9544,5.91728 -3.9054,10.41338 -8.2451,14.39838 -7.5993,4.3687 -14.495,9.5776 -21.101,15.3213 -8.715,7.3168 -16.2937,15.6725 -23.1037,24.7506 -3.6003,5.283 -8.2435,9.668 -12.1387,14.7089 -6.3167,7.4599 -13.453,14.145 -20.8532,20.5075 -4.4797,3.7531 -9.1127,7.3173 -13.4882,11.1942 -1.1872,1.0519 -2.5676,2.4014 -2.5746,2.3962 -0.4598,-0.341 -0.4493,-1.0531 -0.674,-1.5796 -0.3388,-1.126 -1.0451,-2.2024 -1.0163,-3.3779 0.013,-0.5241 0.7507,-0.7322 1.126,-1.0983 -11.613,6.6743 -23.1354,13.5087 -34.8389,20.023 -0.732,0.4074 1.2919,-1.072 1.8739,-1.6745 0.4093,-0.4236 4.2365,-4.9163 4.5833,-5.3221 4.3985,-6.0432 8.8568,-12.0127 13.6111,-17.7881 6.2794,-7.6632 13.3592,-14.605 20.0207,-21.923 5.9474,-7.7227 12.6708,-14.7822 18.8378,-22.3199 7.6565,-9.0517 13.4418,-19.4154 19.8896,-29.3094 5.5128,-8.4462 10.2344,-17.3583 15.9272,-25.68626 5.7992,-7.33435 9.816,-15.79727 14.944,-23.56517 6.0064,-8.35295 12.6903,-16.20401 19.6652,-23.75825 8.0118,-7.99452 16.3153,-15.69051 24.4597,-23.54994 5.7718,-5.93252 11.246,-12.17267 16.2621,-18.75787 5.0098,-7.41605 8.5668,-15.67688 12.6982,-23.58787 4.9632,-9.34604 11.9621,-17.31671 19.0689,-25.06575 5.7638,-6.04288 11.4773,-12.15361 17.6343,-17.80223 47.7064,-19.58626 43.2695,-22.33712 29.9737,-4.62827 -5.4607,7.27309 -10.6362,14.76771 -16.0589,22.07158 -13.989,18.10142 -26.9205,36.94813 -39.9014,55.77141 -9.0327,13.03026 -17.8765,26.14781 -25.4069,40.10919 -6.7274,12.89737 -14.1092,25.49127 -19.6133,38.9768 -3.4143,9.49624 -7.0868,18.90173 -9.3381,28.75613 -1.3992,6.4406 -3.2755,12.7644 -6.2253,18.6678 -3.7797,5.8658 -9.0783,10.5439 -14.0578,15.365 -6.0776,5.9534 -12.1886,11.8647 -18.4365,17.6388 -5.6899,5.1789 -10.8437,10.9593 -16.708,15.9398 -16.5541,9.0642 -33.0009,23.9516 -52.7383,26.6027 -1.75,0.5644 -3.691,-0.033 -5.4524,0.4385 -0.8664,0.2317 -1.6101,0.7922 -2.4335,1.1476 -2.8263,1.22 -5.7154,2.0758 -8.6833,2.8658 -23.0484,7.4688 41.9078,1.2138 30.0662,-17.8745 -5.4422,-8.7726 -55.0531,26.1935 -33.1474,11.2408 7.8371,-5.7434 15.4464,-11.7789 23.0852,-17.7791 6.6995,-4.8211 13.1085,-9.9508 18.8177,-15.917 6.4043,-7.5391 13.6695,-14.2342 20.9259,-20.9288 2.2377,-0.3742 4.2848,-5.5548 6.2522,-6.6008 0.3947,-0.2099 1.5659,2.2754 1.2788,3.5401 -0.132,0.5814 -1.1031,0.4528 -1.6546,0.6792 -12.6738,6.778 -30.2409,16.7038 28.5044,-16.4109 1.0634,-0.5994 -2.0537,1.3206 -3.0658,2.0031 -2.0198,1.3618 -4.0046,2.7747 -6.0144,4.1511 -23.1627,15.0094 -79.8454,45.4669 -9.3244,5.8034 1.0458,-0.5882 -1.9863,1.3473 -2.9638,2.0432 -1.2532,0.892 -5.2998,3.9008 -6.5034,4.7929 -6.2844,5.0428 -12.8263,9.7571 -19.0405,14.8875 -61.9844,26.937 -38.0958,16.0054 -21.5882,1.9071 12.6631,-11.2378 8.9937,-6.1185 41.6867,-18.0586 0.716,-0.2615 -0.9479,1.1951 -1.4562,1.7632 -1.5282,1.7078 -2.6197,2.6967 -4.2855,4.3018 -2.5507,2.056 -5.235,4.0465 -8.0718,5.6992 -13.0796,7.6199 -26.1994,15.1705 -39.3323,22.6979 -1.1019,0.6315 -4.4709,2.4105 -3.3699,1.7776 10.8672,-6.2466 21.7801,-12.4133 32.6701,-18.6199 -18.3186,12.2161 -36.4692,26.071 -57.3361,33.379 -0.9957,0.596 -1.9914,1.192 -2.9871,1.788 0,0 32.9404,-26.4464 32.9404,-26.4464 l 0,0 c 1.0825,-0.4902 2.165,-0.9804 3.2474,-1.4706 14.5832,-6.762 3.7864,-1.8719 -29.669,17.6363 -1.1818,0.689 2.3981,-1.3198 3.5597,-2.0422 2.4975,-1.5531 4.9585,-3.1658 7.3883,-4.8227 1.2338,-0.8413 2.4141,-1.7584 3.6212,-2.6375 13.1474,-7.7349 26.2726,-15.5078 39.4422,-23.2047 1.1027,-0.6445 4.4731,-2.4666 3.3726,-1.8185 -10.9406,6.4435 -21.8821,12.8866 -32.8951,19.2056 -0.069,0.039 1.8821,-1.4439 5.544,-3.6598 0.8784,-0.5315 1.7747,-1.0329 2.6621,-1.5493 1.1584,-0.893 4.7841,-4.7418 5.7588,-5.1788 67.0089,-30.0478 49.0319,-24.8241 36.5457,-14.5453 -19.4244,16.5098 -24.8123,19.4172 -56.9449,29.5401 6.8253,-4.4192 12.8718,-10.0948 19.3838,-14.945 2.9786,-2.2879 6.0729,-5.1472 9.2886,-7.077 17.3979,-10.4413 79.4952,-46.3085 6.3388,-3.9049 -1.0143,0.5879 2.0224,-1.1862 3.0336,-1.7793 16.8112,-11.8976 33.8724,-25.0192 53.7036,-30.931 3.1126,-0.2412 2.7316,-0.7756 5.2708,2.865 2.1293,3.0527 -5.1122,7.388 -6.1234,9.3326 -7.2165,6.616 -14.7061,12.9937 -20.9559,20.5683 -5.5693,6.2557 -11.5795,11.9403 -18.572,16.6262 -7.8189,5.6905 -15.1594,12.0445 -22.9391,17.7943 -11.5803,9.0812 -41.6401,27.0904 -45.6818,20.0168 -4.7728,-8.3531 29.246,-19.4589 43.0444,-23.6882 5.5605,-1.8144 10.9671,-3.8018 16.8785,-4.1092 15.9989,-3.6839 42.5858,-23.4733 -20.4161,14.4951 6.5768,-4.1071 11.3332,-10.4768 17.1577,-15.528 6.0166,-5.9355 12.4391,-11.4592 18.3142,-17.5572 4.852,-4.6972 9.8315,-9.2867 14.3431,-14.3171 3.8039,-5.1076 5.2299,-11.4141 6.9501,-17.4557 2.1227,-10.1833 6.0262,-19.7612 9.4825,-29.5433 5.0884,-13.83172 12.9339,-26.39706 19.5865,-39.50967 7.475,-14.25583 16.147,-27.70085 25.592,-40.74146 13.2563,-18.67144 26.0111,-37.69146 39.9288,-55.8901 5.2683,-7.22287 10.276,-14.58644 15.4232,-21.88802 1.2631,-1.79169 2.6159,-3.51843 3.9385,-5.26661 0.9685,-1.28019 1.509,-3.08056 2.9348,-3.81828 13.2998,-6.88177 27.1979,-12.53995 40.7968,-18.80993 -6.3252,5.65974 -12.5642,11.39955 -18.3041,17.68999 -7.0902,7.49549 -14.199,15.11992 -19.4553,24.06215 -4.369,7.8785 -7.8487,16.1829 -12.2123,24.06829 -5.0534,6.80978 -10.5103,13.27068 -16.2817,19.49292 -8.14,7.83426 -16.3366,15.60901 -24.5182,23.39962 -7.1725,7.169 -13.5582,15.08326 -19.7772,23.07809 -5.5277,7.59056 -9.3025,16.22236 -15.061,23.66499 -5.9901,8.1471 -10.6019,17.06372 -16.0107,25.59652 -6.7125,9.8002 -12.253,20.3658 -19.7584,29.6074 -5.8892,7.7837 -12.848,14.6039 -18.6088,22.4783 -6.4262,7.5115 -13.7426,14.2171 -20.0783,21.8196 -4.7875,5.6712 -9.3759,11.4667 -13.4536,17.6471 -13.1055,17.2121 -10.3819,10.9242 -43.6854,30.1622 -0.5322,0.3074 -1.2523,0.6634 -1.8023,0.389 -1.2661,-0.6317 -2.094,-1.9036 -3.141,-2.8554 -0.2278,-0.5816 -0.723,-1.1214 -0.6836,-1.7448 0.026,-0.4107 0.5535,-0.6101 0.8506,-0.8948 0.7182,-0.6884 1.4532,-1.3591 2.194,-2.0231 4.4443,-3.9834 9.1338,-7.6625 13.7841,-11.4004 7.3438,-6.0177 14.193,-12.5305 20.5626,-19.5786 4.2854,-4.752 -0.01,0.2859 3.4498,-4.5858 2.6271,-3.7026 6.9244,-5.9811 9.1034,-10.0889 2.2141,-2.8938 4.1984,-5.9612 6.4599,-8.8182 4.858,-6.1371 10.7794,-11.3718 16.4387,-16.7331 6.3585,-5.7906 12.6263,-11.8 20.4517,-15.5982 4.803,-2.4074 8.4336,-6.222 9.3624,-11.6698 1.2534,-5.0462 2.6492,-10.1617 4.7489,-14.8869 0.4318,-0.5745 0.8635,-1.1489 1.2953,-1.7234 0.4919,-0.452 1.0552,-0.8369 1.4756,-1.35606 2.0213,-2.49591 2.423,-5.99119 4.5294,-8.44925 3.9402,-5.69104 4.5646,-12.90988 7.3257,-19.18739 3.3041,-7.77478 7.0874,-15.30936 11.7957,-22.34255 4.7238,-7.91222 9.581,-15.73453 14.7435,-23.36892 0.1011,-0.16484 5.2771,-8.61015 5.3326,-8.69017 4.6226,-6.65905 10.7697,-12.19136 15.1214,-19.06921 9.4775,-13.60017 18.0997,-27.79358 28.4472,-40.79379 6.3423,-8.12451 48.8218,-65.61847 55.4651,-37.37706 -5.9695,7.33653 -11.6789,14.88011 -18.0843,21.86197 -6.6188,6.9772 -13.1785,14.04487 -18.8284,21.84832 -5.224,7.16604 -10.7478,14.10587 -15.2596,21.76956 -4.2761,7.03617 -8.6706,13.78257 -14.1569,19.96906 -4.8024,7.72752 -10.3521,14.83682 -15.4029,22.40775 -6.0454,8.57795 -12.0179,17.21016 -16.7035,26.63405 -7.0351,11.77757 -14.0862,23.59325 -22.3269,34.57635 -9.6568,13.38094 -19.5088,26.57134 -31.0219,38.45454 -9.4994,10.1425 -18.7366,20.5163 -28.0153,30.8525 0,0 -39.3098,15.8667 -39.3098,15.8667 z"
       inkscape:connector-curvature="0" />
    <path
       style="fill:#ff0000;fill-opacity:0.96159273"
       id="path5626"
       d="m -1942.2975,-249.2676 c -3.1268,-10.1983 -5.4011,-20.6102 -6.636,-31.2012 -1.4256,-10.7413 -2.7925,-21.4985 -3.4298,-32.3186 -0.3327,-16.4845 -0.1788,-32.9746 -0.2353,-49.4617 -0.046,-13.9979 -0.1873,-27.99547 -0.2366,-41.99348 -0.011,-10.79136 -0.055,-21.58255 -0.01,-32.37382 0.058,-12.74443 0.1343,-25.48827 0.056,-38.23279 -0.088,-12.11916 0.034,-24.23836 0,-36.35753 -0.081,-9.27661 -0.1217,-18.5534 -0.1858,-27.83013 0.025,-9.44275 0.089,-18.88503 0.1418,-28.32787 -0.6739,-8.2473 0.9046,-16.78227 -0.3358,-24.98353 12.6591,-5.98474 24.8376,-13.11478 37.9772,-17.95421 1.2651,-0.46595 -0.1461,2.6925 -0.1978,4.03968 -0.088,2.30041 -0.1642,4.60135 -0.2216,6.90272 -0.2836,11.35443 -0.389,22.71251 -0.4932,34.06955 -0.2049,31.46263 -0.2468,62.92565 -0.2779,94.38882 -0.044,32.26881 0.081,64.5375 0.099,96.80629 0.1107,23.1048 0.4116,46.2083 0.4391,69.3135 0.075,18.211 0.044,36.4219 0.075,54.633 0.4985,10.9577 -0.5346,22.0297 0.5588,32.9629 -12.6082,5.4191 -24.7767,12.0048 -37.8247,16.2572 -1.2529,0.4083 0.048,-2.6351 0.07,-3.9526 0.1168,-7.0167 0.1104,-14.0337 0.1239,-21.0511 -0.097,-9.9679 -0.2699,-19.9132 0.6801,-29.8435 1.179,-10.3313 1.5904,-20.7204 1.8988,-31.1066 0.3275,-1.814 0.5906,-3.6408 0.9824,-5.442 2.3259,-10.6921 0.8384,-1.4936 3.1244,-13.2457 1.9695,-10.1244 2.8045,-20.3107 3.608,-30.5779 1.2082,-18.2706 1.2775,-36.5853 1.2722,-54.88709 -0.098,-10.65736 -0.1001,-21.31506 -0.1473,-31.97255 -0.091,-9.49375 -0.024,-18.98787 -0.036,-28.48173 -0.3215,-14.04927 1.1228,-28.02424 2.6706,-41.96403 0.7665,-6.661 1.3771,-13.33744 1.9639,-20.01603 0,0 37.3635,-18.63316 37.3635,-18.63316 l 0,0 c -0.5767,6.76565 -1.2988,13.51009 -2.1798,20.24412 -1.5711,13.7162 -2.9569,27.47084 -2.3956,41.30002 -0.01,9.49483 0.069,18.98969 0.015,28.48457 -0.01,10.71712 0.072,21.43519 -0.1206,32.15144 -0.2683,18.50419 -0.8905,37.00314 -1.8738,55.48344 -1.0298,16.3418 -1.8709,32.8189 -6.7314,48.5795 -0.3025,10.4721 -0.906,20.9408 -1.8188,31.3772 -0.9417,9.8364 -1.1096,19.6433 -0.9469,29.5299 0.014,6.9753 0.01,13.9503 0.1238,20.9248 0.022,1.2938 1.1336,3.1441 0.07,3.8812 -12.0275,8.3368 -25.2164,14.8588 -37.8247,22.2881 1.0105,-11.1341 0.1236,-22.3769 0.5589,-33.5324 0.031,-18.2365 3e-4,-36.4729 0.075,-54.7093 0.028,-23.2543 0.3287,-46.507 0.4391,-69.761 0.018,-32.30251 0.1437,-64.60497 0.099,-96.90756 -0.031,-31.36874 -0.072,-62.73735 -0.278,-94.10556 -0.1242,-13.41229 -0.1801,-26.83957 -0.7148,-40.24385 -0.051,-1.28007 -1.2715,-3.13945 -0.1977,-3.83819 12.0903,-7.86766 25.3181,-13.83097 37.9771,-20.74645 -1.0943,8.35048 0.2283,16.93943 -0.3357,25.32571 0.053,9.39469 0.1165,18.78881 0.1417,28.1834 -0.064,9.33982 -0.1052,18.6797 -0.1857,28.01939 -0.039,12.12081 0.083,24.24164 -0.01,36.36244 -0.077,12.72569 0,25.4507 0.056,38.17632 0.046,10.79778 -7e-4,21.59545 -0.025,32.39327 -0.069,14.08306 -0.2423,28.16531 -0.2795,42.24848 -0.023,16.3124 -0.01,32.6361 0.7476,48.9342 0.6059,10.7559 1.546,21.4924 3.2914,32.1311 1.1217,10.2846 2.8906,20.5273 6.5275,30.2588 0,0 -37.0446,20.4021 -37.0446,20.4021 z"
       inkscape:connector-curvature="0" />
  </g>
</svg>
