<?xml version="1.0" encoding="UTF-8" standalone="no"?>
<!-- Created with Inkscape (http://www.inkscape.org/) -->

<svg
   xmlns:dc="http://purl.org/dc/elements/1.1/"
   xmlns:cc="http://creativecommons.org/ns#"
   xmlns:rdf="http://www.w3.org/1999/02/22-rdf-syntax-ns#"
   xmlns:svg="http://www.w3.org/2000/svg"
   xmlns="http://www.w3.org/2000/svg"
   xmlns:sodipodi="http://sodipodi.sourceforge.net/DTD/sodipodi-0.dtd"
   xmlns:inkscape="http://www.inkscape.org/namespaces/inkscape"
   width="326.565mm"
   height="465.83029mm"
   viewBox="0 0 1157.1201 1650.5798"
   id="svg13642"
   version="1.1"
   inkscape:version="0.91 r13725"
   sodipodi:docname="labanda.svg">
  <defs
     id="defs13644">
    <inkscape:path-effect
       effect="spiro"
       id="path-effect4517-7"
       is_visible="true" />
    <inkscape:path-effect
       effect="spiro"
       id="path-effect4521-8"
       is_visible="true" />
    <inkscape:path-effect
       effect="spiro"
       id="path-effect4525-1"
       is_visible="true" />
    <inkscape:path-effect
       effect="spiro"
       id="path-effect4529-6"
       is_visible="true" />
    <inkscape:path-effect
       effect="spiro"
       id="path-effect4533-2"
       is_visible="true" />
    <inkscape:path-effect
       effect="spiro"
       id="path-effect4537-6"
       is_visible="true" />
    <inkscape:path-effect
       effect="spiro"
       id="path-effect4541-0"
       is_visible="true" />
    <inkscape:path-effect
       effect="spiro"
       id="path-effect4545-6"
       is_visible="true" />
    <inkscape:path-effect
       effect="spiro"
       id="path-effect4549-3"
       is_visible="true" />
    <inkscape:path-effect
       effect="spiro"
       id="path-effect4553-9"
       is_visible="true" />
    <inkscape:path-effect
       effect="spiro"
       id="path-effect4557-0"
       is_visible="true" />
    <inkscape:path-effect
       effect="spiro"
       id="path-effect4569-7"
       is_visible="true" />
    <inkscape:path-effect
       effect="spiro"
       id="path-effect4573-2"
       is_visible="true" />
    <inkscape:path-effect
       effect="spiro"
       id="path-effect4577-1"
       is_visible="true" />
    <inkscape:path-effect
       effect="spiro"
       id="path-effect4581-9"
       is_visible="true" />
    <inkscape:path-effect
       effect="spiro"
       id="path-effect4585-2"
       is_visible="true" />
    <inkscape:path-effect
       effect="spiro"
       id="path-effect4589-6"
       is_visible="true" />
    <inkscape:path-effect
       effect="spiro"
       id="path-effect4593-5"
       is_visible="true" />
    <inkscape:path-effect
       effect="spiro"
       id="path-effect4597-3"
       is_visible="true" />
    <inkscape:path-effect
       effect="spiro"
       id="path-effect4601-5"
       is_visible="true" />
    <inkscape:path-effect
       effect="spiro"
       id="path-effect4605-7"
       is_visible="true" />
    <inkscape:path-effect
       effect="spiro"
       id="path-effect4609-6"
       is_visible="true" />
    <inkscape:path-effect
       effect="spiro"
       id="path-effect4613-3"
       is_visible="true" />
  </defs>
  <sodipodi:namedview
     id="base"
     pagecolor="#ffffff"
     bordercolor="#666666"
     borderopacity="1.0"
     inkscape:pageopacity="0.0"
     inkscape:pageshadow="2"
     inkscape:zoom="0.35"
     inkscape:cx="1884.9887"
     inkscape:cy="751.00411"
     inkscape:document-units="px"
     inkscape:current-layer="layer1"
     showgrid="false"
     fit-margin-top="0"
     fit-margin-left="0"
     fit-margin-right="0"
     fit-margin-bottom="0"
     inkscape:window-width="1920"
     inkscape:window-height="1016"
     inkscape:window-x="0"
     inkscape:window-y="27"
     inkscape:window-maximized="1" />
  <metadata
     id="metadata13647">
    <rdf:RDF>
      <cc:Work
         rdf:about="">
        <dc:format>image/svg+xml</dc:format>
        <dc:type
           rdf:resource="http://purl.org/dc/dcmitype/StillImage" />
        <dc:title></dc:title>
      </cc:Work>
    </rdf:RDF>
  </metadata>
  <g
     inkscape:label="Layer 1"
     inkscape:groupmode="layer"
     id="layer1"
     transform="translate(2012.8458,938.64202)">
    <ellipse
       style="display:inline;opacity:0.7;fill:#ff2a2a;fill-opacity:0.96159273"
       id="path4275"
       cx="-1970.3955"
       cy="75.955704"
       rx="7.1428571"
       ry="1.4285715" />
    <path
       style="display:inline;opacity:0.98999999;fill:#00ffff;fill-opacity:0.00030272;stroke:#a793ac"
       d="m -1554.6813,-574.04429 c -34.7819,11.21998 -64.7308,36.68929 -81.3916,69.21754 -16.6608,32.52825 -19.8284,71.71484 -8.6084,106.49676 11.22,34.78192 36.6893,64.73081 69.2175,81.39162 32.5283,16.66081 71.7149,19.82836 106.4968,8.60838 34.7819,-11.21998 64.7308,-36.68929 81.3916,-69.21754 16.6608,-32.52825 19.8284,-71.71484 8.6084,-106.49676 -11.22,-34.78192 -36.6893,-64.73081 -69.2175,-81.39162 -32.5283,-16.66081 -71.7149,-19.82836 -106.4968,-8.60838 z"
       id="path4515"
       inkscape:path-effect="#path-effect4517-7"
       inkscape:original-d="m -1554.6813,-574.04429 c 368.5714,208.5714 177.1429,297.1428 85.7143,265.7143 -91.4286,-31.4286 -85.7143,-265.7143 -85.7143,-265.7143 z"
       inkscape:connector-curvature="0" />
    <path
       style="display:inline;opacity:0.98999999;fill:#000000;fill-opacity:0;stroke:#a793ac"
       d="m -1546.1099,-294.04429 157.1429,494.28567 -5.7143,-2.8571 c 33.2219,-39.85045 59.4533,-85.51244 77.1429,-134.285697 45.9337,-126.646886 30.7713,-273.938333 -40,-388.571473"
       id="path4519"
       inkscape:path-effect="#path-effect4521-8"
       inkscape:original-d="m -1546.1099,-294.04429 c 0,468.57137 157.1429,494.28567 157.1429,494.28567 l -5.7143,-2.8571 c 0,0 54.2857,-5.7143 77.1429,-134.285697 22.8571,-128.57147 -22.8572,-317.142873 -40,-388.571473"
       inkscape:connector-curvature="0" />
    <path
       style="display:inline;opacity:0.98999999;fill:#3e3748;fill-opacity:0;stroke:#a793ac"
       d="m -1374.6813,-445.47289 514.28568,-2.8571 c -48.27026,-47.58566 -105.87669,-85.66451 -168.57138,-111.4286 -130.376,-53.57741 -282.5909,-51.46331 -411.4286,5.7143 l 122.8572,-374.28573 c -59.7089,-11.43064 -124.1234,4.67297 -171.4286,42.85713 -45.5857,36.79617 -74.5811,93.40866 -77.801,151.90349 -3.2199,58.49482 19.3866,117.94779 60.6581,159.52511 l -234.2857,-320 c -31.8789,28.14434 -55.8699,65.13056 -68.5714,105.7143 -18.952,60.55538 -11.9204,128.77591 18.985,184.19242 30.9054,55.41651 85.2504,97.25066 146.7293,112.95038"
       id="path4523"
       inkscape:path-effect="#path-effect4525-1"
       inkscape:original-d="m -1374.6813,-445.47289 514.28568,-2.8571 c 0,0 22.8572,-74.2857 -168.57138,-111.4286 -191.4286,-37.1428 -411.4286,5.7143 -411.4286,5.7143 l 122.8572,-374.28573 c 0,0 -168.5715,-45.7143 -171.4286,42.85713 -2.8572,88.5715 -17.1429,311.4286 -17.1429,311.4286 l -234.2857,-320 c 0,0 -145.7143,5.7143 -68.5714,105.7143 77.1428,100 165.7143,297.1428 165.7143,297.1428"
       inkscape:connector-curvature="0" />
    <path
       style="display:inline;opacity:0.98999999;fill:#3e3748;fill-opacity:0;stroke:#a793ac"
       d="m -1651.8242,-411.18719 -357.1428,-105.7142 94.2857,134.2857"
       id="path4527"
       inkscape:path-effect="#path-effect4529-6"
       inkscape:original-d="m -1651.8242,-411.18719 -357.1428,-105.7142 c 0,0 -180.0001,117.1428 94.2857,134.2857"
       inkscape:connector-curvature="0" />
    <path
       style="display:inline;opacity:0.7;fill:#ff2a2a;fill-rule:evenodd;stroke:#000000;stroke-width:1px;stroke-linecap:butt;stroke-linejoin:miter;stroke-opacity:1"
       d="m -1917.5384,-394.04429 120,11.4286"
       id="path4531"
       inkscape:path-effect="#path-effect4533-2"
       inkscape:original-d="m -1917.5384,-394.04429 c 111.4285,20 485.7142,37.1429 120,11.4286"
       inkscape:connector-curvature="0" />
    <path
       style="display:inline;opacity:0.7;fill:#ff2a2a;fill-rule:evenodd;stroke:#000000;stroke-width:1px;stroke-linecap:butt;stroke-linejoin:miter;stroke-opacity:1"
       d="m -1797.5384,-391.18719 154.2857,-11.4285"
       id="path4535"
       inkscape:path-effect="#path-effect4537-6"
       inkscape:original-d="m -1797.5384,-391.18719 c 151.4285,-5.7142 154.2857,-11.4285 154.2857,-11.4285"
       inkscape:connector-curvature="0" />
    <path
       style="display:inline;opacity:0.98999999;fill:#00ffff;fill-opacity:0.00030272;stroke:#a793ac"
       d="m -1617.5384,-351.18719 -314.2858,282.857203 140,-17.1429"
       id="path4539"
       inkscape:path-effect="#path-effect4541-0"
       inkscape:original-d="m -1617.5384,-351.18719 c -302.8572,271.428603 -314.2858,282.857203 -314.2858,282.857203 0,0 -74.2857,211.428567 140,-17.1429"
       inkscape:connector-curvature="0" />
    <path
       style="display:inline;opacity:0.7;fill:#ff2a2a;fill-rule:evenodd;stroke:#000000;stroke-width:1px;stroke-linecap:butt;stroke-linejoin:miter;stroke-opacity:1"
       d="m -1757.5384,217.38428 -20,-297.142867"
       id="path4543"
       inkscape:path-effect="#path-effect4545-6"
       inkscape:original-d="m -1757.5384,217.38428 c 34.2857,-2.8572 -20,-297.142867 -20,-297.142867"
       inkscape:connector-curvature="0" />
    <path
       style="display:inline;opacity:0.7;fill:#ff2a2a;fill-rule:evenodd;stroke:#000000;stroke-width:1px;stroke-linecap:butt;stroke-linejoin:miter;stroke-opacity:1"
       d="m -1760.3956,214.52708 174.2857,-525.71427"
       id="path4547"
       inkscape:path-effect="#path-effect4549-3"
       inkscape:original-d="m -1760.3956,214.52708 174.2857,-525.71427"
       inkscape:connector-curvature="0" />
    <path
       style="display:inline;opacity:0.7;fill:#ff2a2a;fill-rule:evenodd;stroke:#000000;stroke-width:1px;stroke-linecap:butt;stroke-linejoin:miter;stroke-opacity:1"
       d="m -1357.5384,-331.18719 -25.7143,-42.8571"
       id="path4551"
       inkscape:path-effect="#path-effect4553-9"
       inkscape:original-d="m -1357.5384,-331.18719 c -25.7143,-42.8571 -25.7143,-42.8571 -25.7143,-42.8571"
       inkscape:connector-curvature="0" />
    <path
       style="display:inline;opacity:0.98999999;fill:#3e3748;fill-opacity:0;stroke:#a793ac"
       d="m -1371.8242,-388.32999 377.14288,325.714303 c 14.21357,-74.592503 -2.63275,-154.612523 -45.71428,-217.142903 -35.4275,-51.42102 -88.0534,-90.77048 -147.3944,-110.20974 -59.3409,-19.43926 -125.0488,-18.85431 -184.0342,1.63834 z"
       id="path4555"
       inkscape:path-effect="#path-effect4557-0"
       inkscape:original-d="m -1371.8242,-388.32999 c 345.7143,320.000003 377.14288,325.714303 377.14288,325.714303 0,0 122.8572,-128.571503 -45.71428,-217.142903 -168.5714,-88.5714 -331.4286,-108.5714 -331.4286,-108.5714 z"
       inkscape:connector-curvature="0" />
    <path
       style="display:inline;opacity:0.7;fill:#ff2a2a;fill-rule:evenodd;stroke:#000000;stroke-width:1px;stroke-linecap:butt;stroke-linejoin:miter;stroke-opacity:1"
       d="m -1651.8242,-448.32999 -111.4285,0"
       id="path4567"
       inkscape:path-effect="#path-effect4569-7"
       inkscape:original-d="m -1651.8242,-448.32999 c -111.4285,0 -111.4285,0 -111.4285,0"
       inkscape:connector-curvature="0" />
    <path
       style="display:inline;opacity:0.7;fill:#ff2a2a;fill-rule:evenodd;stroke:#000000;stroke-width:1px;stroke-linecap:butt;stroke-linejoin:miter;stroke-opacity:1"
       d="m -1763.2527,-391.18719 0,162.8572"
       id="path4571"
       inkscape:path-effect="#path-effect4573-2"
       inkscape:original-d="m -1763.2527,-391.18719 c 0,162.8572 0,162.8572 0,162.8572"
       inkscape:connector-curvature="0" />
    <path
       style="display:inline;opacity:0.7;fill:#ff2a2a;fill-rule:evenodd;stroke:#000000;stroke-width:1px;stroke-linecap:butt;stroke-linejoin:miter;stroke-opacity:1"
       d="m -1760.3956,211.66998 -2.8571,491.4286 2.8571,-2.8572"
       id="path4575"
       inkscape:path-effect="#path-effect4577-1"
       inkscape:original-d="m -1760.3956,211.66998 c 0,488.5714 -2.8571,491.4286 -2.8571,491.4286 l 2.8571,-2.8572"
       inkscape:connector-curvature="0" />
    <path
       style="display:inline;opacity:0.7;fill:#ff2a2a;fill-rule:evenodd;stroke:#000000;stroke-width:1px;stroke-linecap:butt;stroke-linejoin:miter;stroke-opacity:1"
       d="m -1291.8242,-439.75859 0,31.4286"
       id="path4579"
       inkscape:path-effect="#path-effect4581-9"
       inkscape:original-d="m -1291.8242,-439.75859 c 2.8572,34.2857 0,31.4286 0,31.4286"
       inkscape:connector-curvature="0" />
    <path
       style="display:inline;opacity:0.7;fill:#ff2a2a;fill-rule:evenodd;stroke:#000000;stroke-width:1px;stroke-linecap:butt;stroke-linejoin:miter;stroke-opacity:1"
       d="m -1246.1099,-162.61569 -17.1428,-131.4286"
       id="path4583"
       inkscape:path-effect="#path-effect4585-2"
       inkscape:original-d="m -1246.1099,-162.61569 -17.1428,-131.4286"
       inkscape:connector-curvature="0" />
    <path
       style="display:inline;opacity:0.7;fill:#ff2a2a;fill-rule:evenodd;stroke:#000000;stroke-width:1px;stroke-linecap:butt;stroke-linejoin:miter;stroke-opacity:1"
       d="m -1248.967,-171.18719 2.8571,880.00007"
       id="path4587"
       inkscape:path-effect="#path-effect4589-6"
       inkscape:original-d="m -1248.967,-171.18719 c 2.8571,880.00007 2.8571,880.00007 2.8571,880.00007"
       inkscape:connector-curvature="0" />
    <path
       style="display:inline;opacity:0.7;fill:#ff2a2a;fill-rule:evenodd;stroke:#000000;stroke-width:1px;stroke-linecap:butt;stroke-linejoin:miter;stroke-opacity:1"
       d="m -1243.2527,685.95568 -517.1429,5.7143"
       id="path4591"
       inkscape:path-effect="#path-effect4593-5"
       inkscape:original-d="m -1243.2527,685.95568 c -520,5.7143 -517.1429,5.7143 -517.1429,5.7143"
       inkscape:connector-curvature="0" />
    <path
       style="display:inline;opacity:0.98999999;fill:#241c1c;fill-opacity:0.00030272;stroke:#a793ac"
       d="m -1568.967,85.955683 c 8.602,10.471976 21.4619,17.338347 34.9492,18.660637 13.4874,1.32229 27.436,-2.91579 37.9079,-11.517772 10.472,-8.601978 17.3384,-21.46191 18.6607,-34.949232 1.3223,-13.487321 -2.9158,-27.435927 -11.5178,-37.907903 -8.602,-10.4719755 -21.4619,-17.3383512 -34.9492,-18.6606392 -13.4874,-1.32228806 -27.436,2.9157964 -37.9079,11.5177742 -10.472,8.601978 -17.3384,21.46191 -18.6607,34.949232 -1.3223,13.487321 2.9158,27.435927 11.5178,37.907903 z"
       id="path4595"
       inkscape:path-effect="#path-effect4597-3"
       inkscape:original-d="m -1568.967,85.955683 c -2.8572,-54.28567 128.5714,-202.857073 80,-65.71427 -48.5714,137.142867 -80,65.71427 -80,65.71427 z"
       inkscape:connector-curvature="0" />
    <path
       style="display:inline;opacity:0.7;fill:#ff2a2a;fill-rule:evenodd;stroke:#000000;stroke-width:1px;stroke-linecap:butt;stroke-linejoin:miter;stroke-opacity:1"
       d="m -1634.6813,694.52708 -5.7143,-300 194.2857,2.8572 5.7143,291.4286"
       id="path4599"
       inkscape:path-effect="#path-effect4601-5"
       inkscape:original-d="m -1634.6813,694.52708 c -5.7143,-80 -5.7143,-300 -5.7143,-300 l 194.2857,2.8572 5.7143,291.4286"
       inkscape:connector-curvature="0" />
    <path
       style="display:inline;opacity:0.7;fill:#ff2a2a;fill-rule:evenodd;stroke:#000000;stroke-width:1px;stroke-linecap:butt;stroke-linejoin:miter;stroke-opacity:1"
       d="m -1643.2527,391.66998 c 9.6086,-18.61405 24.607,-34.40616 42.7012,-44.96114 18.0943,-10.55498 39.2234,-15.83721 60.1559,-15.03886 20.5792,0.78488 40.9021,7.43946 57.9599,18.97857 17.0578,11.53911 30.7968,27.92637 39.183,46.73573"
       id="path4603"
       inkscape:path-effect="#path-effect4605-7"
       inkscape:original-d="m -1643.2527,391.66998 c 0,0 74.2857,-60 102.8571,-60 28.5714,0 97.1429,65.7143 97.1429,65.7143"
       inkscape:connector-curvature="0" />
    <path
       style="display:inline;opacity:0.7;fill:#ff2a2a;fill-rule:evenodd;stroke:#000000;stroke-width:1px;stroke-linecap:butt;stroke-linejoin:miter;stroke-opacity:1"
       d="m -1580.3956,505.95568 0,51.4286"
       id="path4607"
       inkscape:path-effect="#path-effect4609-6"
       inkscape:original-d="m -1580.3956,505.95568 c 0,51.4286 0,51.4286 0,51.4286"
       inkscape:connector-curvature="0" />
    <path
       style="display:inline;opacity:0.7;fill:#ff2a2a;fill-rule:evenodd;stroke:#000000;stroke-width:1px;stroke-linecap:butt;stroke-linejoin:miter;stroke-opacity:1"
       d="m -1577.5384,508.81288 c 3.9821,-0.26328 8.0388,0.7509 11.4285,2.8571 4.0286,2.50321 7.0726,6.5475 8.3633,11.11152 1.2906,4.56402 0.8153,9.6035 -1.3058,13.84577 -2.1211,4.24226 -5.8675,7.64617 -10.2931,9.35209 -4.4256,1.70591 -9.4874,1.69729 -13.9072,-0.0237"
       id="path4611"
       inkscape:path-effect="#path-effect4613-3"
       inkscape:original-d="m -1577.5384,508.81288 c 0,0 28.5714,-45.7143 11.4285,2.8571 -17.1428,48.5714 -17.1428,34.2857 -17.1428,34.2857"
       inkscape:connector-curvature="0" />
    <path
       style="display:inline;opacity:0.98999999;fill:#ff2a2a;fill-opacity:0"
       d="m -1246.5379,699.85738 -0.4291,-12.0805 -192.1428,1.7978 c -105.6786,0.9887 -192.4631,2.5678 -192.8544,3.509 -0.3913,0.9412 -29.7972,1.3422 -65.3464,0.891 -56.5959,-0.7183 -64.4296,-0.2854 -62.9847,3.4799 0.9076,2.3652 0.2268,5.18 -1.5129,6.2551 -2.3083,1.4267 -2.7241,-68.6127 -1.5386,-259.1942 l 1.6244,-261.149 -8.3167,-124.285767 c -4.5743,-68.3570997 -8.1627,-128.1428 -7.9743,-132.8571 0.7448,-18.6401 5.0037,31.3542 12.7424,149.57817 l 8.1079,123.863897 19.1585,-56.721 c 10.5371,-31.1966 19.2599,-54.755397 19.3838,-52.352997 0.1239,2.4025 -8.321,29.402497 -18.7665,59.999997 l -18.9917,55.6319 -2.1602,118.5714 c -1.1882,65.2143 -2.2847,174.1786 -2.4369,242.1429 l -0.2766,123.5714 39.2857,-0.017 c 21.6072,-0.01 50.009,-0.8518 63.1153,-1.8719 l 23.8295,-1.8549 -1.62,-21.6994 c -0.891,-11.9347 -2.448,-78.1606 -3.46,-147.1685 l -1.84,-125.4691 97.6696,1.8644 97.6696,1.8644 -1.9317,-6.3954 c -1.3537,-4.4817 -1.0178,-5.5347 1.1227,-3.5192 1.9832,1.8675 3.5827,35.4337 4.561,95.7143 0.8286,51.061 2.3252,118.3917 3.3256,149.6239 l 1.819,56.7857 14.6554,-1.7609 c 8.0605,-0.9685 50.7169,-1.7721 94.7921,-1.7857 l 80.1366,-0.025 -0.9041,-429.2857 -0.904,-429.28577 -7.4598,-59.3918 c -4.1028,-32.6656 -6.6369,-60.2147 -5.6313,-61.2203 1.0056,-1.0056 5.6587,1.8413 10.3402,6.3264 4.6815,4.4852 7.8773,8.7894 7.1018,9.5649 -0.7755,0.7755 -4.7329,-1.7022 -8.7942,-5.506 l -7.3842,-6.916 1.7001,10 c 0.935,5.5 4.3085,29.9286 7.4967,54.2857 5.4107,41.3368 5.8097,60.2671 5.9923,284.285703 0.1078,131.999967 1.0264,327.428567 2.0416,434.285667 1.0153,106.8572 1.0748,200.0715 0.1323,207.1429 l -1.7137,12.8571 -0.4292,-12.0804 -10e-5,0 z m -195.7797,-37.2052 c -0.9194,-13.75 -2.4891,-78.4766 -3.4882,-143.8369 l -1.8168,-118.8369 -70.3865,-1.8712 c -38.7125,-1.0292 -81.7845,-1.874 -95.7156,-1.8774 l -25.3291,-0.01 1.7813,90.7143 c 0.9796,49.8928 2.5539,115.4643 3.4984,145.7143 l 1.7171,55 95.7055,0 95.7054,0 -1.6715,-25 z"
       id="path4621"
       inkscape:connector-curvature="0" />
    <path
       style="display:inline;opacity:0.98999999;fill:#c4b7c8;fill-opacity:0"
       d="m -1246.967,699.55688 0,-11.9047 -25,0.158 c -13.75,0.087 -100.2143,1.3337 -192.1428,2.7706 -91.9286,1.4369 -196.5461,2.6107 -232.4834,2.6083 -56.9026,0 -65.1282,0.5491 -63.6962,4.2807 0.9043,2.3567 0.2751,5.1311 -1.3984,6.1654 -2.1462,1.3264 -2.8144,-80.0927 -2.2679,-276.3371 0.771,-276.8746 0.7381,-278.7251 -6.8325,-383.381467 -7.1209,-98.4394 -8.8864,-136.9756 -5.4573,-119.1216 0.7545,3.9286 5.4027,66.7493003 10.3293,139.60147 l 8.9574,132.458697 83.9329,-252.790667 c 46.163,-139.034803 83.4469,-253.931603 82.853,-255.326103 -0.5939,-1.3945 -8.3737,-9.3738 -17.2885,-17.7316 l -16.2087,-15.1962 -9.7992,15.2065 c -5.3895,8.3636 -43.2993,66.2171 -84.244,128.5633 -40.9447,62.3462 -73.8331,113.968603 -73.0853,114.716303 1.7903,1.7903 -9.0374,3.4259 -80.0241,12.0877 -32.7636,3.9978 -60.754,6.874 -62.2011,6.3917 -1.4471,-0.4824 36.288,-35.839903 83.8558,-78.572403 l 86.4867,-77.6954 -0.7973,-84.3756 -0.7972,-84.3756 -17.7742,1.776 c -9.7758,0.9768 -16.8658,0.7948 -15.7556,-0.4043 1.5833,-1.7102 120.8244,-12.3942 142.9815,-12.8111 2.75,-0.052 5,-1.2299 5,-2.618 0,-5.4045 -13.1519,-4.7293 -104.2857,5.3542 -82.5677,9.1356 -92.1552,10.6882 -77.1429,12.4925 27.7391,3.3338 36.3903,4.9535 34.8239,6.52 -0.8109,0.8109 -16.4862,-0.073 -34.8341,-1.9651 -31.3168,-3.2287 -71.7814,-2.6924 -81.4184,1.0793 -3.1146,1.219 -17.2523,-16.8343 -51.7388,-66.0684 -26.0992,-37.2602 -45.988,-68.1072 -44.1974,-68.549 1.7907,-0.4418 56.5731,14.9868 121.7388,34.2857 l 118.4831,35.089 57.8315,-0.8289 57.8315,-0.8288 1.6924,-7.7426 c 0.9308,-4.2584 3.3711,-13.0171 5.4228,-19.4636 l 3.7304,-11.7211 -16.1114,-5.0118 c -68.6827,-21.3652 -126.962,-78.3582 -150.304,-146.9865 -14.1946,-41.7337 -16.4683,-98.2103 -5.5899,-138.8453 9.9374,-37.1199 35.0004,-80.5318 60.9701,-105.607 11.5988,-11.1993 11.7826,-11.2609 17.0464,-5.7143 2.9267,3.0839 44.2436,58.9642 91.8154,124.1785 47.5717,65.2142 87.1552,119.2142 87.9632,119.9999 0.8081,0.7858 0.5251,-1.1428 -0.6289,-4.2857 -13.3009,-36.225 -15.3389,-88.411 -4.9033,-125.5526 21.002,-74.7486 78.1142,-131.68003 150.7288,-150.25173 22.849,-5.8438 84.3208,-8.0112 91.8406,-3.2382 2.746,1.743 -10.8924,46.52633 -56.4286,185.28973 -33.0274,100.6451 -60.0498,183.7596 -60.0498,184.699 0,0.9393 6.041,-0.8816 13.4246,-4.0465 22.474,-9.6336 68.5637,-22.3521 102.1078,-28.1769 162.8205,-28.2732 330.14708,20.43 448.22588,130.4635 7.5671,7.0515 13.3528,13.2125 12.8572,13.6911 -0.4957,0.4786 -115.4835,1.8157 -255.52848,2.9714 l -254.6272,2.1012 -1.7602,18.9394 c -0.9681,10.4167 -3.7317,25.5779 -6.1412,33.6917 l -4.3809,14.7522 13.2243,21.7823 c 7.2733,11.9802 12.4405,22.5659 11.4826,23.5238 -2.1835,2.1835 -1.5182,3.0618 -15.2161,-20.0899 l -11.508,-19.4506 -11.3178,16.5934 c -6.2249,9.1264 -18.0091,22.0577 -26.1872,28.7363 -8.1782,6.6786 -13.3569,12.1429 -11.5083,12.1429 2.6416,0 61.4594,-9.6439 74.905,-12.2816 1.6136,-0.3166 9.7245,12.2816 18.0241,27.9958 47.3696,89.6883 61.9883,208.954803 38.1723,311.428603 -12.3941,53.32877 -38.1913,110.923867 -68.8565,153.729967 -9.2248,12.8771 -16.7832,25.77 -16.7964,28.651 -0.014,2.9183 -1.6058,4.7074 -3.5955,4.0398 -1.9643,-0.6592 -3.5896,-3.1988 -3.6117,-5.6436 -0.023,-2.4449 -34.7364,-113.701397 -77.1429,-247.236667 l -77.1026,-242.791403 -16.9918,-7.5255 c -9.3456,-4.139 -17.8286,-6.5576 -18.8512,-5.3746 -1.0226,1.1831 -40.2619,117.8653 -87.1984,259.293903 l -85.3392,257.142867 -1.9253,135.7142 c -1.0589,74.6429 -2.0661,183.1654 -2.2382,241.1611 l -0.313,105.4468 62.0097,-1.9804 c 34.1054,-1.0891 62.1257,-2.2545 62.2674,-2.5896 0.1418,-0.3351 -0.629,-44.9664 -1.7126,-99.1807 -3.9656,-198.3849 -3.9464,-201.7512 1.196,-209.5995 9.2445,-14.1088 26.5704,-28.5036 44.8109,-37.2301 17.1366,-8.1983 20.8893,-8.8847 48.5715,-8.8847 26.5143,0 31.8839,0.8832 46.2147,7.6012 17.753,8.3223 39.1293,26.5022 47.9575,40.7867 5.1644,8.3561 5.762,15.9579 7.1037,90.3678 0.8058,44.6844 2.2746,111.4586 3.2641,148.3871 l 1.7991,67.1429 94.6876,-0.7868 94.6875,-0.7868 -0.8457,-430.6418 -0.8458,-430.64177 -7.0114,-54.0338 c -3.8562,-29.7185 -7.0113,-55.6845 -7.0113,-57.7022 0,-2.0176 -24.1072,-24.5202 -53.5715,-50.0059 -29.4643,-25.4856 -53.5714,-47.6883 -53.5714,-49.3392 0,-4.1969 27.8197,-12.3252 50,-14.6089 29.0852,-2.9947 28.1748,-2.3017 29.3171,-22.3176 l 1.0104,-17.7066 0.5506,17.4487 0.5505,17.4487 28.7764,1.9819 c 125.5821,8.6493 229.5325,92.0047 262.35428,210.3758 8.846,31.9026 12.7797,76.3087 9.4325,106.478203 -1.5355,13.839 -3.5259,25.896 -4.4232,26.7933 -1.5128,1.5128 -24.68378,-18.135 -202.67588,-171.859803 -46.7886,-40.4096 -64.7004,-54.3627 -63.6612,-49.5916 0.7954,3.6515 3.9877,27.2105 7.0942,52.3533 5.6792,45.9657 6.8201,157.837903 9.014,883.86567 0.092,30.4118 -0.5577,56.019 -1.4434,56.9048 -0.8858,0.8857 -1.6106,-3.7467 -1.6106,-10.2943 z m -356.3424,-308.2782 c -6.6311,-0.5992 -18.2025,-0.6064 -25.7142,-0.017 -7.5117,0.5904 -2.0862,1.0807 12.0566,1.0894 14.1429,0.01 20.2888,-0.4744 13.6576,-1.0736 l 0,0 z m -81.5105,-684.78307 59.9376,-54.0136 -6.7391,-9.9307 c -3.7065,-5.4618 -9.474,-17.4312 -12.8166,-26.5986 l -6.0774,-16.6679 -11.7972,1.358 c -13.8491,1.5942 -86.3125,7.0094 -93.7969,7.0094 -4.8349,0 -5.1432,4.9794 -5.1432,83.0642 l 0,83.0642 8.2476,-6.6356 c 4.5362,-3.6496 35.2196,-30.9418 68.1852,-60.6494 z m 32.1386,-137.4149 0,-15.7143 -53.5714,0.2255 c -29.4643,0.124 -52.2857,0.762 -50.7143,1.4176 6.6477,2.7737 97.4545,29.4895 100.7143,29.6307 2.443,0.1057 3.5714,-4.8104 3.5714,-15.5596 l 0,1e-4 z"
       id="path4629"
       inkscape:connector-curvature="0" />
    <path
       style="display:inline;opacity:0.98999999;fill:#c4b7c8;fill-opacity:0"
       d="m -1246.967,699.55688 0,-11.9047 -25,0.158 c -13.75,0.087 -100.2143,1.3337 -192.1428,2.7706 -91.9286,1.4369 -196.5461,2.6107 -232.4834,2.6083 -56.9026,0 -65.1282,0.5491 -63.6962,4.2807 0.9043,2.3567 0.2751,5.1311 -1.3984,6.1654 -2.1462,1.3264 -2.8144,-80.0927 -2.2679,-276.3371 0.771,-276.8746 0.7381,-278.7251 -6.8325,-383.381467 -7.1209,-98.4394 -8.8864,-136.9756 -5.4573,-119.1216 0.7545,3.9286 5.4027,66.7493003 10.3293,139.60147 l 8.9574,132.458697 83.9329,-252.790667 c 46.163,-139.034803 83.4469,-253.931603 82.853,-255.326103 -0.5939,-1.3945 -8.3737,-9.3738 -17.2885,-17.7316 l -16.2087,-15.1962 -9.7992,15.2065 c -5.3895,8.3636 -43.2993,66.2171 -84.244,128.5633 -40.9447,62.3462 -73.8331,113.968603 -73.0853,114.716303 1.7903,1.7903 -9.0374,3.4259 -80.0241,12.0877 -32.7636,3.9978 -60.754,6.874 -62.2011,6.3917 -1.4471,-0.4824 36.288,-35.839903 83.8558,-78.572403 l 86.4867,-77.6954 -0.7973,-84.3756 -0.7972,-84.3756 -17.7742,1.776 c -9.7758,0.9768 -16.8658,0.7948 -15.7556,-0.4043 1.5833,-1.7102 120.8244,-12.3942 142.9815,-12.8111 2.75,-0.052 5,-1.2299 5,-2.618 0,-5.4045 -13.1519,-4.7293 -104.2857,5.3542 -82.5677,9.1356 -92.1552,10.6882 -77.1429,12.4925 27.7391,3.3338 36.3903,4.9535 34.8239,6.52 -0.8109,0.8109 -16.4862,-0.073 -34.8341,-1.9651 -31.3168,-3.2287 -71.7814,-2.6924 -81.4184,1.0793 -3.1146,1.219 -17.2523,-16.8343 -51.7388,-66.0684 -26.0992,-37.2602 -45.988,-68.1072 -44.1974,-68.549 1.7907,-0.4418 56.5731,14.9868 121.7388,34.2857 l 118.4831,35.089 57.8315,-0.8289 57.8315,-0.8288 1.6924,-7.7426 c 0.9308,-4.2584 3.3711,-13.0171 5.4228,-19.4636 l 3.7304,-11.7211 -16.1114,-5.0118 c -68.6827,-21.3652 -126.962,-78.3582 -150.304,-146.9865 -14.1946,-41.7337 -16.4683,-98.2103 -5.5899,-138.8453 9.9374,-37.1199 35.0004,-80.5318 60.9701,-105.607 11.5988,-11.1993 11.7826,-11.2609 17.0464,-5.7143 2.9267,3.0839 44.2436,58.9642 91.8154,124.1785 47.5717,65.2142 87.1552,119.2142 87.9632,119.9999 0.8081,0.7858 0.5251,-1.1428 -0.6289,-4.2857 -13.3009,-36.225 -15.3389,-88.411 -4.9033,-125.5526 21.002,-74.7486 78.1142,-131.68003 150.7288,-150.25173 22.849,-5.8438 84.3208,-8.0112 91.8406,-3.2382 2.746,1.743 -10.8924,46.52633 -56.4286,185.28973 -33.0274,100.6451 -60.0498,183.7596 -60.0498,184.699 0,0.9393 6.041,-0.8816 13.4246,-4.0465 22.474,-9.6336 68.5637,-22.3521 102.1078,-28.1769 162.8205,-28.2732 330.14708,20.43 448.22588,130.4635 7.5671,7.0515 13.3528,13.2125 12.8572,13.6911 -0.4957,0.4786 -115.4835,1.8157 -255.52848,2.9714 l -254.6272,2.1012 -1.7602,18.9394 c -0.9681,10.4167 -3.7317,25.5779 -6.1412,33.6917 l -4.3809,14.7522 13.2243,21.7823 c 7.2733,11.9802 12.4405,22.5659 11.4826,23.5238 -2.1835,2.1835 -1.5182,3.0618 -15.2161,-20.0899 l -11.508,-19.4506 -11.3178,16.5934 c -6.2249,9.1264 -18.0091,22.0577 -26.1872,28.7363 -8.1782,6.6786 -13.3569,12.1429 -11.5083,12.1429 2.6416,0 61.4594,-9.6439 74.905,-12.2816 1.6136,-0.3166 9.7245,12.2816 18.0241,27.9958 47.3696,89.6883 61.9883,208.954803 38.1723,311.428603 -12.3941,53.32877 -38.1913,110.923867 -68.8565,153.729967 -9.2248,12.8771 -16.7832,25.77 -16.7964,28.651 -0.014,2.9183 -1.6058,4.7074 -3.5955,4.0398 -1.9643,-0.6592 -3.5896,-3.1988 -3.6117,-5.6436 -0.023,-2.4449 -34.7364,-113.701397 -77.1429,-247.236667 l -77.1026,-242.791403 -16.9918,-7.5255 c -9.3456,-4.139 -17.8286,-6.5576 -18.8512,-5.3746 -1.0226,1.1831 -40.2619,117.8653 -87.1984,259.293903 l -85.3392,257.142867 -1.9253,135.7142 c -1.0589,74.6429 -2.0661,183.1654 -2.2382,241.1611 l -0.313,105.4468 62.0097,-1.9804 c 34.1054,-1.0891 62.1257,-2.2545 62.2674,-2.5896 0.1418,-0.3351 -0.629,-44.9664 -1.7126,-99.1807 -3.9656,-198.3849 -3.9464,-201.7512 1.196,-209.5995 9.2445,-14.1088 26.5704,-28.5036 44.8109,-37.2301 17.1366,-8.1983 20.8893,-8.8847 48.5715,-8.8847 26.5143,0 31.8839,0.8832 46.2147,7.6012 17.753,8.3223 39.1293,26.5022 47.9575,40.7867 5.1644,8.3561 5.762,15.9579 7.1037,90.3678 0.8058,44.6844 2.2746,111.4586 3.2641,148.3871 l 1.7991,67.1429 94.6876,-0.7868 94.6875,-0.7868 -0.8457,-430.6418 -0.8458,-430.64177 -7.0114,-54.0338 c -3.8562,-29.7185 -7.0113,-55.6845 -7.0113,-57.7022 0,-2.0176 -24.1072,-24.5202 -53.5715,-50.0059 -29.4643,-25.4856 -53.5714,-47.6883 -53.5714,-49.3392 0,-4.1969 27.8197,-12.3252 50,-14.6089 29.0852,-2.9947 28.1748,-2.3017 29.3171,-22.3176 l 1.0104,-17.7066 0.5506,17.4487 0.5505,17.4487 28.7764,1.9819 c 125.5821,8.6493 229.5325,92.0047 262.35428,210.3758 8.846,31.9026 12.7797,76.3087 9.4325,106.478203 -1.5355,13.839 -3.5259,25.896 -4.4232,26.7933 -1.5128,1.5128 -24.68378,-18.135 -202.67588,-171.859803 -46.7886,-40.4096 -64.7004,-54.3627 -63.6612,-49.5916 0.7954,3.6515 3.9877,27.2105 7.0942,52.3533 5.6792,45.9657 6.8201,157.837903 9.014,883.86567 0.092,30.4118 -0.5577,56.019 -1.4434,56.9048 -0.8858,0.8857 -1.6106,-3.7467 -1.6106,-10.2943 z m -356.3424,-308.2782 c -6.6311,-0.5992 -18.2025,-0.6064 -25.7142,-0.017 -7.5117,0.5904 -2.0862,1.0807 12.0566,1.0894 14.1429,0.01 20.2888,-0.4744 13.6576,-1.0736 l 0,0 z m -81.5105,-684.78307 59.9376,-54.0136 -6.7391,-9.9307 c -3.7065,-5.4618 -9.474,-17.4312 -12.8166,-26.5986 l -6.0774,-16.6679 -11.7972,1.358 c -13.8491,1.5942 -86.3125,7.0094 -93.7969,7.0094 -4.8349,0 -5.1432,4.9794 -5.1432,83.0642 l 0,83.0642 8.2476,-6.6356 c 4.5362,-3.6496 35.2196,-30.9418 68.1852,-60.6494 z m 32.1386,-137.4149 0,-15.7143 -53.5714,0.2255 c -29.4643,0.124 -52.2857,0.762 -50.7143,1.4176 6.6477,2.7737 97.4545,29.4895 100.7143,29.6307 2.443,0.1057 3.5714,-4.8104 3.5714,-15.5596 l 0,1e-4 z"
       id="path4631"
       inkscape:connector-curvature="0" />
    <path
       style="display:inline;opacity:0.98999999;fill:#c4b7c8;fill-opacity:0"
       d="m -1246.967,699.55688 0,-11.9047 -25,0.158 c -13.75,0.087 -100.2143,1.3337 -192.1428,2.7706 -91.9286,1.4369 -196.5461,2.6107 -232.4834,2.6083 -56.9026,0 -65.1282,0.5491 -63.6962,4.2807 0.9043,2.3567 0.2751,5.1311 -1.3984,6.1654 -2.1462,1.3264 -2.8144,-80.0927 -2.2679,-276.3371 0.771,-276.8746 0.7381,-278.7251 -6.8325,-383.381467 -7.1209,-98.4394 -8.8864,-136.9756 -5.4573,-119.1216 0.7545,3.9286 5.4027,66.7493003 10.3293,139.60147 l 8.9574,132.458697 83.9329,-252.790667 c 46.163,-139.034803 83.4469,-253.931603 82.853,-255.326103 -0.5939,-1.3945 -8.3737,-9.3738 -17.2885,-17.7316 l -16.2087,-15.1962 -9.7992,15.2065 c -5.3895,8.3636 -43.2993,66.2171 -84.244,128.5633 -40.9447,62.3462 -73.8331,113.968603 -73.0853,114.716303 1.7903,1.7903 -9.0374,3.4259 -80.0241,12.0877 -32.7636,3.9978 -60.754,6.874 -62.2011,6.3917 -1.4471,-0.4824 36.288,-35.839903 83.8558,-78.572403 l 86.4867,-77.6954 -0.7973,-84.3756 -0.7972,-84.3756 -17.7742,1.776 c -9.7758,0.9768 -16.8658,0.7948 -15.7556,-0.4043 1.5833,-1.7102 120.8244,-12.3942 142.9815,-12.8111 2.75,-0.052 5,-1.2299 5,-2.618 0,-5.4045 -13.1519,-4.7293 -104.2857,5.3542 -82.5677,9.1356 -92.1552,10.6882 -77.1429,12.4925 27.7391,3.3338 36.3903,4.9535 34.8239,6.52 -0.8109,0.8109 -16.4862,-0.073 -34.8341,-1.9651 -31.3168,-3.2287 -71.7814,-2.6924 -81.4184,1.0793 -3.1146,1.219 -17.2523,-16.8343 -51.7388,-66.0684 -26.0992,-37.2602 -45.988,-68.1072 -44.1974,-68.549 1.7907,-0.4418 56.5731,14.9868 121.7388,34.2857 l 118.4831,35.089 57.8315,-0.8289 57.8315,-0.8288 1.6924,-7.7426 c 0.9308,-4.2584 3.3711,-13.0171 5.4228,-19.4636 l 3.7304,-11.7211 -16.1114,-5.0118 c -68.6827,-21.3652 -126.962,-78.3582 -150.304,-146.9865 -14.1946,-41.7337 -16.4683,-98.2103 -5.5899,-138.8453 9.9374,-37.1199 35.0004,-80.5318 60.9701,-105.607 11.5988,-11.1993 11.7826,-11.2609 17.0464,-5.7143 2.9267,3.0839 44.2436,58.9642 91.8154,124.1785 47.5717,65.2142 87.1552,119.2142 87.9632,119.9999 0.8081,0.7858 0.5251,-1.1428 -0.6289,-4.2857 -13.3009,-36.225 -15.3389,-88.411 -4.9033,-125.5526 21.002,-74.7486 78.1142,-131.68003 150.7288,-150.25173 22.849,-5.8438 84.3208,-8.0112 91.8406,-3.2382 2.746,1.743 -10.8924,46.52633 -56.4286,185.28973 -33.0274,100.6451 -60.0498,183.7596 -60.0498,184.699 0,0.9393 6.041,-0.8816 13.4246,-4.0465 22.474,-9.6336 68.5637,-22.3521 102.1078,-28.1769 162.8205,-28.2732 330.14708,20.43 448.22588,130.4635 7.5671,7.0515 13.3528,13.2125 12.8572,13.6911 -0.4957,0.4786 -115.4835,1.8157 -255.52848,2.9714 l -254.6272,2.1012 -1.7602,18.9394 c -0.9681,10.4167 -3.7317,25.5779 -6.1412,33.6917 l -4.3809,14.7522 13.2243,21.7823 c 7.2733,11.9802 12.4405,22.5659 11.4826,23.5238 -2.1835,2.1835 -1.5182,3.0618 -15.2161,-20.0899 l -11.508,-19.4506 -11.3178,16.5934 c -6.2249,9.1264 -18.0091,22.0577 -26.1872,28.7363 -8.1782,6.6786 -13.3569,12.1429 -11.5083,12.1429 2.6416,0 61.4594,-9.6439 74.905,-12.2816 1.6136,-0.3166 9.7245,12.2816 18.0241,27.9958 47.3696,89.6883 61.9883,208.954803 38.1723,311.428603 -12.3941,53.32877 -38.1913,110.923867 -68.8565,153.729967 -9.2248,12.8771 -16.7832,25.77 -16.7964,28.651 -0.014,2.9183 -1.6058,4.7074 -3.5955,4.0398 -1.9643,-0.6592 -3.5896,-3.1988 -3.6117,-5.6436 -0.023,-2.4449 -34.7364,-113.701397 -77.1429,-247.236667 l -77.1026,-242.791403 -16.9918,-7.5255 c -9.3456,-4.139 -17.8286,-6.5576 -18.8512,-5.3746 -1.0226,1.1831 -40.2619,117.8653 -87.1984,259.293903 l -85.3392,257.142867 -1.9253,135.7142 c -1.0589,74.6429 -2.0661,183.1654 -2.2382,241.1611 l -0.313,105.4468 62.0097,-1.9804 c 34.1054,-1.0891 62.1257,-2.2545 62.2674,-2.5896 0.1418,-0.3351 -0.629,-44.9664 -1.7126,-99.1807 -3.9656,-198.3849 -3.9464,-201.7512 1.196,-209.5995 9.2445,-14.1088 26.5704,-28.5036 44.8109,-37.2301 17.1366,-8.1983 20.8893,-8.8847 48.5715,-8.8847 26.5143,0 31.8839,0.8832 46.2147,7.6012 17.753,8.3223 39.1293,26.5022 47.9575,40.7867 5.1644,8.3561 5.762,15.9579 7.1037,90.3678 0.8058,44.6844 2.2746,111.4586 3.2641,148.3871 l 1.7991,67.1429 94.6876,-0.7868 94.6875,-0.7868 -0.8457,-430.6418 -0.8458,-430.64177 -7.0114,-54.0338 c -3.8562,-29.7185 -7.0113,-55.6845 -7.0113,-57.7022 0,-2.0176 -24.1072,-24.5202 -53.5715,-50.0059 -29.4643,-25.4856 -53.5714,-47.6883 -53.5714,-49.3392 0,-4.1969 27.8197,-12.3252 50,-14.6089 29.0852,-2.9947 28.1748,-2.3017 29.3171,-22.3176 l 1.0104,-17.7066 0.5506,17.4487 0.5505,17.4487 28.7764,1.9819 c 125.5821,8.6493 229.5325,92.0047 262.35428,210.3758 8.846,31.9026 12.7797,76.3087 9.4325,106.478203 -1.5355,13.839 -3.5259,25.896 -4.4232,26.7933 -1.5128,1.5128 -24.68378,-18.135 -202.67588,-171.859803 -46.7886,-40.4096 -64.7004,-54.3627 -63.6612,-49.5916 0.7954,3.6515 3.9877,27.2105 7.0942,52.3533 5.6792,45.9657 6.8201,157.837903 9.014,883.86567 0.092,30.4118 -0.5577,56.019 -1.4434,56.9048 -0.8858,0.8857 -1.6106,-3.7467 -1.6106,-10.2943 z m -356.3424,-308.2782 c -6.6311,-0.5992 -18.2025,-0.6064 -25.7142,-0.017 -7.5117,0.5904 -2.0862,1.0807 12.0566,1.0894 14.1429,0.01 20.2888,-0.4744 13.6576,-1.0736 l 0,0 z m -81.5105,-684.78307 59.9376,-54.0136 -6.7391,-9.9307 c -3.7065,-5.4618 -9.474,-17.4312 -12.8166,-26.5986 l -6.0774,-16.6679 -11.7972,1.358 c -13.8491,1.5942 -86.3125,7.0094 -93.7969,7.0094 -4.8349,0 -5.1432,4.9794 -5.1432,83.0642 l 0,83.0642 8.2476,-6.6356 c 4.5362,-3.6496 35.2196,-30.9418 68.1852,-60.6494 z m 32.1386,-137.4149 0,-15.7143 -53.5714,0.2255 c -29.4643,0.124 -52.2857,0.762 -50.7143,1.4176 6.6477,2.7737 97.4545,29.4895 100.7143,29.6307 2.443,0.1057 3.5714,-4.8104 3.5714,-15.5596 l 0,1e-4 z"
       id="path4633"
       inkscape:connector-curvature="0" />
    <path
       style="display:inline;opacity:0.98999999;fill:#c4b7c8;fill-opacity:0"
       d="m -1246.967,699.55688 0,-11.9047 -25,0.158 c -13.75,0.087 -100.2143,1.3337 -192.1428,2.7706 -91.9286,1.4369 -196.5461,2.6107 -232.4834,2.6083 -56.9026,0 -65.1282,0.5491 -63.6962,4.2807 0.9043,2.3567 0.2751,5.1311 -1.3984,6.1654 -2.1462,1.3264 -2.8144,-80.0927 -2.2679,-276.3371 0.771,-276.8746 0.7381,-278.7251 -6.8325,-383.381467 -7.1209,-98.4394 -8.8864,-136.9756 -5.4573,-119.1216 0.7545,3.9286 5.4027,66.7493003 10.3293,139.60147 l 8.9574,132.458697 83.9329,-252.790667 c 46.163,-139.034803 83.4469,-253.931603 82.853,-255.326103 -0.5939,-1.3945 -8.3737,-9.3738 -17.2885,-17.7316 l -16.2087,-15.1962 -9.7992,15.2065 c -5.3895,8.3636 -43.2993,66.2171 -84.244,128.5633 -40.9447,62.3462 -73.8331,113.968603 -73.0853,114.716303 1.7903,1.7903 -9.0374,3.4259 -80.0241,12.0877 -32.7636,3.9978 -60.754,6.874 -62.2011,6.3917 -1.4471,-0.4824 36.288,-35.839903 83.8558,-78.572403 l 86.4867,-77.6954 -0.7973,-84.3756 -0.7972,-84.3756 -17.7742,1.776 c -9.7758,0.9768 -16.8658,0.7948 -15.7556,-0.4043 1.5833,-1.7102 120.8244,-12.3942 142.9815,-12.8111 2.75,-0.052 5,-1.2299 5,-2.618 0,-5.4045 -13.1519,-4.7293 -104.2857,5.3542 -82.5677,9.1356 -92.1552,10.6882 -77.1429,12.4925 27.7391,3.3338 36.3903,4.9535 34.8239,6.52 -0.8109,0.8109 -16.4862,-0.073 -34.8341,-1.9651 -31.3168,-3.2287 -71.7814,-2.6924 -81.4184,1.0793 -3.1146,1.219 -17.2523,-16.8343 -51.7388,-66.0684 -26.0992,-37.2602 -45.988,-68.1072 -44.1974,-68.549 1.7907,-0.4418 56.5731,14.9868 121.7388,34.2857 l 118.4831,35.089 57.8315,-0.8289 57.8315,-0.8288 1.6924,-7.7426 c 0.9308,-4.2584 3.3711,-13.0171 5.4228,-19.4636 l 3.7304,-11.7211 -16.1114,-5.0118 c -68.6827,-21.3652 -126.962,-78.3582 -150.304,-146.9865 -14.1946,-41.7337 -16.4683,-98.2103 -5.5899,-138.8453 9.9374,-37.1199 35.0004,-80.5318 60.9701,-105.607 11.5988,-11.1993 11.7826,-11.2609 17.0464,-5.7143 2.9267,3.0839 44.2436,58.9642 91.8154,124.1785 47.5717,65.2142 87.1552,119.2142 87.9632,119.9999 0.8081,0.7858 0.5251,-1.1428 -0.6289,-4.2857 -13.3009,-36.225 -15.3389,-88.411 -4.9033,-125.5526 21.002,-74.7486 78.1142,-131.68003 150.7288,-150.25173 22.849,-5.8438 84.3208,-8.0112 91.8406,-3.2382 2.746,1.743 -10.8924,46.52633 -56.4286,185.28973 -33.0274,100.6451 -60.0498,183.7596 -60.0498,184.699 0,0.9393 6.041,-0.8816 13.4246,-4.0465 22.474,-9.6336 68.5637,-22.3521 102.1078,-28.1769 162.8205,-28.2732 330.14708,20.43 448.22588,130.4635 7.5671,7.0515 13.3528,13.2125 12.8572,13.6911 -0.4957,0.4786 -115.4835,1.8157 -255.52848,2.9714 l -254.6272,2.1012 -1.7602,18.9394 c -0.9681,10.4167 -3.7317,25.5779 -6.1412,33.6917 l -4.3809,14.7522 13.2243,21.7823 c 7.2733,11.9802 12.4405,22.5659 11.4826,23.5238 -2.1835,2.1835 -1.5182,3.0618 -15.2161,-20.0899 l -11.508,-19.4506 -11.3178,16.5934 c -6.2249,9.1264 -18.0091,22.0577 -26.1872,28.7363 -8.1782,6.6786 -13.3569,12.1429 -11.5083,12.1429 2.6416,0 61.4594,-9.6439 74.905,-12.2816 1.6136,-0.3166 9.7245,12.2816 18.0241,27.9958 47.3696,89.6883 61.9883,208.954803 38.1723,311.428603 -12.3941,53.32877 -38.1913,110.923867 -68.8565,153.729967 -9.2248,12.8771 -16.7832,25.77 -16.7964,28.651 -0.014,2.9183 -1.6058,4.7074 -3.5955,4.0398 -1.9643,-0.6592 -3.5896,-3.1988 -3.6117,-5.6436 -0.023,-2.4449 -34.7364,-113.701397 -77.1429,-247.236667 l -77.1026,-242.791403 -16.9918,-7.5255 c -9.3456,-4.139 -17.8286,-6.5576 -18.8512,-5.3746 -1.0226,1.1831 -40.2619,117.8653 -87.1984,259.293903 l -85.3392,257.142867 -1.9253,135.7142 c -1.0589,74.6429 -2.0661,183.1654 -2.2382,241.1611 l -0.313,105.4468 62.0097,-1.9804 c 34.1054,-1.0891 62.1257,-2.2545 62.2674,-2.5896 0.1418,-0.3351 -0.629,-44.9664 -1.7126,-99.1807 -3.9656,-198.3849 -3.9464,-201.7512 1.196,-209.5995 9.2445,-14.1088 26.5704,-28.5036 44.8109,-37.2301 17.1366,-8.1983 20.8893,-8.8847 48.5715,-8.8847 26.5143,0 31.8839,0.8832 46.2147,7.6012 17.753,8.3223 39.1293,26.5022 47.9575,40.7867 5.1644,8.3561 5.762,15.9579 7.1037,90.3678 0.8058,44.6844 2.2746,111.4586 3.2641,148.3871 l 1.7991,67.1429 94.6876,-0.7868 94.6875,-0.7868 -0.8457,-430.6418 -0.8458,-430.64177 -7.0114,-54.0338 c -3.8562,-29.7185 -7.0113,-55.6845 -7.0113,-57.7022 0,-2.0176 -24.1072,-24.5202 -53.5715,-50.0059 -29.4643,-25.4856 -53.5714,-47.6883 -53.5714,-49.3392 0,-4.1969 27.8197,-12.3252 50,-14.6089 29.0852,-2.9947 28.1748,-2.3017 29.3171,-22.3176 l 1.0104,-17.7066 0.5506,17.4487 0.5505,17.4487 28.7764,1.9819 c 125.5821,8.6493 229.5325,92.0047 262.35428,210.3758 8.846,31.9026 12.7797,76.3087 9.4325,106.478203 -1.5355,13.839 -3.5259,25.896 -4.4232,26.7933 -1.5128,1.5128 -24.68378,-18.135 -202.67588,-171.859803 -46.7886,-40.4096 -64.7004,-54.3627 -63.6612,-49.5916 0.7954,3.6515 3.9877,27.2105 7.0942,52.3533 5.6792,45.9657 6.8201,157.837903 9.014,883.86567 0.092,30.4118 -0.5577,56.019 -1.4434,56.9048 -0.8858,0.8857 -1.6106,-3.7467 -1.6106,-10.2943 z m -356.3424,-308.2782 c -6.6311,-0.5992 -18.2025,-0.6064 -25.7142,-0.017 -7.5117,0.5904 -2.0862,1.0807 12.0566,1.0894 14.1429,0.01 20.2888,-0.4744 13.6576,-1.0736 l 0,0 z m -81.5105,-684.78307 59.9376,-54.0136 -6.7391,-9.9307 c -3.7065,-5.4618 -9.474,-17.4312 -12.8166,-26.5986 l -6.0774,-16.6679 -11.7972,1.358 c -13.8491,1.5942 -86.3125,7.0094 -93.7969,7.0094 -4.8349,0 -5.1432,4.9794 -5.1432,83.0642 l 0,83.0642 8.2476,-6.6356 c 4.5362,-3.6496 35.2196,-30.9418 68.1852,-60.6494 z m 32.1386,-137.4149 0,-15.7143 -53.5714,0.2255 c -29.4643,0.124 -52.2857,0.762 -50.7143,1.4176 6.6477,2.7737 97.4545,29.4895 100.7143,29.6307 2.443,0.1057 3.5714,-4.8104 3.5714,-15.5596 l 0,1e-4 z"
       id="path4635"
       inkscape:connector-curvature="0" />
    <path
       style="display:inline;opacity:0.98999999;fill:#a793ac;fill-opacity:0"
       d="m -1246.967,699.55688 0,-11.9047 -25,0.158 c -13.75,0.087 -100.2143,1.3337 -192.1428,2.7706 -91.9286,1.4369 -196.5461,2.6107 -232.4834,2.6083 -56.9026,0 -65.1282,0.5491 -63.6962,4.2807 0.9043,2.3567 0.2751,5.1311 -1.3984,6.1654 -2.1462,1.3264 -2.8144,-80.0927 -2.2679,-276.3371 0.771,-276.8746 0.7381,-278.7251 -6.8325,-383.381467 -7.1209,-98.4394 -8.8864,-136.9756 -5.4573,-119.1216 0.7545,3.9286 5.4027,66.7493003 10.3293,139.60147 l 8.9574,132.458697 83.9329,-252.790667 c 46.163,-139.034803 83.4469,-253.931603 82.853,-255.326103 -0.5939,-1.3945 -8.3737,-9.3738 -17.2885,-17.7316 l -16.2087,-15.1962 -9.7992,15.2065 c -5.3895,8.3636 -43.2993,66.2171 -84.244,128.5633 -40.9447,62.3462 -73.8331,113.968603 -73.0853,114.716303 1.7903,1.7903 -9.0374,3.4259 -80.0241,12.0877 -32.7636,3.9978 -60.754,6.874 -62.2011,6.3917 -1.4471,-0.4824 36.288,-35.839903 83.8558,-78.572403 l 86.4867,-77.6954 -0.7973,-84.3756 -0.7972,-84.3756 -17.7742,1.776 c -9.7758,0.9768 -16.8658,0.7948 -15.7556,-0.4043 1.5833,-1.7102 120.8244,-12.3942 142.9815,-12.8111 2.75,-0.052 5,-1.2299 5,-2.618 0,-5.4045 -13.1519,-4.7293 -104.2857,5.3542 -82.5677,9.1356 -92.1552,10.6882 -77.1429,12.4925 27.7391,3.3338 36.3903,4.9535 34.8239,6.52 -0.8109,0.8109 -16.4862,-0.073 -34.8341,-1.9651 -31.3168,-3.2287 -71.7814,-2.6924 -81.4184,1.0793 -3.1146,1.219 -17.2523,-16.8343 -51.7388,-66.0684 -26.0992,-37.2602 -45.988,-68.1072 -44.1974,-68.549 1.7907,-0.4418 56.5731,14.9868 121.7388,34.2857 l 118.4831,35.089 57.8315,-0.8289 57.8315,-0.8288 1.6924,-7.7426 c 0.9308,-4.2584 3.3711,-13.0171 5.4228,-19.4636 l 3.7304,-11.7211 -16.1114,-5.0118 c -68.6827,-21.3652 -126.962,-78.3582 -150.304,-146.9865 -14.1946,-41.7337 -16.4683,-98.2103 -5.5899,-138.8453 9.9374,-37.1199 35.0004,-80.5318 60.9701,-105.607 11.5988,-11.1993 11.7826,-11.2609 17.0464,-5.7143 2.9267,3.0839 44.2436,58.9642 91.8154,124.1785 47.5717,65.2142 87.1552,119.2142 87.9632,119.9999 0.8081,0.7858 0.5251,-1.1428 -0.6289,-4.2857 -13.3009,-36.225 -15.3389,-88.411 -4.9033,-125.5526 21.002,-74.7486 78.1142,-131.68003 150.7288,-150.25173 22.849,-5.8438 84.3208,-8.0112 91.8406,-3.2382 2.746,1.743 -10.8924,46.52633 -56.4286,185.28973 -33.0274,100.6451 -60.0498,183.7596 -60.0498,184.699 0,0.9393 6.041,-0.8816 13.4246,-4.0465 22.474,-9.6336 68.5637,-22.3521 102.1078,-28.1769 162.8205,-28.2732 330.14708,20.43 448.22588,130.4635 7.5671,7.0515 13.3528,13.2125 12.8572,13.6911 -0.4957,0.4786 -115.4835,1.8157 -255.52848,2.9714 l -254.6272,2.1012 -1.7602,18.9394 c -0.9681,10.4167 -3.7317,25.5779 -6.1412,33.6917 l -4.3809,14.7522 13.2243,21.7823 c 7.2733,11.9802 12.4405,22.5659 11.4826,23.5238 -2.1835,2.1835 -1.5182,3.0618 -15.2161,-20.0899 l -11.508,-19.4506 -11.3178,16.5934 c -6.2249,9.1264 -18.0091,22.0577 -26.1872,28.7363 -8.1782,6.6786 -13.3569,12.1429 -11.5083,12.1429 2.6416,0 61.4594,-9.6439 74.905,-12.2816 1.6136,-0.3166 9.7245,12.2816 18.0241,27.9958 47.3696,89.6883 61.9883,208.954803 38.1723,311.428603 -12.3941,53.32877 -38.1913,110.923867 -68.8565,153.729967 -9.2248,12.8771 -16.7832,25.77 -16.7964,28.651 -0.014,2.9183 -1.6058,4.7074 -3.5955,4.0398 -1.9643,-0.6592 -3.5896,-3.1988 -3.6117,-5.6436 -0.023,-2.4449 -34.7364,-113.701397 -77.1429,-247.236667 l -77.1026,-242.791403 -16.9918,-7.5255 c -9.3456,-4.139 -17.8286,-6.5576 -18.8512,-5.3746 -1.0226,1.1831 -40.2619,117.8653 -87.1984,259.293903 l -85.3392,257.142867 -1.9253,135.7142 c -1.0589,74.6429 -2.0661,183.1654 -2.2382,241.1611 l -0.313,105.4468 62.0097,-1.9804 c 34.1054,-1.0891 62.1257,-2.2545 62.2674,-2.5896 0.1418,-0.3351 -0.629,-44.9664 -1.7126,-99.1807 -3.9656,-198.3849 -3.9464,-201.7512 1.196,-209.5995 9.2445,-14.1088 26.5704,-28.5036 44.8109,-37.2301 17.1366,-8.1983 20.8893,-8.8847 48.5715,-8.8847 26.5143,0 31.8839,0.8832 46.2147,7.6012 17.753,8.3223 39.1293,26.5022 47.9575,40.7867 5.1644,8.3561 5.762,15.9579 7.1037,90.3678 0.8058,44.6844 2.2746,111.4586 3.2641,148.3871 l 1.7991,67.1429 94.6876,-0.7868 94.6875,-0.7868 -0.8457,-430.6418 -0.8458,-430.64177 -7.0114,-54.0338 c -3.8562,-29.7185 -7.0113,-55.6845 -7.0113,-57.7022 0,-2.0176 -24.1072,-24.5202 -53.5715,-50.0059 -29.4643,-25.4856 -53.5714,-47.6883 -53.5714,-49.3392 0,-4.1969 27.8197,-12.3252 50,-14.6089 29.0852,-2.9947 28.1748,-2.3017 29.3171,-22.3176 l 1.0104,-17.7066 0.5506,17.4487 0.5505,17.4487 28.7764,1.9819 c 125.5821,8.6493 229.5325,92.0047 262.35428,210.3758 8.846,31.9026 12.7797,76.3087 9.4325,106.478203 -1.5355,13.839 -3.5259,25.896 -4.4232,26.7933 -1.5128,1.5128 -24.68378,-18.135 -202.67588,-171.859803 -46.7886,-40.4096 -64.7004,-54.3627 -63.6612,-49.5916 0.7954,3.6515 3.9877,27.2105 7.0942,52.3533 5.6792,45.9657 6.8201,157.837903 9.014,883.86567 0.092,30.4118 -0.5577,56.019 -1.4434,56.9048 -0.8858,0.8857 -1.6106,-3.7467 -1.6106,-10.2943 z m -356.3424,-308.2782 c -6.6311,-0.5992 -18.2025,-0.6064 -25.7142,-0.017 -7.5117,0.5904 -2.0862,1.0807 12.0566,1.0894 14.1429,0.01 20.2888,-0.4744 13.6576,-1.0736 l 0,0 z m -81.5105,-684.78307 59.9376,-54.0136 -6.7391,-9.9307 c -3.7065,-5.4618 -9.474,-17.4312 -12.8166,-26.5986 l -6.0774,-16.6679 -11.7972,1.358 c -13.8491,1.5942 -86.3125,7.0094 -93.7969,7.0094 -4.8349,0 -5.1432,4.9794 -5.1432,83.0642 l 0,83.0642 8.2476,-6.6356 c 4.5362,-3.6496 35.2196,-30.9418 68.1852,-60.6494 z m 32.1386,-137.4149 0,-15.7143 -53.5714,0.2255 c -29.4643,0.124 -52.2857,0.762 -50.7143,1.4176 6.6477,2.7737 97.4545,29.4895 100.7143,29.6307 2.443,0.1057 3.5714,-4.8104 3.5714,-15.5596 l 0,1e-4 z"
       id="path4637"
       inkscape:connector-curvature="0" />
    <path
       style="display:inline;opacity:0.98999999;fill:#a793ac;fill-opacity:0;stroke:#a793ac"
       d="m -1246.967,699.55688 0,-11.9047 -25,0.158 c -13.75,0.087 -100.2143,1.3337 -192.1428,2.7706 -91.9286,1.4369 -196.5461,2.6107 -232.4834,2.6083 -56.9026,0 -65.1282,0.5491 -63.6962,4.2807 0.9043,2.3567 0.2751,5.1311 -1.3984,6.1654 -2.1462,1.3264 -2.8144,-80.0927 -2.2679,-276.3371 0.771,-276.8746 0.7381,-278.7251 -6.8325,-383.381467 -7.1209,-98.4394 -8.8864,-136.9756 -5.4573,-119.1216 0.7545,3.9286 5.4027,66.7493003 10.3293,139.60147 l 8.9574,132.458697 83.9329,-252.790667 c 46.163,-139.034803 83.4469,-253.931603 82.853,-255.326103 -0.5939,-1.3945 -8.3737,-9.3738 -17.2885,-17.7316 l -16.2087,-15.1962 -9.7992,15.2065 c -5.3895,8.3636 -43.2993,66.2171 -84.244,128.5633 -40.9447,62.3462 -73.8331,113.968603 -73.0853,114.716303 1.7903,1.7903 -9.0374,3.4259 -80.0241,12.0877 -32.7636,3.9978 -60.754,6.874 -62.2011,6.3917 -1.4471,-0.4824 36.288,-35.839903 83.8558,-78.572403 l 86.4867,-77.6954 -0.7973,-84.3756 -0.7972,-84.3756 -17.7742,1.776 c -9.7758,0.9768 -16.8658,0.7948 -15.7556,-0.4043 1.5833,-1.7102 120.8244,-12.3942 142.9815,-12.8111 2.75,-0.052 5,-1.2299 5,-2.618 0,-5.4045 -13.1519,-4.7293 -104.2857,5.3542 -82.5677,9.1356 -92.1552,10.6882 -77.1429,12.4925 27.7391,3.3338 36.3903,4.9535 34.8239,6.52 -0.8109,0.8109 -16.4862,-0.073 -34.8341,-1.9651 -31.3168,-3.2287 -71.7814,-2.6924 -81.4184,1.0793 -3.1146,1.219 -17.2523,-16.8343 -51.7388,-66.0684 -26.0992,-37.2602 -45.988,-68.1072 -44.1974,-68.549 1.7907,-0.4418 56.5731,14.9868 121.7388,34.2857 l 118.4831,35.089 57.8315,-0.8289 57.8315,-0.8288 1.6924,-7.7426 c 0.9308,-4.2584 3.3711,-13.0171 5.4228,-19.4636 l 3.7304,-11.7211 -16.1114,-5.0118 c -68.6827,-21.3652 -126.962,-78.3582 -150.304,-146.9865 -14.1946,-41.7337 -16.4683,-98.2103 -5.5899,-138.8453 9.9374,-37.1199 35.0004,-80.5318 60.9701,-105.607 11.5988,-11.1993 11.7826,-11.2609 17.0464,-5.7143 2.9267,3.0839 44.2436,58.9642 91.8154,124.1785 47.5717,65.2142 87.1552,119.2142 87.9632,119.9999 0.8081,0.7858 0.5251,-1.1428 -0.6289,-4.2857 -13.3009,-36.225 -15.3389,-88.411 -4.9033,-125.5526 21.002,-74.7486 78.1142,-131.68003 150.7288,-150.25173 22.849,-5.8438 84.3208,-8.0112 91.8406,-3.2382 2.746,1.743 -10.8924,46.52633 -56.4286,185.28973 -33.0274,100.6451 -60.0498,183.7596 -60.0498,184.699 0,0.9393 6.041,-0.8816 13.4246,-4.0465 22.474,-9.6336 68.5637,-22.3521 102.1078,-28.1769 162.8205,-28.2732 330.14708,20.43 448.22588,130.4635 7.5671,7.0515 13.3528,13.2125 12.8572,13.6911 -0.4957,0.4786 -115.4835,1.8157 -255.52848,2.9714 l -254.6272,2.1012 -1.7602,18.9394 c -0.9681,10.4167 -3.7317,25.5779 -6.1412,33.6917 l -4.3809,14.7522 13.2243,21.7823 c 7.2733,11.9802 12.4405,22.5659 11.4826,23.5238 -2.1835,2.1835 -1.5182,3.0618 -15.2161,-20.0899 l -11.508,-19.4506 -11.3178,16.5934 c -6.2249,9.1264 -18.0091,22.0577 -26.1872,28.7363 -8.1782,6.6786 -13.3569,12.1429 -11.5083,12.1429 2.6416,0 61.4594,-9.6439 74.905,-12.2816 1.6136,-0.3166 9.7245,12.2816 18.0241,27.9958 47.3696,89.6883 61.9883,208.954803 38.1723,311.428603 -12.3941,53.32877 -38.1913,110.923867 -68.8565,153.729967 -9.2248,12.8771 -16.7832,25.77 -16.7964,28.651 -0.014,2.9183 -1.6058,4.7074 -3.5955,4.0398 -1.9643,-0.6592 -3.5896,-3.1988 -3.6117,-5.6436 -0.023,-2.4449 -34.7364,-113.701397 -77.1429,-247.236667 l -77.1026,-242.791403 -16.9918,-7.5255 c -9.3456,-4.139 -17.8286,-6.5576 -18.8512,-5.3746 -1.0226,1.1831 -40.2619,117.8653 -87.1984,259.293903 l -85.3392,257.142867 -1.9253,135.7142 c -1.0589,74.6429 -2.0661,183.1654 -2.2382,241.1611 l -0.313,105.4468 62.0097,-1.9804 c 34.1054,-1.0891 62.1257,-2.2545 62.2674,-2.5896 0.1418,-0.3351 -0.629,-44.9664 -1.7126,-99.1807 -3.9656,-198.3849 -3.9464,-201.7512 1.196,-209.5995 9.2445,-14.1088 26.5704,-28.5036 44.8109,-37.2301 17.1366,-8.1983 20.8893,-8.8847 48.5715,-8.8847 26.5143,0 31.8839,0.8832 46.2147,7.6012 17.753,8.3223 39.1293,26.5022 47.9575,40.7867 5.1644,8.3561 5.762,15.9579 7.1037,90.3678 0.8058,44.6844 2.2746,111.4586 3.2641,148.3871 l 1.7991,67.1429 94.6876,-0.7868 94.6875,-0.7868 -0.8457,-430.6418 -0.8458,-430.64177 -7.0114,-54.0338 c -3.8562,-29.7185 -7.0113,-55.6845 -7.0113,-57.7022 0,-2.0176 -24.1072,-24.5202 -53.5715,-50.0059 -29.4643,-25.4856 -53.5714,-47.6883 -53.5714,-49.3392 0,-4.1969 27.8197,-12.3252 50,-14.6089 29.0852,-2.9947 28.1748,-2.3017 29.3171,-22.3176 l 1.0104,-17.7066 0.5506,17.4487 0.5505,17.4487 28.7764,1.9819 c 125.5821,8.6493 229.5325,92.0047 262.35428,210.3758 8.846,31.9026 12.7797,76.3087 9.4325,106.478203 -1.5355,13.839 -3.5259,25.896 -4.4232,26.7933 -1.5128,1.5128 -24.68378,-18.135 -202.67588,-171.859803 -46.7886,-40.4096 -64.7004,-54.3627 -63.6612,-49.5916 0.7954,3.6515 3.9877,27.2105 7.0942,52.3533 5.6792,45.9657 6.8201,157.837903 9.014,883.86567 0.092,30.4118 -0.5577,56.019 -1.4434,56.9048 -0.8858,0.8857 -1.6106,-3.7467 -1.6106,-10.2943 z m -356.3424,-308.2782 c -6.6311,-0.5992 -18.2025,-0.6064 -25.7142,-0.017 -7.5117,0.5904 -2.0862,1.0807 12.0566,1.0894 14.1429,0.01 20.2888,-0.4744 13.6576,-1.0736 l 0,0 z m -81.5105,-684.78307 59.9376,-54.0136 -6.7391,-9.9307 c -3.7065,-5.4618 -9.474,-17.4312 -12.8166,-26.5986 l -6.0774,-16.6679 -11.7972,1.358 c -13.8491,1.5942 -86.3125,7.0094 -93.7969,7.0094 -4.8349,0 -5.1432,4.9794 -5.1432,83.0642 l 0,83.0642 8.2476,-6.6356 c 4.5362,-3.6496 35.2196,-30.9418 68.1852,-60.6494 z m 32.1386,-137.4149 0,-15.7143 -53.5714,0.2255 c -29.4643,0.124 -52.2857,0.762 -50.7143,1.4176 6.6477,2.7737 97.4545,29.4895 100.7143,29.6307 2.443,0.1057 3.5714,-4.8104 3.5714,-15.5596 l 0,1e-4 z"
       id="path4639"
       inkscape:connector-curvature="0" />
    <path
       style="display:inline;opacity:0.98999999;fill:#a793ac;fill-opacity:0;stroke:#a793ac;stroke-width:2.85714293"
       d="m -1557.9444,527.65218 c 0,-3.9286 0.6485,-5.5357 1.4411,-3.5715 0.7926,1.9643 0.7926,5.1786 0,7.1429 -0.7926,1.9643 -1.4411,0.3571 -1.4411,-3.5714 z"
       id="path4641"
       inkscape:connector-curvature="0" />
    <path
       style="display:inline;opacity:0.98999999;fill:#00ffff;fill-opacity:0.00030272;stroke:#a793ac"
       d="m -1247.7708,708.75308 c -1.1293,-1.1293 -2.0533,-5.8351 -2.0533,-10.4574 l 0,-8.404 -190.7143,2.021 c -104.8929,1.1115 -200.3572,2.3559 -212.1429,2.7653 -11.7857,0.4094 -40.3928,0.9246 -63.5714,1.1449 -35.3775,0.3364 -42.1429,1.0887 -42.1429,4.6864 0,2.3572 -1.0863,4.2857 -2.4142,4.2857 -4.6508,0 -6.1575,-80.1253 -6.2007,-329.7374 -0.038,-221.6053 -0.7161,-261.0831 -5.6708,-330.262567 -5.9671,-83.3163 -7.1215,-132.5605 -2.813,-120 1.3476,3.9286 5.7621,56.6429 9.81,117.1429 4.0479,60.499967 8.1559,117.071367 9.1289,125.714267 l 1.769,15.7143 15.429,-45.7143 c 8.486,-25.1429 45.1365,-136.1663667 81.4456,-246.71877 l 66.0166,-201.0045 -15.5358,-15.5358 -15.5357,-15.5357 -60.2963,92.2545 c -33.1629,50.74 -70.139,107.6831 -82.169,126.5403 -12.0301,18.8571 -23.404,35.784703 -25.2754,37.616803 -3.5199,3.4462 -111.6763,18.0974 -133.5959,18.0974 l -12.3948,0 11.2941,-11.6556 c 6.2118,-6.4106 45.0442,-42.076603 86.2942,-79.257803 l 75,-67.6022 -0.01,-32.885 c -0.01,-18.0868 -0.8533,-55.148 -1.8854,-82.3584 l -1.8766,-49.4733 -13.1147,0.4415 c -17.8936,0.6024 -19.4918,0.2783 -14.5432,-2.9479 2.9258,-1.9074 -0.2473,-2.2191 -10,-0.9823 -18.3667,2.3293 -19.1277,3.2506 -4.6038,5.573 27.4136,4.3836 10.7878,6.2276 -47.2951,5.2454 l -61.8835,-1.0464 -18.6594,-24.8623 c -10.2626,-13.6742 -31.2667,-43.6107 -46.6757,-66.5255 -23.7166,-35.269 -27.1703,-41.7993 -22.5034,-42.5504 5.6971,-0.9168 45.1537,9.9675 169.2084,46.677 79.188,23.4328 78.5836,23.3543 150.1748,19.5048 l 34.3735,-1.8482 3.413,-15.2509 c 1.8772,-8.3881 3.3952,-16.0994 3.3733,-17.1364 -0.023,-1.037 -10.8769,-5.962 -24.1224,-10.9444 -69.1578,-26.0144 -123.899,-85.9396 -143.6531,-157.2575 -7.2081,-26.0232 -8.7468,-92.6723 -2.7606,-119.5789 5.0727,-22.801 21.5554,-59.5423 36.4743,-81.304 13.5518,-19.7678 33.7802,-40.5457 39.4733,-40.5457 5.7321,0 5.1845,-0.7058 105.273,135.7143 41.5053,56.5714 74.6663,100.2857 73.6913,97.1429 -8.3043,-26.7686 -9.9013,-74.3125 -3.5091,-104.4662 14.9003,-70.288 69.1983,-132.7134 135.4863,-155.76613 32.1934,-11.1958 103.6796,-16.2418 112.0145,-7.9068 3.3045,3.3045 -14.6133,62.57473 -71.1274,235.28193 -23.3966,71.5 -42.256,130.3484 -41.9097,130.7743 0.3462,0.4258 13.9954,-3.6878 30.3314,-9.1413 53.8978,-17.993 94.2065,-24.806 156.8448,-26.5101 43.5226,-1.1841 62.9043,-0.4669 88.5714,3.2773 95.1753,13.8838 173.49128,46.0728 246.80848,101.4417 28.2425,21.3287 52.5146,44.6447 49.5556,47.6036 -1.0181,1.0181 -97.7563,2.8277 -214.97388,4.0215 -117.2175,1.1937 -213.8291,2.8768 -214.6926,3.7402 -0.8634,0.8634 -0.6868,7.99 0.3924,15.8368 l 1.9622,14.267 19.0454,1.7531 c 107.6823,9.9121 186.9409,56.1996 238.6826,139.3918 29.72448,47.7922 40.36268,88.7885 40.36268,155.5454 0,50.764603 -1.6233,56.654103 -13.42468,48.704903 -3.6164,-2.4359 -59.0882,-49.553503 -123.2706,-104.705803 -64.1824,-55.1522 -120.4889,-102.9782 -125.1257,-106.2798 l -8.4305,-6.003 1.3897,6.7126 c 7.7249,37.3137 10.3757,90.9511 11.6982,236.712703 2.8494,314.024567 3.971,738.849367 1.9637,743.719967 -1.1671,2.8317 -3.046,4.2246 -4.1753,3.0952 z m -413.8946,-22.8572 23.873,-1.6641 -1.7068,-54.7184 c -0.9387,-30.0951 -2.5037,-96.6116 -3.4778,-147.8145 -1.5311,-80.4805 -1.1768,-94.2454 2.6144,-101.5768 6.8889,-13.3218 29.2325,-32.159 49.2634,-41.5326 17.5214,-8.1992 19.7307,-8.5322 50.5132,-7.6129 37.3208,1.1145 49.6698,5.6858 73.6825,27.2752 25.7112,23.1167 24.4367,15.7039 26.9165,156.5432 0.913,51.8572 2.4426,111.3215 3.3989,132.1429 l 1.7389,37.8571 43.2268,-0.01 c 23.7748,-0.01 65.589,-0.8569 92.9206,-1.8937 l 49.6937,-1.8849 -2.1135,-433.4159 c -2.0676,-423.98587 -2.2515,-434.51077 -8.4515,-483.78767 -7.418,-58.9581 -0.4232,-47.7699 -66.6796,-106.6543 -25.5357,-22.6945 -46.4286,-43.0656 -46.4286,-45.2691 0,-4.9599 22.5043,-11.946 51.4286,-15.9652 11.7857,-1.6378 22.427,-3.9438 23.6474,-5.1246 1.2203,-1.1808 3.0065,-8.7984 3.9694,-16.9281 l 1.7506,-14.7812 -37.3658,0 -37.3657,0 -1.7188,13.5714 c -0.9453,7.4643 -3.6725,22.217 -6.0605,32.7838 l -4.3418,19.2124 11.5997,19.5253 c 6.3799,10.7388 11.5998,22.2674 11.5998,25.619 0,3.3515 1.3239,6.912 2.942,7.912 4.3513,2.6892 29.5164,54.0256 37.8455,77.2042 11.4377,31.8289 21.6683,82.4631 24.6592,122.045 7.9413,105.096003 -17.0957,199.891673 -76.8152,290.83927 -9.4616,14.4093 -17.2029,27.9866 -17.2029,30.1717 0,2.1852 -2.2815,3.9731 -5.0699,3.9731 -4.0875,0 -8.2701,-10.38 -21.5863,-53.5715 -32.1418,-104.252067 -136.8557,-433.63997 -139.3594,-438.36877 -1.397,-2.6385 -9.2936,-7.331 -17.548,-10.4278 l -15.0079,-5.6304 -86.4719,258.999203 -86.4719,258.999267 -1.8494,238.7166 -1.8494,238.7167 36.8927,-0.9056 c 20.291,-0.4981 47.6356,-1.6545 60.7658,-2.5697 z m -21.5855,-983.88677 55.7572,-49.9288 -5.3031,-7.4475 c -2.9167,-4.0961 -8.033,-14.4139 -11.3695,-22.9284 -3.3366,-8.5144 -7.0283,-16.4702 -8.2038,-17.6796 -1.9286,-1.9841 -73.9326,2.0173 -96.7397,5.376 l -9.2858,1.3674 0,78.65 0,78.65 9.6938,-8.0652 c 5.3315,-4.4358 34.7844,-30.5331 65.4509,-57.9939 z m 293.4268,-23.0975 c 11.7857,-1.8365 22.9822,-4.1781 24.8811,-5.2035 2.4356,-1.3152 0.3584,-7.1106 -7.0518,-19.6745 -5.7774,-9.7955 -11.2324,-17.81 -12.1222,-17.81 -0.8899,0 -3.961,3.9664 -6.8247,8.8143 -2.8637,4.8479 -12.3077,15.9153 -20.9865,24.5941 -14.8067,14.8067 -15.2724,15.6823 -7.5522,14.1992 4.5253,-0.8693 17.8706,-3.0831 29.6563,-4.9196 z m -449.3453,-70.1285 c -0.9494,-0.9494 -3.4137,-1.0509 -5.4762,-0.2254 -2.2792,0.912 -1.6022,1.5891 1.7262,1.7261 3.0119,0.124 4.6994,-0.5512 3.75,-1.5006 l 0,-10e-5 z m 71.4286,-5.7143 c -0.9494,-0.9494 -3.4137,-1.0509 -5.4762,-0.2254 -2.2792,0.912 -1.6022,1.5891 1.7262,1.7262 3.0119,0.124 4.6994,-0.5513 3.75,-1.5007 l 0,-1e-4 z m 30.1139,-3.005 c -1.9344,-0.7827 -5.7915,-0.8303 -8.5714,-0.106 -2.7799,0.7244 -1.1973,1.3647 3.517,1.4229 4.7143,0.058 6.9888,-0.5344 5.0544,-1.3171 l 0,2e-4 z m 32.8361,-2.9462 c -2.7317,-0.7151 -7.8746,-0.741 -11.4286,-0.058 -3.554,0.6834 -1.319,1.2686 4.9667,1.3003 6.2857,0.032 9.1936,-0.5275 6.4619,-1.2426 l 0,1e-4 z m 35.681,-2.9609 c -5.1072,-0.6337 -13.4643,-0.6337 -18.5715,0 -5.1071,0.6338 -0.9285,1.1524 9.2857,1.1524 10.2143,0 14.3929,-0.5186 9.2858,-1.1524 z m 13.5714,-25.076 0,-12.8571 -43.5714,0.2254 c -23.9643,0.124 -41.6429,1.0008 -39.2858,1.9484 7.409,2.9784 75.5399,22.9659 79.2858,23.26 2.3695,0.186 3.5714,-4.0463 3.5714,-12.5768 l 0,1e-4 z"
       id="path4643"
       inkscape:connector-curvature="0" />
    <path
       style="display:inline;opacity:0.98999999;fill:#a793ac;fill-opacity:0;stroke:#a793ac;stroke-width:2.85714293"
       d="m -1250.7765,708.60448 c -1.0476,-1.0476 -1.9048,-4.9047 -1.9048,-8.5714 l 0,-6.6666 -62.1428,0.04 c -34.1786,0.023 -146.2801,1.3295 -249.1145,2.9057 -158.4062,2.4281 -187.6869,3.5133 -191.6535,7.1031 -6.2444,5.651 -7.4833,5.3775 -9.9256,-2.1915 -1.1408,-3.5356 -3.0733,-143.357 -4.2944,-310.7142 -1.7175,-235.3963 -3.294,-319.753597 -6.9636,-372.607467 -4.89,-70.434 -4.9999,-97.3925 -0.3968,-97.3925 4.9093,0 6.535,14.2308 14.5447,127.3128 4.3899,61.977967 8.4238,113.222867 8.9641,113.877667 0.5403,0.6547 1.5922,0.5807 2.3374,-0.1646 0.7452,-0.7452 36.0784,-106.709467 78.5182,-235.476167 l 77.1633,-234.121103 -13.7935,-13.8127 -13.7934,-13.8126 -14.3217,22.3841 c -54.3441,84.9366 -145.1091,223.299203 -149.3929,227.735303 -3.9572,4.0978 -16.109,6.9423 -51.8799,12.144 -25.6917,3.736 -59.402,7.6384 -74.9117,8.6721 -27.9325,1.8615 -28.1694,1.823 -25.0194,-4.063 1.7491,-3.2682 7.4723,-9.5787 12.7181,-14.0233 5.2459,-4.4446 43.1831,-38.742303 84.3051,-76.217103 l 74.7671,-68.1361 0,-32.1219 c 0,-17.6671 -0.8448,-53.5416 -1.8772,-79.7211 l -1.8773,-47.5992 -12.4085,0 c -6.8246,0 -12.4084,1.2857 -12.4084,2.8572 0,1.8182 -22.8591,2.8571 -62.8629,2.8571 l -62.863,0 -19.5066,-26.4286 c -26.7512,-36.2438 -61.5792,-87.2727 -67.5005,-98.8997 -6.8524,-13.4552 -3.0201,-16.2612 16.0734,-11.7691 8.3771,1.9709 58.9453,16.3294 112.3739,31.9078 53.4285,15.5783 106.7857,29.7405 118.5714,31.4716 13.811,2.0285 36.3495,2.3844 63.4016,1.0013 l 41.973,-2.1461 2.8505,-13.2829 c 1.5678,-7.3055 1.9657,-14.165 0.8842,-15.2432 -1.0816,-1.0782 -12.3654,-6.3356 -25.0753,-11.6831 -56.2815,-23.6797 -99.5491,-64.9305 -125.3081,-119.4673 -16.8635,-35.7031 -19.9204,-52.1349 -19.8851,-106.8893 0.036,-55.1891 2.2724,-64.727 25.9467,-110.6342 14.1053,-27.3519 46.2699,-65.08 55.483,-65.08 6.4236,0 11.1621,5.9542 96.3134,121.0247 35.0497,47.365 65.9068,89.0327 68.5714,92.5949 4.6272,6.186 4.8487,4.5185 4.933,-37.1429 0.084,-41.3242 0.5516,-44.9267 8.8902,-68.4593 25.1219,-70.8976 86.2066,-127.19693 152.5586,-140.60703 28.024,-5.6638 73.2854,-8.438 84.1772,-5.1594 7.7553,2.3344 8.5236,3.6422 8.069,13.736 -0.607,13.4797 -16.5476,66.13203 -69.118,228.29873 -21.905,67.5714 -39.4252,123.2763 -38.9339,123.7885 0.4913,0.5123 13.5456,-3.1275 29.0095,-8.0885 40.3722,-12.9518 73.7443,-19.3232 120.9791,-23.0973 124.877,-9.9777 240.0778,17.773 336.63738,81.0925 30.8403,20.2237 66.9212,49.3858 77.3557,62.5223 8.7602,11.0285 5.2449,13.6728 -18.2845,13.7544 -62.4891,0.2166 -405.71718,6.2214 -406.60938,7.1136 -0.6055,0.6055 -0.2423,6.1827 0.8071,12.3938 l 1.908,11.293 27.6614,3.4708 c 111.5348,13.995 191.8592,66.6159 239.9388,157.1854 22.75558,42.8656 29.09778,73.737 29.12968,141.7931 0.026,53.897003 -1.7094,58.272403 -18.39538,46.400103 -5.339,-3.7988 -59.6294,-49.522403 -120.6452,-101.608203 -61.0159,-52.0859 -114.6233,-97.5864 -119.1276,-101.1124 l -8.1898,-6.4108 1.9037,14.0404 c 6.3506,46.8397 7.7784,128.447 9.2557,529.04037 1.4176,384.421 1.0945,440.7143 -2.5297,440.7143 -2.2852,0 -5.0121,-0.8571 -6.0597,-1.9048 z m -416.5011,-25.5956 26.8323,-1.6648 -1.8059,-56.1317 c -4.8118,-149.5643 -5.5112,-230.7786 -2.077,-241.1844 4.9301,-14.9384 26.6556,-35.0089 50.8266,-46.9549 l 20.7838,-10.2719 32.6179,1.6064 c 37.8953,1.8664 49.1626,5.865 73.5934,26.1179 26.2429,21.755 25.3643,16.6008 29.754,174.5552 2.0962,75.4286 3.8697,140.6786 3.9412,145 l 0.13,7.8572 45,-0.01 c 24.75,-0.01 65.25,-0.8494 90,-1.8759 l 45,-1.8664 -0.1931,-191.6955 c -0.1061,-105.4335 -1.2772,-303.5536 -2.6024,-440.267867 -2.5351,-261.531803 -4.7696,-305.920603 -16.6067,-329.888003 -5.0005,-10.1249 -99.6671,-99.1379 -102.4621,-96.343 -0.8503,0.8504 3.0032,10.3145 8.5634,21.0314 47.413,91.3854 58.1289,117.8299 69.6625,171.9118 7.0154,32.8956 7.7178,41.7955 7.8134,99.002003 0.083,49.7746 -0.9749,68.1706 -5.0833,88.38600027 -6.842,33.66499973 -22.4836,79.91456973 -36.7078,108.53806673 -17.3116,34.8363 -54.4315,95.9331 -58.285,95.9331 -7.829,0 -4.3643,9.9068 -76.9403,-219.999967 -24.5551,-77.7847 -54.2913,-171.376203 -66.0805,-207.980003 l -21.4349,-66.5524 -12.6161,-6.1293 c -6.9388,-3.3711 -13.3726,-5.3727 -14.2974,-4.4479 -0.9248,0.9248 -40.1302,116.2337 -87.1232,256.242003 l -85.4418,254.560567 -1.973,238.1343 -1.973,238.1342 31.1764,-1.0409 c 17.147,-0.5725 43.2509,-1.7901 58.0086,-2.7057 z m -25.0813,-977.27547 c 32.9049,-29.341 59.3906,-54.091 58.8571,-55 -0.5334,-0.909 -5.3884,-11.1596 -10.789,-22.7792 l -9.819,-21.1266 -44.2858,1.8259 c -24.3571,1.0043 -47.1785,2.6255 -50.7142,3.6027 l -6.4286,1.7767 0,72.5239 c 0,39.8882 0.7543,72.5239 1.6762,72.5239 0.922,0 28.5984,-24.0063 61.5033,-53.3473 z m 301.2957,-29.6404 c 26.2704,-4.6298 25.6186,-3.8862 16.7998,-19.167 -4.304,-7.4578 -8.3098,-14.1248 -8.9017,-14.8158 -0.5919,-0.6908 -3.2606,1.8806 -5.9305,5.7143 -2.6698,3.8338 -9.8755,12.4348 -16.0124,19.1134 -12.2365,13.3163 -11.6684,13.6866 14.0448,9.1551 z m 67.9553,-82.8421 c 12.1103,-1.9536 22.5779,-4.4566 23.2612,-5.5622 0.6833,-1.1056 2.0965,-7.3518 3.1405,-13.8805 l 1.8981,-11.8703 -34.3576,0 -34.3575,0 -3.1505,18.0911 c -4.4612,25.6184 -4.8635,24.7223 9.1983,20.4904 6.7917,-2.0441 22.2571,-5.3148 34.3675,-7.2685 z m -336.139,-33.1167 c -0.6899,-0.69 -15.2449,-0.8878 -32.3444,-0.4397 l -31.09,0.8148 31.4286,8.9221 31.4286,8.9221 0.9158,-8.4825 c 0.5037,-4.6654 0.3513,-9.047 -0.3386,-9.7368 z"
       id="path4645"
       inkscape:connector-curvature="0" />
  </g>
</svg>
