<?xml version="1.0" encoding="UTF-8" standalone="no"?>
<!-- Created with Inkscape (http://www.inkscape.org/) -->

<svg
   xmlns:dc="http://purl.org/dc/elements/1.1/"
   xmlns:cc="http://creativecommons.org/ns#"
   xmlns:rdf="http://www.w3.org/1999/02/22-rdf-syntax-ns#"
   xmlns:svg="http://www.w3.org/2000/svg"
   xmlns="http://www.w3.org/2000/svg"
   xmlns:sodipodi="http://sodipodi.sourceforge.net/DTD/sodipodi-0.dtd"
   xmlns:inkscape="http://www.inkscape.org/namespaces/inkscape"
   width="171.75238mm"
   height="167.72063mm"
   viewBox="0 0 608.57143 594.28568"
   id="svg15568"
   version="1.1"
   inkscape:version="0.91 r13725"
   sodipodi:docname="odisea.svg">
  <defs
     id="defs15570">
    <inkscape:path-effect
       effect="spiro"
       id="path-effect4507"
       is_visible="true" />
    <inkscape:path-effect
       effect="spiro"
       id="path-effect4501"
       is_visible="true" />
  </defs>
  <sodipodi:namedview
     id="base"
     pagecolor="#ffffff"
     bordercolor="#666666"
     borderopacity="1.0"
     inkscape:pageopacity="0.0"
     inkscape:pageshadow="2"
     inkscape:zoom="0.49497475"
     inkscape:cx="807.85715"
     inkscape:cy="-102.04494"
     inkscape:document-units="px"
     inkscape:current-layer="layer1"
     showgrid="false"
     fit-margin-top="0"
     fit-margin-left="0"
     fit-margin-right="0"
     fit-margin-bottom="0"
     inkscape:window-width="1920"
     inkscape:window-height="1016"
     inkscape:window-x="0"
     inkscape:window-y="27"
     inkscape:window-maximized="1" />
  <metadata
     id="metadata15573">
    <rdf:RDF>
      <cc:Work
         rdf:about="">
        <dc:format>image/svg+xml</dc:format>
        <dc:type
           rdf:resource="http://purl.org/dc/dcmitype/StillImage" />
        <dc:title></dc:title>
      </cc:Work>
    </rdf:RDF>
  </metadata>
  <g
     inkscape:label="Layer 1"
     inkscape:groupmode="layer"
     id="layer1"
     transform="translate(935.71429,244.78065)">
    <ellipse
       style="display:inline;opacity:0.7;fill:#ffff00;fill-opacity:0.96159273"
       id="path4303"
       cx="-928.57141"
       cy="-177.6378"
       rx="7.1428571"
       ry="1.4285715" />
    <path
       style="display:inline;opacity:0.7;fill:none;fill-rule:evenodd;stroke:#000000;stroke-width:1px;stroke-linecap:butt;stroke-linejoin:miter;stroke-opacity:1"
       d="m -769.99991,-41.923508 5.7142,17.14285"
       id="path4337"
       inkscape:connector-curvature="0" />
    <ellipse
       style="display:inline;opacity:0.7;fill:#0000ff;fill-opacity:1"
       id="path4489"
       cx="-631.42859"
       cy="52.362206"
       rx="304.28571"
       ry="297.14285" />
    <ellipse
       style="display:inline;opacity:0.7;fill:#ffff00;fill-opacity:1"
       id="path4493"
       cx="-631.42859"
       cy="56.647911"
       rx="267.14285"
       ry="258.57144" />
    <path
       style="display:inline;opacity:0.7;fill:#0000ff;fill-opacity:1"
       d="m -685.36887,256.9311 c -42.1378,-11.22907 -73.41497,-29.92515 -104.95427,-62.7368 -22.02584,-22.91447 -35.77328,-45.89563 -46.76449,-78.17494 -6.20942,-18.236089 -7.19056,-27.013089 -7.09649,-63.485279 0.10045,-38.84928 0.81481,-44.1393596 8.7046,-64.44413 26.37452,-67.87531 74.12998,-112.738581 141.74941,-133.164731 117.60025,-35.5241 244.17598,39.98582 268.95611,160.448331 6.07639,29.53861 6.04874,48.08864 -0.11503,77.32281 -17.23584,81.745469 -76.80703,143.779569 -157.48211,163.992859 -30.31904,7.59653 -75.00516,7.70146 -102.99762,0.24185 l -1.1e-4,3e-5 z"
       id="path4503"
       inkscape:connector-curvature="0" />
    <path
       style="opacity:0.76000001;fill:#0000ff;fill-opacity:0.47597285;stroke:#cbc906;stroke-opacity:1"
       id="path16167"
       sodipodi:type="arc"
       sodipodi:cx="-1544.2856"
       sodipodi:cy="-80.494942"
       sodipodi:rx="91.428574"
       sodipodi:ry="55.714287"
       sodipodi:start="0.017453293"
       sodipodi:end="0.034906585"
       sodipodi:open="true"
       d="m -1452.871,-79.522593 a 91.428574,55.714287 0 0 1 -0.042,0.972052" />
    <path
       style="opacity:0.76000001;fill:#0000ff;fill-opacity:0.47597285;stroke:#cbc906;stroke-opacity:1"
       id="path16169"
       sodipodi:type="arc"
       sodipodi:cx="629.64777"
       sodipodi:cy="109.9866"
       sodipodi:rx="94.285713"
       sodipodi:ry="87.14286"
       sodipodi:start="0.017453293"
       sodipodi:end="3.1402778"
       d="m 723.91912,111.50746 a 94.285713,87.14286 0 0 1 -95.03216,85.61917 94.285713,87.14286 0 0 1 -93.52483,-87.02545 l 94.28564,-0.11458 z"
       transform="matrix(-0.99998683,0.00513313,-0.00513313,-0.99998683,0,0)" />
    <path
       style="opacity:0.76000001;fill:#0000ff;fill-opacity:0.47597285;stroke:#cbc906;stroke-opacity:1"
       id="path16171"
       sodipodi:type="arc"
       sodipodi:cx="-1758.5714"
       sodipodi:cy="-259.06638"
       sodipodi:rx="8.5714283"
       sodipodi:ry="2.8571429"
       sodipodi:start="1.0674783"
       sodipodi:end="3.1402837"
       d="m -1754.4371,-256.56356 a 8.5714283,2.8571429 0 0 1 -8.4902,-0.0421 8.5714283,2.8571429 0 0 1 -4.2155,-2.45696 l 8.5714,-0.004 z" />
    <path
       style="opacity:0.76000001;fill:#0000ff;fill-opacity:0.47597285;stroke:#cbc906;stroke-opacity:1"
       id="path16175"
       sodipodi:type="arc"
       sodipodi:cx="-1580"
       sodipodi:cy="-276.20923"
       sodipodi:rx="70"
       sodipodi:ry="108.57143"
       sodipodi:start="2.3726029"
       sodipodi:end="3.1402837"
       d="m -1630.3029,-200.70761 a 70,108.57143 0 0 1 -19.697,-75.3595"
       sodipodi:open="true" />
    <path
       style="opacity:0.76000001;fill:#0000ff;fill-opacity:0.47597285;stroke:#cbc906;stroke-opacity:1"
       id="path16177"
       sodipodi:type="arc"
       sodipodi:cx="-1598.5714"
       sodipodi:cy="316.64795"
       sodipodi:rx="231.42857"
       sodipodi:ry="264.28571"
       sodipodi:start="2.3726006"
       sodipodi:end="3.1402837"
       sodipodi:open="true"
       d="m -1764.8788,500.43521 a 231.42857,264.28571 0 0 1 -65.121,-183.44132" />
    <path
       style="opacity:0.76000001;fill:#0000ff;fill-opacity:0.47597285;stroke:#cbc906;stroke-width:8.27459049;stroke-opacity:1"
       id="path16188"
       sodipodi:type="arc"
       sodipodi:cx="-72.136009"
       sodipodi:cy="642.37634"
       sodipodi:rx="81.968819"
       sodipodi:ry="81.825668"
       sodipodi:start="4.7221454"
       sodipodi:end="3.1402837"
       d="m -71.3363,560.55457 a 81.968819,81.825668 0 0 1 81.1676004,82.31828 81.968819,81.825668 0 0 1 -82.1623544,81.32893 81.968819,81.825668 0 0 1 -81.773706,-81.71833 l 81.968751,-0.10711 z"
       transform="matrix(0.87866759,0.47743404,-0.88724509,0.46129833,0,0)" />
    <path
       style="opacity:0.76000001;fill:#0000ff;fill-opacity:0.47597285;stroke:#cbc906;stroke-opacity:1"
       id="path16190"
       sodipodi:type="arc"
       sodipodi:cx="307.14288"
       sodipodi:cy="1408.0765"
       sodipodi:rx="31.428572"
       sodipodi:ry="18.571428"
       sodipodi:start="4.7221454"
       sodipodi:end="3.1402837"
       d="m 307.44951,1389.506 a 31.428572,18.571428 0 0 1 31.12137,18.6832 31.428572,18.571428 0 0 1 -31.50278,18.4587 31.428572,18.571428 0 0 1 -31.35376,-18.5471 l 31.42854,-0.024 z" />
    <path
       style="opacity:0.76000001;fill:#0000ff;fill-opacity:0.47597285;stroke:#cbc906;stroke-width:0.63782138;stroke-opacity:1"
       id="path16194"
       sodipodi:type="arc"
       sodipodi:cx="315.34778"
       sodipodi:cy="697.37616"
       sodipodi:rx="153.03822"
       sodipodi:ry="134.4648"
       sodipodi:start="4.7221454"
       sodipodi:end="3.1402837"
       sodipodi:open="true"
       d="M 316.84086,562.91776 A 153.03822,134.4648 0 0 1 468.38318,698.19208 153.03822,134.4648 0 0 1 314.98362,831.84058 153.03822,134.4648 0 0 1 162.30969,697.55217"
       transform="matrix(-0.36543185,0.9308381,-0.9308381,-0.36543185,0,0)" />
    <path
       style="fill:#00ff00;fill-rule:evenodd;stroke:#000000;stroke-width:0.16129827px;stroke-linecap:butt;stroke-linejoin:miter;stroke-opacity:1"
       d="m -670.29504,-18.163924 c 72.93684,43.98134 48.83059,71.12607 74.17306,34.70402 25.34245,-36.42204 32.75976,20.61625 59.95655,-8.5901003 27.19679,-29.2063597 64.28333,29.5499603 74.17307,-2.06162 9.88975,-31.6115897 -124.23987,-42.9505297 -165.03506,-34.0168197"
       id="path16196"
       inkscape:connector-curvature="0" />
    <path
       style="fill:none;fill-rule:evenodd;stroke:#000000;stroke-width:1px;stroke-linecap:butt;stroke-linejoin:miter;stroke-opacity:1"
       d="m -630,55.21934 c 177.14285,0 177.14285,0 177.14285,0"
       id="path16202"
       inkscape:connector-curvature="0" />
    <path
       style="fill:none;fill-rule:evenodd;stroke:#000000;stroke-width:1px;stroke-linecap:butt;stroke-linejoin:miter;stroke-opacity:1"
       d="M -624.28572,86.64791 C -450,83.79077 -450,80.93363 -450,80.93363"
       id="path16204"
       inkscape:connector-curvature="0" />
    <path
       style="fill:none;fill-rule:evenodd;stroke:#000000;stroke-width:1px;stroke-linecap:butt;stroke-linejoin:miter;stroke-opacity:1"
       d="m -627.14286,72.3622 c 174.28571,-2.85714 174.28571,-2.85714 174.28571,-2.85714"
       id="path16206"
       inkscape:connector-curvature="0" />
    <flowRoot
       xml:space="preserve"
       id="flowRoot16208"
       style="fill:#ffffff;stroke:none;stroke-opacity:1;stroke-width:1px;stroke-linejoin:miter;stroke-linecap:butt;fill-opacity:1;font-family:sans-serif;font-style:normal;font-weight:bold;font-size:45px;line-height:125%;letter-spacing:0px;word-spacing:0px;-inkscape-font-specification:'sans-serif Bold';font-stretch:normal;font-variant:normal;"><flowRegion
         id="flowRegion16210"><rect
           id="rect16212"
           width="425.71429"
           height="291.42856"
           x="182.85715"
           y="291.42856"
           style="fill:#ffffff;-inkscape-font-specification:'sans-serif Bold';font-family:sans-serif;font-weight:bold;font-style:normal;font-stretch:normal;font-variant:normal;" /></flowRegion><flowPara
         id="flowPara16214"></flowPara></flowRoot>    <flowRoot
       xml:space="preserve"
       id="flowRoot16216"
       style="fill:#ffffff;stroke:none;stroke-opacity:1;stroke-width:1px;stroke-linejoin:miter;stroke-linecap:butt;fill-opacity:1;font-family:sans-serif;font-style:normal;font-weight:bold;font-size:45px;line-height:125%;letter-spacing:0px;word-spacing:0px;-inkscape-font-specification:'sans-serif Bold';font-stretch:normal;font-variant:normal;"><flowRegion
         id="flowRegion16218"><rect
           id="rect16220"
           width="462.64987"
           height="353.55341"
           x="149.50258"
           y="240.73232"
           style="-inkscape-font-specification:'sans-serif Bold';font-family:sans-serif;font-weight:bold;font-style:normal;font-stretch:normal;font-variant:normal;fill:#ffffff;" /></flowRegion><flowPara
         id="flowPara16222"></flowPara></flowRoot>    <path
       sodipodi:type="spiral"
       style="fill:none;fill-rule:evenodd;stroke:#000000;stroke-width:1px;stroke-linecap:butt;stroke-linejoin:miter;stroke-opacity:1"
       id="path16226"
       sodipodi:cx="-772.06958"
       sodipodi:cy="64.642052"
       sodipodi:expansion="1"
       sodipodi:revolution="3"
       sodipodi:radius="120.22089"
       sodipodi:argument="-17.712341"
       sodipodi:t0="0"
       d="m -772.06958,64.642052 c 2.53237,5.469923 -6.12396,6.112256 -9.09137,4.208971 -8.0415,-5.157784 -5.33234,-16.888598 0.67343,-22.391715 10.74291,-9.843787 27.58036,-5.278145 35.69206,5.555831 11.90424,15.899295 5.27804,38.437291 -10.43824,48.992401 -20.94731,14.0683 -49.35549,5.30432 -62.29274,-15.320633 -16.28021,-25.954404 -5.34494,-60.30354 20.20303,-75.593087 30.94202,-18.517691 71.26853,-5.3939735 88.89343,25.085434 20.77034,35.918928 5.44832,82.244096 -29.96783,102.193776 -40.88935,23.03269 -93.22673,5.5062 -115.49412,-34.85024 -25.30163,-45.855548 -5.56655,-104.2143063 39.73264,-128.794458 50.81885,-27.575216 115.2055,-5.6287 142.0948,44.615038 29.85222,55.780072 5.69218,126.19941 -49.49744,155.39515"
       transform="matrix(0.81434887,0,0,0.85780831,-132.39204,4.5746722)" />
    <flowRoot
       xml:space="preserve"
       id="flowRoot16228"
       style="fill:black;stroke:none;stroke-opacity:1;stroke-width:1px;stroke-linejoin:miter;stroke-linecap:butt;fill-opacity:1;font-family:sans-serif;font-style:normal;font-weight:bold;font-size:45px;line-height:125%;letter-spacing:0px;word-spacing:0px;-inkscape-font-specification:'sans-serif Bold';font-stretch:normal;font-variant:normal;"><flowRegion
         id="flowRegion16230"><rect
           id="rect16232"
           width="321.22852"
           height="96.974648"
           x="290.92392"
           y="374.07245"
           style="-inkscape-font-specification:'sans-serif Bold';font-family:sans-serif;font-weight:bold;font-style:normal;font-stretch:normal;font-variant:normal;" /></flowRegion><flowPara
         id="flowPara16234"></flowPara></flowRoot>    <flowRoot
       xml:space="preserve"
       id="flowRoot16236"
       style="fill:black;stroke:none;stroke-opacity:1;stroke-width:1px;stroke-linejoin:miter;stroke-linecap:butt;fill-opacity:1;font-family:sans-serif;font-style:normal;font-weight:normal;font-size:60px;line-height:125%;letter-spacing:0px;word-spacing:0px;"><flowRegion
         id="flowRegion16238"><rect
           id="rect16240"
           width="719.22864"
           height="171.72594"
           x="-258.59906"
           y="695.30096"
           style="font-size:60px;" /></flowRegion><flowPara
         id="flowPara16242"></flowPara></flowRoot>    <path
       style="display:none;fill:none;fill-rule:evenodd;stroke:#000000;stroke-width:1px;stroke-linecap:butt;stroke-linejoin:miter;stroke-opacity:1"
       d="m -1097.3387,462.64214 -446.4874,-672.76159"
       id="path16244"
       inkscape:connector-type="polyline"
       inkscape:connector-curvature="0" />
    <flowRoot
       xml:space="preserve"
       id="flowRoot16246"
       style="fill:black;stroke:none;stroke-opacity:1;stroke-width:1px;stroke-linejoin:miter;stroke-linecap:butt;fill-opacity:1;font-family:sans-serif;font-style:normal;font-weight:normal;font-size:45px;line-height:125%;letter-spacing:0px;word-spacing:0px"><flowRegion
         id="flowRegion16248"><rect
           id="rect16250"
           width="422.24377"
           height="171.72594"
           x="-159.6041"
           y="660.95575" /></flowRegion><flowPara
         id="flowPara16252"></flowPara></flowRoot>    <flowRoot
       xml:space="preserve"
       id="flowRoot16254"
       style="font-style:normal;font-weight:normal;font-size:45px;line-height:125%;font-family:sans-serif;letter-spacing:0px;word-spacing:0px;fill:#000000;fill-opacity:1;stroke:none;stroke-width:1px;stroke-linecap:butt;stroke-linejoin:miter;stroke-opacity:1"
       transform="matrix(1.8653415,0,0,1,-1354.4472,-519.54214)"><flowRegion
         id="flowRegion16256"><rect
           id="rect16258"
           width="286.88333"
           height="175.76654"
           x="250.51784"
           y="648.83392" /></flowRegion><flowPara
         id="flowPara16260"
         style="font-style:normal;font-variant:normal;font-weight:bold;font-stretch:normal;font-size:45px;font-family:sans-serif;-inkscape-font-specification:'sans-serif Bold';fill:#ffffff">O D I S E A</flowPara></flowRoot>  </g>
</svg>
