<?xml version="1.0" encoding="UTF-8" standalone="no"?>
<!-- Created with Inkscape (http://www.inkscape.org/) -->

<svg
   xmlns:dc="http://purl.org/dc/elements/1.1/"
   xmlns:cc="http://creativecommons.org/ns#"
   xmlns:rdf="http://www.w3.org/1999/02/22-rdf-syntax-ns#"
   xmlns:svg="http://www.w3.org/2000/svg"
   xmlns="http://www.w3.org/2000/svg"
   xmlns:xlink="http://www.w3.org/1999/xlink"
   xmlns:sodipodi="http://sodipodi.sourceforge.net/DTD/sodipodi-0.dtd"
   xmlns:inkscape="http://www.inkscape.org/namespaces/inkscape"
   width="327.11499mm"
   height="462.32431mm"
   viewBox="0 0 1159.0689 1638.157"
   id="svg13642"
   version="1.1"
   inkscape:version="0.91 r13725"
   sodipodi:docname="riverplata.svg">
  <defs
     id="defs13644">
    <linearGradient
       inkscape:collect="always"
       id="linearGradient5860">
      <stop
         style="stop-color:#808080;stop-opacity:1;"
         offset="0"
         id="stop5862" />
      <stop
         style="stop-color:#808080;stop-opacity:0;"
         offset="1"
         id="stop5864" />
    </linearGradient>
    <linearGradient
       inkscape:collect="always"
       id="linearGradient4272">
      <stop
         style="stop-color:#ffffff;stop-opacity:1;"
         offset="0"
         id="stop4274" />
      <stop
         style="stop-color:#ffffff;stop-opacity:0;"
         offset="1"
         id="stop4276" />
    </linearGradient>
    <linearGradient
       id="linearGradient4251"
       inkscape:collect="always">
      <stop
         id="stop4253"
         offset="0"
         style="stop-color:#a793ac;stop-opacity:1;" />
      <stop
         id="stop4255"
         offset="1"
         style="stop-color:#000000;stop-opacity:1" />
    </linearGradient>
    <linearGradient
       id="linearGradient4245"
       inkscape:collect="always">
      <stop
         id="stop4247"
         offset="0"
         style="stop-color:#a793ac;stop-opacity:1;" />
      <stop
         id="stop4249"
         offset="1"
         style="stop-color:#000000;stop-opacity:1" />
    </linearGradient>
    <linearGradient
       id="linearGradient4239"
       inkscape:collect="always">
      <stop
         id="stop4241"
         offset="0"
         style="stop-color:#a793ac;stop-opacity:1;" />
      <stop
         id="stop4243"
         offset="1"
         style="stop-color:#000000;stop-opacity:1" />
    </linearGradient>
    <linearGradient
       id="linearGradient4233"
       inkscape:collect="always">
      <stop
         id="stop4235"
         offset="0"
         style="stop-color:#a793ac;stop-opacity:1;" />
      <stop
         id="stop4237"
         offset="1"
         style="stop-color:#000000;stop-opacity:1" />
    </linearGradient>
    <linearGradient
       id="linearGradient4227"
       inkscape:collect="always">
      <stop
         id="stop4229"
         offset="0"
         style="stop-color:#a793ac;stop-opacity:1;" />
      <stop
         id="stop4231"
         offset="1"
         style="stop-color:#000000;stop-opacity:1" />
    </linearGradient>
    <linearGradient
       inkscape:collect="always"
       id="linearGradient4209">
      <stop
         style="stop-color:#a793ac;stop-opacity:1;"
         offset="0"
         id="stop4211" />
      <stop
         style="stop-color:#000000;stop-opacity:1"
         offset="1"
         id="stop4213" />
    </linearGradient>
    <linearGradient
       inkscape:collect="always"
       id="linearGradient4201">
      <stop
         style="stop-color:#ffffff;stop-opacity:1;"
         offset="0"
         id="stop4203" />
      <stop
         style="stop-color:#ffffff;stop-opacity:0;"
         offset="1"
         id="stop4205" />
    </linearGradient>
    <linearGradient
       inkscape:collect="always"
       id="linearGradient4198">
      <stop
         style="stop-color:#ff8080;stop-opacity:1;"
         offset="0"
         id="stop4200" />
      <stop
         style="stop-color:#ff8080;stop-opacity:0;"
         offset="1"
         id="stop4202" />
    </linearGradient>
    <inkscape:path-effect
       effect="spiro"
       id="path-effect4517-7"
       is_visible="true" />
    <inkscape:path-effect
       effect="spiro"
       id="path-effect4521-8"
       is_visible="true" />
    <inkscape:path-effect
       effect="spiro"
       id="path-effect4525-1"
       is_visible="true" />
    <inkscape:path-effect
       effect="spiro"
       id="path-effect4529-6"
       is_visible="true" />
    <inkscape:path-effect
       effect="spiro"
       id="path-effect4533-2"
       is_visible="true" />
    <inkscape:path-effect
       effect="spiro"
       id="path-effect4537-6"
       is_visible="true" />
    <inkscape:path-effect
       effect="spiro"
       id="path-effect4541-0"
       is_visible="true" />
    <inkscape:path-effect
       effect="spiro"
       id="path-effect4545-6"
       is_visible="true" />
    <inkscape:path-effect
       effect="spiro"
       id="path-effect4549-3"
       is_visible="true" />
    <inkscape:path-effect
       effect="spiro"
       id="path-effect4553-9"
       is_visible="true" />
    <inkscape:path-effect
       effect="spiro"
       id="path-effect4557-0"
       is_visible="true" />
    <inkscape:path-effect
       effect="spiro"
       id="path-effect4569-7"
       is_visible="true" />
    <inkscape:path-effect
       effect="spiro"
       id="path-effect4573-2"
       is_visible="true" />
    <inkscape:path-effect
       effect="spiro"
       id="path-effect4577-1"
       is_visible="true" />
    <inkscape:path-effect
       effect="spiro"
       id="path-effect4581-9"
       is_visible="true" />
    <inkscape:path-effect
       effect="spiro"
       id="path-effect4585-2"
       is_visible="true" />
    <inkscape:path-effect
       effect="spiro"
       id="path-effect4589-6"
       is_visible="true" />
    <inkscape:path-effect
       effect="spiro"
       id="path-effect4593-5"
       is_visible="true" />
    <inkscape:path-effect
       effect="spiro"
       id="path-effect4597-3"
       is_visible="true" />
    <inkscape:path-effect
       effect="spiro"
       id="path-effect4601-5"
       is_visible="true" />
    <inkscape:path-effect
       effect="spiro"
       id="path-effect4605-7"
       is_visible="true" />
    <inkscape:path-effect
       effect="spiro"
       id="path-effect4609-6"
       is_visible="true" />
    <inkscape:path-effect
       effect="spiro"
       id="path-effect4613-3"
       is_visible="true" />
    <filter
       inkscape:label="Opacity"
       style="color-interpolation-filters:sRGB"
       id="filter3390">
      <feColorMatrix
         values="1 0 0 0 0 0 1 0 0 0 0 0 1 0 0 0 0 0 5 -1 "
         result="colormatrix"
         id="feColorMatrix3392" />
      <feComposite
         in2="colormatrix"
         operator="arithmetic"
         k2="1"
         result="fbSourceGraphic"
         id="feComposite3394"
         k1="0"
         k3="0"
         k4="0" />
      <feColorMatrix
         result="fbSourceGraphicAlpha"
         in="fbSourceGraphic"
         values="0 0 0 -1 0 0 0 0 -1 0 0 0 0 -1 0 0 0 0 1 0"
         id="feColorMatrix3396" />
      <feColorMatrix
         id="feColorMatrix3398"
         values="1 0 0 0 0 0 1 0 0 0 0 0 1 0 0 0 0 0 5 -1 "
         result="colormatrix"
         in="fbSourceGraphic" />
      <feComposite
         id="feComposite3400"
         in2="colormatrix"
         operator="arithmetic"
         k2="1"
         result="composite"
         k1="0"
         k3="0"
         k4="0" />
    </filter>
    <linearGradient
       inkscape:collect="always"
       xlink:href="#linearGradient4198"
       id="linearGradient4204"
       x1="-2409.9888"
       y1="251.93776"
       x2="-2584.2744"
       y2="14.794897"
       gradientUnits="userSpaceOnUse"
       gradientTransform="matrix(1.0102024,0,0,1.109664,16.863254,47.72637)" />
    <linearGradient
       inkscape:collect="always"
       xlink:href="#linearGradient4201"
       id="linearGradient4207"
       x1="-3544.2744"
       y1="80.509186"
       x2="-3729.9888"
       y2="-970.91937"
       gradientUnits="userSpaceOnUse" />
    <linearGradient
       inkscape:collect="always"
       xlink:href="#linearGradient4209"
       id="linearGradient4215"
       x1="-3727.1316"
       y1="46.223469"
       x2="-3749.9885"
       y2="420.50916"
       gradientUnits="userSpaceOnUse" />
    <linearGradient
       inkscape:collect="always"
       xlink:href="#linearGradient4251"
       id="linearGradient4217"
       x1="-3727.1316"
       y1="46.223469"
       x2="-3749.9885"
       y2="420.50916"
       gradientUnits="userSpaceOnUse" />
    <linearGradient
       inkscape:collect="always"
       xlink:href="#linearGradient4245"
       id="linearGradient4219"
       x1="-3727.1316"
       y1="46.223469"
       x2="-3749.9885"
       y2="420.50916"
       gradientUnits="userSpaceOnUse" />
    <linearGradient
       inkscape:collect="always"
       xlink:href="#linearGradient4239"
       id="linearGradient4221"
       x1="-3727.1316"
       y1="46.223469"
       x2="-3749.9885"
       y2="420.50916"
       gradientUnits="userSpaceOnUse" />
    <linearGradient
       inkscape:collect="always"
       xlink:href="#linearGradient4233"
       id="linearGradient4223"
       x1="-3727.1316"
       y1="46.223469"
       x2="-3749.9885"
       y2="420.50916"
       gradientUnits="userSpaceOnUse" />
    <linearGradient
       inkscape:collect="always"
       xlink:href="#linearGradient4227"
       id="linearGradient4225"
       x1="-3727.1316"
       y1="46.223469"
       x2="-3749.9885"
       y2="420.50916"
       gradientUnits="userSpaceOnUse" />
    <linearGradient
       inkscape:collect="always"
       xlink:href="#linearGradient4272"
       id="linearGradient4278"
       x1="-2874.7734"
       y1="197.9771"
       x2="-3215.4424"
       y2="194.13641"
       gradientUnits="userSpaceOnUse"
       gradientTransform="matrix(1.5683427,0,0,1.4878294,890.06983,-259.76125)" />
    <linearGradient
       inkscape:collect="always"
       xlink:href="#linearGradient5860"
       id="linearGradient5866"
       x1="-2154.2856"
       y1="389.58554"
       x2="-2682.8572"
       y2="506.72842"
       gradientUnits="userSpaceOnUse" />
    <linearGradient
       inkscape:collect="always"
       xlink:href="#linearGradient5860"
       id="linearGradient5868"
       x1="-2154.2856"
       y1="389.58554"
       x2="-2682.8572"
       y2="506.72842"
       gradientUnits="userSpaceOnUse" />
    <linearGradient
       inkscape:collect="always"
       xlink:href="#linearGradient5860"
       id="linearGradient5870"
       x1="-2154.2856"
       y1="389.58554"
       x2="-2682.8572"
       y2="506.72842"
       gradientUnits="userSpaceOnUse" />
    <linearGradient
       inkscape:collect="always"
       xlink:href="#linearGradient5860"
       id="linearGradient5872"
       x1="-2154.2856"
       y1="389.58554"
       x2="-2682.8572"
       y2="506.72842"
       gradientUnits="userSpaceOnUse" />
    <linearGradient
       inkscape:collect="always"
       xlink:href="#linearGradient5860"
       id="linearGradient5874"
       x1="-2154.2856"
       y1="389.58554"
       x2="-2682.8572"
       y2="506.72842"
       gradientUnits="userSpaceOnUse" />
  </defs>
  <sodipodi:namedview
     id="base"
     pagecolor="#ffffff"
     bordercolor="#666666"
     borderopacity="1.0"
     inkscape:pageopacity="0.0"
     inkscape:pageshadow="2"
     inkscape:zoom="0.35"
     inkscape:cx="-845.06058"
     inkscape:cy="1414.3616"
     inkscape:document-units="px"
     inkscape:current-layer="layer1"
     showgrid="false"
     fit-margin-top="0"
     fit-margin-left="0"
     fit-margin-right="0"
     fit-margin-bottom="0"
     inkscape:window-width="1920"
     inkscape:window-height="1016"
     inkscape:window-x="0"
     inkscape:window-y="27"
     inkscape:window-maximized="1" />
  <metadata
     id="metadata13647">
    <rdf:RDF>
      <cc:Work
         rdf:about="">
        <dc:format>image/svg+xml</dc:format>
        <dc:type
           rdf:resource="http://purl.org/dc/dcmitype/StillImage" />
        <dc:title></dc:title>
      </cc:Work>
    </rdf:RDF>
  </metadata>
  <g
     inkscape:label="Layer 1"
     inkscape:groupmode="layer"
     id="layer1"
     transform="translate(2007.6394,931.43318)">
    <ellipse
       style="display:inline;opacity:0.7;fill:#ff2a2a;fill-opacity:0.96159273"
       id="path4275"
       cx="-1970.3955"
       cy="75.955704"
       rx="7.1428571"
       ry="1.4285715" />
    <path
       style="display:inline;opacity:0.98999999;fill:#00ffff;fill-opacity:0.00030272;stroke:#a793ac"
       d="m -1554.6813,-574.04429 c -34.7819,11.21998 -64.7308,36.68929 -81.3916,69.21754 -16.6608,32.52825 -19.8284,71.71484 -8.6084,106.49676 11.22,34.78192 36.6893,64.73081 69.2175,81.39162 32.5283,16.66081 71.7149,19.82836 106.4968,8.60838 34.7819,-11.21998 64.7308,-36.68929 81.3916,-69.21754 16.6608,-32.52825 19.8284,-71.71484 8.6084,-106.49676 -11.22,-34.78192 -36.6893,-64.73081 -69.2175,-81.39162 -32.5283,-16.66081 -71.7149,-19.82836 -106.4968,-8.60838 z"
       id="path4515"
       inkscape:path-effect="#path-effect4517-7"
       inkscape:original-d="m -1554.6813,-574.04429 c 368.5714,208.5714 177.1429,297.1428 85.7143,265.7143 -91.4286,-31.4286 -85.7143,-265.7143 -85.7143,-265.7143 z"
       inkscape:connector-curvature="0" />
    <path
       style="display:inline;opacity:0.98999999;fill:#000000;fill-opacity:0;stroke:#a793ac"
       d="m -1546.1099,-294.04429 157.1429,494.28567 -5.7143,-2.8571 c 33.2219,-39.85045 59.4533,-85.51244 77.1429,-134.285697 45.9337,-126.646886 30.7713,-273.938333 -40,-388.571473"
       id="path4519"
       inkscape:path-effect="#path-effect4521-8"
       inkscape:original-d="m -1546.1099,-294.04429 c 0,468.57137 157.1429,494.28567 157.1429,494.28567 l -5.7143,-2.8571 c 0,0 54.2857,-5.7143 77.1429,-134.285697 22.8571,-128.57147 -22.8572,-317.142873 -40,-388.571473"
       inkscape:connector-curvature="0" />
    <path
       style="display:inline;opacity:0.98999999;fill:#3e3748;fill-opacity:0;stroke:#a793ac"
       d="m -1374.6813,-445.47289 514.28568,-2.8571 c -48.27026,-47.58566 -105.87669,-85.66451 -168.57138,-111.4286 -130.376,-53.57741 -282.5909,-51.46331 -411.4286,5.7143 l 122.8572,-374.28573 c -59.7089,-11.43064 -124.1234,4.67297 -171.4286,42.85713 -45.5857,36.79617 -74.5811,93.40866 -77.801,151.90349 -3.2199,58.49482 19.3866,117.94779 60.6581,159.52511 l -234.2857,-320 c -31.8789,28.14434 -55.8699,65.13056 -68.5714,105.7143 -18.952,60.55538 -11.9204,128.77591 18.985,184.19242 30.9054,55.41651 85.2504,97.25066 146.7293,112.95038"
       id="path4523"
       inkscape:path-effect="#path-effect4525-1"
       inkscape:original-d="m -1374.6813,-445.47289 514.28568,-2.8571 c 0,0 22.8572,-74.2857 -168.57138,-111.4286 -191.4286,-37.1428 -411.4286,5.7143 -411.4286,5.7143 l 122.8572,-374.28573 c 0,0 -168.5715,-45.7143 -171.4286,42.85713 -2.8572,88.5715 -17.1429,311.4286 -17.1429,311.4286 l -234.2857,-320 c 0,0 -145.7143,5.7143 -68.5714,105.7143 77.1428,100 165.7143,297.1428 165.7143,297.1428"
       inkscape:connector-curvature="0" />
    <path
       style="display:inline;opacity:0.98999999;fill:#3e3748;fill-opacity:0;stroke:#a793ac"
       d="m -1651.8242,-411.18719 -357.1428,-105.7142 94.2857,134.2857"
       id="path4527"
       inkscape:path-effect="#path-effect4529-6"
       inkscape:original-d="m -1651.8242,-411.18719 -357.1428,-105.7142 c 0,0 -180.0001,117.1428 94.2857,134.2857"
       inkscape:connector-curvature="0" />
    <path
       style="display:inline;opacity:0.7;fill:#ff2a2a;fill-rule:evenodd;stroke:#000000;stroke-width:1px;stroke-linecap:butt;stroke-linejoin:miter;stroke-opacity:1"
       d="m -1917.5384,-394.04429 120,11.4286"
       id="path4531"
       inkscape:path-effect="#path-effect4533-2"
       inkscape:original-d="m -1917.5384,-394.04429 c 111.4285,20 485.7142,37.1429 120,11.4286"
       inkscape:connector-curvature="0" />
    <path
       style="display:inline;opacity:0.7;fill:#ff2a2a;fill-rule:evenodd;stroke:#000000;stroke-width:1px;stroke-linecap:butt;stroke-linejoin:miter;stroke-opacity:1"
       d="m -1797.5384,-391.18719 154.2857,-11.4285"
       id="path4535"
       inkscape:path-effect="#path-effect4537-6"
       inkscape:original-d="m -1797.5384,-391.18719 c 151.4285,-5.7142 154.2857,-11.4285 154.2857,-11.4285"
       inkscape:connector-curvature="0" />
    <path
       style="display:inline;opacity:0.98999999;fill:#00ffff;fill-opacity:0.00030272;stroke:#a793ac"
       d="m -1617.5384,-351.18719 -314.2858,282.857203 140,-17.1429"
       id="path4539"
       inkscape:path-effect="#path-effect4541-0"
       inkscape:original-d="m -1617.5384,-351.18719 c -302.8572,271.428603 -314.2858,282.857203 -314.2858,282.857203 0,0 -74.2857,211.428567 140,-17.1429"
       inkscape:connector-curvature="0" />
    <path
       style="display:inline;opacity:0.7;fill:url(#linearGradient4225);fill-opacity:1;fill-rule:evenodd;stroke:#000000;stroke-width:1px;stroke-linecap:butt;stroke-linejoin:miter;stroke-opacity:1"
       d="m -1757.5384,217.38428 -20,-297.142867"
       id="path4543"
       inkscape:path-effect="#path-effect4545-6"
       inkscape:original-d="m -1757.5384,217.38428 c 34.2857,-2.8572 -20,-297.142867 -20,-297.142867"
       inkscape:connector-curvature="0" />
    <path
       style="display:inline;opacity:0.7;fill:#ff2a2a;fill-rule:evenodd;stroke:#000000;stroke-width:1px;stroke-linecap:butt;stroke-linejoin:miter;stroke-opacity:1"
       d="m -1760.3956,214.52708 174.2857,-525.71427"
       id="path4547"
       inkscape:path-effect="#path-effect4549-3"
       inkscape:original-d="m -1760.3956,214.52708 174.2857,-525.71427"
       inkscape:connector-curvature="0" />
    <path
       style="display:inline;opacity:0.7;fill:#ff2a2a;fill-rule:evenodd;stroke:#000000;stroke-width:1px;stroke-linecap:butt;stroke-linejoin:miter;stroke-opacity:1"
       d="m -1357.5384,-331.18719 -25.7143,-42.8571"
       id="path4551"
       inkscape:path-effect="#path-effect4553-9"
       inkscape:original-d="m -1357.5384,-331.18719 c -25.7143,-42.8571 -25.7143,-42.8571 -25.7143,-42.8571"
       inkscape:connector-curvature="0" />
    <path
       style="display:inline;opacity:0.98999999;fill:#3e3748;fill-opacity:0;stroke:#a793ac"
       d="m -1371.8242,-388.32999 377.14288,325.714303 c 14.21357,-74.592503 -2.63275,-154.612523 -45.71428,-217.142903 -35.4275,-51.42102 -88.0534,-90.77048 -147.3944,-110.20974 -59.3409,-19.43926 -125.0488,-18.85431 -184.0342,1.63834 z"
       id="path4555"
       inkscape:path-effect="#path-effect4557-0"
       inkscape:original-d="m -1371.8242,-388.32999 c 345.7143,320.000003 377.14288,325.714303 377.14288,325.714303 0,0 122.8572,-128.571503 -45.71428,-217.142903 -168.5714,-88.5714 -331.4286,-108.5714 -331.4286,-108.5714 z"
       inkscape:connector-curvature="0" />
    <path
       style="display:inline;opacity:0.7;fill:#ff2a2a;fill-rule:evenodd;stroke:#000000;stroke-width:1px;stroke-linecap:butt;stroke-linejoin:miter;stroke-opacity:1"
       d="m -1651.8242,-448.32999 -111.4285,0"
       id="path4567"
       inkscape:path-effect="#path-effect4569-7"
       inkscape:original-d="m -1651.8242,-448.32999 c -111.4285,0 -111.4285,0 -111.4285,0"
       inkscape:connector-curvature="0" />
    <path
       style="display:inline;opacity:0.7;fill:#ff2a2a;fill-rule:evenodd;stroke:#000000;stroke-width:1px;stroke-linecap:butt;stroke-linejoin:miter;stroke-opacity:1"
       d="m -1763.2527,-391.18719 0,162.8572"
       id="path4571"
       inkscape:path-effect="#path-effect4573-2"
       inkscape:original-d="m -1763.2527,-391.18719 c 0,162.8572 0,162.8572 0,162.8572"
       inkscape:connector-curvature="0" />
    <path
       style="display:inline;opacity:0.7;fill:#ff2a2a;fill-rule:evenodd;stroke:#000000;stroke-width:1px;stroke-linecap:butt;stroke-linejoin:miter;stroke-opacity:1"
       d="m -1760.3956,211.66998 -2.8571,491.4286 2.8571,-2.8572"
       id="path4575"
       inkscape:path-effect="#path-effect4577-1"
       inkscape:original-d="m -1760.3956,211.66998 c 0,488.5714 -2.8571,491.4286 -2.8571,491.4286 l 2.8571,-2.8572"
       inkscape:connector-curvature="0" />
    <path
       style="display:inline;opacity:0.7;fill:#ff2a2a;fill-rule:evenodd;stroke:#000000;stroke-width:1px;stroke-linecap:butt;stroke-linejoin:miter;stroke-opacity:1"
       d="m -1291.8242,-439.75859 0,31.4286"
       id="path4579"
       inkscape:path-effect="#path-effect4581-9"
       inkscape:original-d="m -1291.8242,-439.75859 c 2.8572,34.2857 0,31.4286 0,31.4286"
       inkscape:connector-curvature="0" />
    <path
       style="display:inline;opacity:0.7;fill:#ff2a2a;fill-rule:evenodd;stroke:#000000;stroke-width:1px;stroke-linecap:butt;stroke-linejoin:miter;stroke-opacity:1"
       d="m -1246.1099,-162.61569 -17.1428,-131.4286"
       id="path4583"
       inkscape:path-effect="#path-effect4585-2"
       inkscape:original-d="m -1246.1099,-162.61569 -17.1428,-131.4286"
       inkscape:connector-curvature="0" />
    <path
       style="display:inline;opacity:0.7;fill:#ff2a2a;fill-rule:evenodd;stroke:#000000;stroke-width:1px;stroke-linecap:butt;stroke-linejoin:miter;stroke-opacity:1"
       d="m -1248.967,-171.18719 2.8571,880.00007"
       id="path4587"
       inkscape:path-effect="#path-effect4589-6"
       inkscape:original-d="m -1248.967,-171.18719 c 2.8571,880.00007 2.8571,880.00007 2.8571,880.00007"
       inkscape:connector-curvature="0" />
    <path
       style="display:inline;opacity:0.7;fill:#ff2a2a;fill-rule:evenodd;stroke:#000000;stroke-width:1px;stroke-linecap:butt;stroke-linejoin:miter;stroke-opacity:1"
       d="m -1243.2527,685.95568 -517.1429,5.7143"
       id="path4591"
       inkscape:path-effect="#path-effect4593-5"
       inkscape:original-d="m -1243.2527,685.95568 c -520,5.7143 -517.1429,5.7143 -517.1429,5.7143"
       inkscape:connector-curvature="0" />
    <path
       style="display:inline;opacity:0.98999999;fill:url(#linearGradient4223);fill-opacity:1;stroke:#a793ac"
       d="m -1568.967,85.955683 c 8.602,10.471976 21.4619,17.338347 34.9492,18.660637 13.4874,1.32229 27.436,-2.91579 37.9079,-11.517772 10.472,-8.601978 17.3384,-21.46191 18.6607,-34.949232 1.3223,-13.487321 -2.9158,-27.435927 -11.5178,-37.907903 -8.602,-10.4719755 -21.4619,-17.3383512 -34.9492,-18.6606392 -13.4874,-1.32228806 -27.436,2.9157964 -37.9079,11.5177742 -10.472,8.601978 -17.3384,21.46191 -18.6607,34.949232 -1.3223,13.487321 2.9158,27.435927 11.5178,37.907903 z"
       id="path4595"
       inkscape:path-effect="#path-effect4597-3"
       inkscape:original-d="m -1568.967,85.955683 c -2.8572,-54.28567 128.5714,-202.857073 80,-65.71427 -48.5714,137.142867 -80,65.71427 -80,65.71427 z"
       inkscape:connector-curvature="0" />
    <path
       style="display:inline;opacity:0.7;fill:#ff2a2a;fill-rule:evenodd;stroke:#000000;stroke-width:1px;stroke-linecap:butt;stroke-linejoin:miter;stroke-opacity:1"
       d="m -1634.6813,694.52708 -5.7143,-300 194.2857,2.8572 5.7143,291.4286"
       id="path4599"
       inkscape:path-effect="#path-effect4601-5"
       inkscape:original-d="m -1634.6813,694.52708 c -5.7143,-80 -5.7143,-300 -5.7143,-300 l 194.2857,2.8572 5.7143,291.4286"
       inkscape:connector-curvature="0" />
    <path
       style="display:inline;opacity:0.7;fill:url(#linearGradient4221);fill-opacity:1;fill-rule:evenodd;stroke:#000000;stroke-width:1px;stroke-linecap:butt;stroke-linejoin:miter;stroke-opacity:1"
       d="m -1643.2527,391.66998 c 9.6086,-18.61405 24.607,-34.40616 42.7012,-44.96114 18.0943,-10.55498 39.2234,-15.83721 60.1559,-15.03886 20.5792,0.78488 40.9021,7.43946 57.9599,18.97857 17.0578,11.53911 30.7968,27.92637 39.183,46.73573"
       id="path4603"
       inkscape:path-effect="#path-effect4605-7"
       inkscape:original-d="m -1643.2527,391.66998 c 0,0 74.2857,-60 102.8571,-60 28.5714,0 97.1429,65.7143 97.1429,65.7143"
       inkscape:connector-curvature="0" />
    <path
       style="display:inline;opacity:0.7;fill:url(#linearGradient4219);fill-opacity:1;fill-rule:evenodd;stroke:#000000;stroke-width:1px;stroke-linecap:butt;stroke-linejoin:miter;stroke-opacity:1"
       d="m -1580.3956,505.95568 0,51.4286"
       id="path4607"
       inkscape:path-effect="#path-effect4609-6"
       inkscape:original-d="m -1580.3956,505.95568 c 0,51.4286 0,51.4286 0,51.4286"
       inkscape:connector-curvature="0" />
    <path
       style="display:inline;opacity:0.7;fill:url(#linearGradient4217);fill-opacity:1;fill-rule:evenodd;stroke:#000000;stroke-width:1px;stroke-linecap:butt;stroke-linejoin:miter;stroke-opacity:1"
       d="m -1577.5384,508.81288 c 3.9821,-0.26328 8.0388,0.7509 11.4285,2.8571 4.0286,2.50321 7.0726,6.5475 8.3633,11.11152 1.2906,4.56402 0.8153,9.6035 -1.3058,13.84577 -2.1211,4.24226 -5.8675,7.64617 -10.2931,9.35209 -4.4256,1.70591 -9.4874,1.69729 -13.9072,-0.0237"
       id="path4611"
       inkscape:path-effect="#path-effect4613-3"
       inkscape:original-d="m -1577.5384,508.81288 c 0,0 28.5714,-45.7143 11.4285,2.8571 -17.1428,48.5714 -17.1428,34.2857 -17.1428,34.2857"
       inkscape:connector-curvature="0" />
    <path
       style="display:inline;opacity:0.98999999;fill:#ff2a2a;fill-opacity:0"
       d="m -1246.5379,699.85738 -0.4291,-12.0805 -192.1428,1.7978 c -105.6786,0.9887 -192.4631,2.5678 -192.8544,3.509 -0.3913,0.9412 -29.7972,1.3422 -65.3464,0.891 -56.5959,-0.7183 -64.4296,-0.2854 -62.9847,3.4799 0.9076,2.3652 0.2268,5.18 -1.5129,6.2551 -2.3083,1.4267 -2.7241,-68.6127 -1.5386,-259.1942 l 1.6244,-261.149 -8.3167,-124.285767 c -4.5743,-68.3570997 -8.1627,-128.1428 -7.9743,-132.8571 0.7448,-18.6401 5.0037,31.3542 12.7424,149.57817 l 8.1079,123.863897 19.1585,-56.721 c 10.5371,-31.1966 19.2599,-54.755397 19.3838,-52.352997 0.1239,2.4025 -8.321,29.402497 -18.7665,59.999997 l -18.9917,55.6319 -2.1602,118.5714 c -1.1882,65.2143 -2.2847,174.1786 -2.4369,242.1429 l -0.2766,123.5714 39.2857,-0.017 c 21.6072,-0.01 50.009,-0.8518 63.1153,-1.8719 l 23.8295,-1.8549 -1.62,-21.6994 c -0.891,-11.9347 -2.448,-78.1606 -3.46,-147.1685 l -1.84,-125.4691 97.6696,1.8644 97.6696,1.8644 -1.9317,-6.3954 c -1.3537,-4.4817 -1.0178,-5.5347 1.1227,-3.5192 1.9832,1.8675 3.5827,35.4337 4.561,95.7143 0.8286,51.061 2.3252,118.3917 3.3256,149.6239 l 1.819,56.7857 14.6554,-1.7609 c 8.0605,-0.9685 50.7169,-1.7721 94.7921,-1.7857 l 80.1366,-0.025 -0.9041,-429.2857 -0.904,-429.28577 -7.4598,-59.3918 c -4.1028,-32.6656 -6.6369,-60.2147 -5.6313,-61.2203 1.0056,-1.0056 5.6587,1.8413 10.3402,6.3264 4.6815,4.4852 7.8773,8.7894 7.1018,9.5649 -0.7755,0.7755 -4.7329,-1.7022 -8.7942,-5.506 l -7.3842,-6.916 1.7001,10 c 0.935,5.5 4.3085,29.9286 7.4967,54.2857 5.4107,41.3368 5.8097,60.2671 5.9923,284.285703 0.1078,131.999967 1.0264,327.428567 2.0416,434.285667 1.0153,106.8572 1.0748,200.0715 0.1323,207.1429 l -1.7137,12.8571 -0.4292,-12.0804 -10e-5,0 z m -195.7797,-37.2052 c -0.9194,-13.75 -2.4891,-78.4766 -3.4882,-143.8369 l -1.8168,-118.8369 -70.3865,-1.8712 c -38.7125,-1.0292 -81.7845,-1.874 -95.7156,-1.8774 l -25.3291,-0.01 1.7813,90.7143 c 0.9796,49.8928 2.5539,115.4643 3.4984,145.7143 l 1.7171,55 95.7055,0 95.7054,0 -1.6715,-25 z"
       id="path4621"
       inkscape:connector-curvature="0" />
    <path
       style="display:inline;opacity:0.98999999;fill:#c4b7c8;fill-opacity:0"
       d="m -1246.967,699.55688 0,-11.9047 -25,0.158 c -13.75,0.087 -100.2143,1.3337 -192.1428,2.7706 -91.9286,1.4369 -196.5461,2.6107 -232.4834,2.6083 -56.9026,0 -65.1282,0.5491 -63.6962,4.2807 0.9043,2.3567 0.2751,5.1311 -1.3984,6.1654 -2.1462,1.3264 -2.8144,-80.0927 -2.2679,-276.3371 0.771,-276.8746 0.7381,-278.7251 -6.8325,-383.381467 -7.1209,-98.4394 -8.8864,-136.9756 -5.4573,-119.1216 0.7545,3.9286 5.4027,66.7493003 10.3293,139.60147 l 8.9574,132.458697 83.9329,-252.790667 c 46.163,-139.034803 83.4469,-253.931603 82.853,-255.326103 -0.5939,-1.3945 -8.3737,-9.3738 -17.2885,-17.7316 l -16.2087,-15.1962 -9.7992,15.2065 c -5.3895,8.3636 -43.2993,66.2171 -84.244,128.5633 -40.9447,62.3462 -73.8331,113.968603 -73.0853,114.716303 1.7903,1.7903 -9.0374,3.4259 -80.0241,12.0877 -32.7636,3.9978 -60.754,6.874 -62.2011,6.3917 -1.4471,-0.4824 36.288,-35.839903 83.8558,-78.572403 l 86.4867,-77.6954 -0.7973,-84.3756 -0.7972,-84.3756 -17.7742,1.776 c -9.7758,0.9768 -16.8658,0.7948 -15.7556,-0.4043 1.5833,-1.7102 120.8244,-12.3942 142.9815,-12.8111 2.75,-0.052 5,-1.2299 5,-2.618 0,-5.4045 -13.1519,-4.7293 -104.2857,5.3542 -82.5677,9.1356 -92.1552,10.6882 -77.1429,12.4925 27.7391,3.3338 36.3903,4.9535 34.8239,6.52 -0.8109,0.8109 -16.4862,-0.073 -34.8341,-1.9651 -31.3168,-3.2287 -71.7814,-2.6924 -81.4184,1.0793 -3.1146,1.219 -17.2523,-16.8343 -51.7388,-66.0684 -26.0992,-37.2602 -45.988,-68.1072 -44.1974,-68.549 1.7907,-0.4418 56.5731,14.9868 121.7388,34.2857 l 118.4831,35.089 57.8315,-0.8289 57.8315,-0.8288 1.6924,-7.7426 c 0.9308,-4.2584 3.3711,-13.0171 5.4228,-19.4636 l 3.7304,-11.7211 -16.1114,-5.0118 c -68.6827,-21.3652 -126.962,-78.3582 -150.304,-146.9865 -14.1946,-41.7337 -16.4683,-98.2103 -5.5899,-138.8453 9.9374,-37.1199 35.0004,-80.5318 60.9701,-105.607 11.5988,-11.1993 11.7826,-11.2609 17.0464,-5.7143 2.9267,3.0839 44.2436,58.9642 91.8154,124.1785 47.5717,65.2142 87.1552,119.2142 87.9632,119.9999 0.8081,0.7858 0.5251,-1.1428 -0.6289,-4.2857 -13.3009,-36.225 -15.3389,-88.411 -4.9033,-125.5526 21.002,-74.7486 78.1142,-131.68003 150.7288,-150.25173 22.849,-5.8438 84.3208,-8.0112 91.8406,-3.2382 2.746,1.743 -10.8924,46.52633 -56.4286,185.28973 -33.0274,100.6451 -60.0498,183.7596 -60.0498,184.699 0,0.9393 6.041,-0.8816 13.4246,-4.0465 22.474,-9.6336 68.5637,-22.3521 102.1078,-28.1769 162.8205,-28.2732 330.14708,20.43 448.22588,130.4635 7.5671,7.0515 13.3528,13.2125 12.8572,13.6911 -0.4957,0.4786 -115.4835,1.8157 -255.52848,2.9714 l -254.6272,2.1012 -1.7602,18.9394 c -0.9681,10.4167 -3.7317,25.5779 -6.1412,33.6917 l -4.3809,14.7522 13.2243,21.7823 c 7.2733,11.9802 12.4405,22.5659 11.4826,23.5238 -2.1835,2.1835 -1.5182,3.0618 -15.2161,-20.0899 l -11.508,-19.4506 -11.3178,16.5934 c -6.2249,9.1264 -18.0091,22.0577 -26.1872,28.7363 -8.1782,6.6786 -13.3569,12.1429 -11.5083,12.1429 2.6416,0 61.4594,-9.6439 74.905,-12.2816 1.6136,-0.3166 9.7245,12.2816 18.0241,27.9958 47.3696,89.6883 61.9883,208.954803 38.1723,311.428603 -12.3941,53.32877 -38.1913,110.923867 -68.8565,153.729967 -9.2248,12.8771 -16.7832,25.77 -16.7964,28.651 -0.014,2.9183 -1.6058,4.7074 -3.5955,4.0398 -1.9643,-0.6592 -3.5896,-3.1988 -3.6117,-5.6436 -0.023,-2.4449 -34.7364,-113.701397 -77.1429,-247.236667 l -77.1026,-242.791403 -16.9918,-7.5255 c -9.3456,-4.139 -17.8286,-6.5576 -18.8512,-5.3746 -1.0226,1.1831 -40.2619,117.8653 -87.1984,259.293903 l -85.3392,257.142867 -1.9253,135.7142 c -1.0589,74.6429 -2.0661,183.1654 -2.2382,241.1611 l -0.313,105.4468 62.0097,-1.9804 c 34.1054,-1.0891 62.1257,-2.2545 62.2674,-2.5896 0.1418,-0.3351 -0.629,-44.9664 -1.7126,-99.1807 -3.9656,-198.3849 -3.9464,-201.7512 1.196,-209.5995 9.2445,-14.1088 26.5704,-28.5036 44.8109,-37.2301 17.1366,-8.1983 20.8893,-8.8847 48.5715,-8.8847 26.5143,0 31.8839,0.8832 46.2147,7.6012 17.753,8.3223 39.1293,26.5022 47.9575,40.7867 5.1644,8.3561 5.762,15.9579 7.1037,90.3678 0.8058,44.6844 2.2746,111.4586 3.2641,148.3871 l 1.7991,67.1429 94.6876,-0.7868 94.6875,-0.7868 -0.8457,-430.6418 -0.8458,-430.64177 -7.0114,-54.0338 c -3.8562,-29.7185 -7.0113,-55.6845 -7.0113,-57.7022 0,-2.0176 -24.1072,-24.5202 -53.5715,-50.0059 -29.4643,-25.4856 -53.5714,-47.6883 -53.5714,-49.3392 0,-4.1969 27.8197,-12.3252 50,-14.6089 29.0852,-2.9947 28.1748,-2.3017 29.3171,-22.3176 l 1.0104,-17.7066 0.5506,17.4487 0.5505,17.4487 28.7764,1.9819 c 125.5821,8.6493 229.5325,92.0047 262.35428,210.3758 8.846,31.9026 12.7797,76.3087 9.4325,106.478203 -1.5355,13.839 -3.5259,25.896 -4.4232,26.7933 -1.5128,1.5128 -24.68378,-18.135 -202.67588,-171.859803 -46.7886,-40.4096 -64.7004,-54.3627 -63.6612,-49.5916 0.7954,3.6515 3.9877,27.2105 7.0942,52.3533 5.6792,45.9657 6.8201,157.837903 9.014,883.86567 0.092,30.4118 -0.5577,56.019 -1.4434,56.9048 -0.8858,0.8857 -1.6106,-3.7467 -1.6106,-10.2943 z m -356.3424,-308.2782 c -6.6311,-0.5992 -18.2025,-0.6064 -25.7142,-0.017 -7.5117,0.5904 -2.0862,1.0807 12.0566,1.0894 14.1429,0.01 20.2888,-0.4744 13.6576,-1.0736 l 0,0 z m -81.5105,-684.78307 59.9376,-54.0136 -6.7391,-9.9307 c -3.7065,-5.4618 -9.474,-17.4312 -12.8166,-26.5986 l -6.0774,-16.6679 -11.7972,1.358 c -13.8491,1.5942 -86.3125,7.0094 -93.7969,7.0094 -4.8349,0 -5.1432,4.9794 -5.1432,83.0642 l 0,83.0642 8.2476,-6.6356 c 4.5362,-3.6496 35.2196,-30.9418 68.1852,-60.6494 z m 32.1386,-137.4149 0,-15.7143 -53.5714,0.2255 c -29.4643,0.124 -52.2857,0.762 -50.7143,1.4176 6.6477,2.7737 97.4545,29.4895 100.7143,29.6307 2.443,0.1057 3.5714,-4.8104 3.5714,-15.5596 l 0,1e-4 z"
       id="path4629"
       inkscape:connector-curvature="0" />
    <path
       style="display:inline;opacity:0.98999999;fill:#c4b7c8;fill-opacity:0"
       d="m -1246.967,699.55688 0,-11.9047 -25,0.158 c -13.75,0.087 -100.2143,1.3337 -192.1428,2.7706 -91.9286,1.4369 -196.5461,2.6107 -232.4834,2.6083 -56.9026,0 -65.1282,0.5491 -63.6962,4.2807 0.9043,2.3567 0.2751,5.1311 -1.3984,6.1654 -2.1462,1.3264 -2.8144,-80.0927 -2.2679,-276.3371 0.771,-276.8746 0.7381,-278.7251 -6.8325,-383.381467 -7.1209,-98.4394 -8.8864,-136.9756 -5.4573,-119.1216 0.7545,3.9286 5.4027,66.7493003 10.3293,139.60147 l 8.9574,132.458697 83.9329,-252.790667 c 46.163,-139.034803 83.4469,-253.931603 82.853,-255.326103 -0.5939,-1.3945 -8.3737,-9.3738 -17.2885,-17.7316 l -16.2087,-15.1962 -9.7992,15.2065 c -5.3895,8.3636 -43.2993,66.2171 -84.244,128.5633 -40.9447,62.3462 -73.8331,113.968603 -73.0853,114.716303 1.7903,1.7903 -9.0374,3.4259 -80.0241,12.0877 -32.7636,3.9978 -60.754,6.874 -62.2011,6.3917 -1.4471,-0.4824 36.288,-35.839903 83.8558,-78.572403 l 86.4867,-77.6954 -0.7973,-84.3756 -0.7972,-84.3756 -17.7742,1.776 c -9.7758,0.9768 -16.8658,0.7948 -15.7556,-0.4043 1.5833,-1.7102 120.8244,-12.3942 142.9815,-12.8111 2.75,-0.052 5,-1.2299 5,-2.618 0,-5.4045 -13.1519,-4.7293 -104.2857,5.3542 -82.5677,9.1356 -92.1552,10.6882 -77.1429,12.4925 27.7391,3.3338 36.3903,4.9535 34.8239,6.52 -0.8109,0.8109 -16.4862,-0.073 -34.8341,-1.9651 -31.3168,-3.2287 -71.7814,-2.6924 -81.4184,1.0793 -3.1146,1.219 -17.2523,-16.8343 -51.7388,-66.0684 -26.0992,-37.2602 -45.988,-68.1072 -44.1974,-68.549 1.7907,-0.4418 56.5731,14.9868 121.7388,34.2857 l 118.4831,35.089 57.8315,-0.8289 57.8315,-0.8288 1.6924,-7.7426 c 0.9308,-4.2584 3.3711,-13.0171 5.4228,-19.4636 l 3.7304,-11.7211 -16.1114,-5.0118 c -68.6827,-21.3652 -126.962,-78.3582 -150.304,-146.9865 -14.1946,-41.7337 -16.4683,-98.2103 -5.5899,-138.8453 9.9374,-37.1199 35.0004,-80.5318 60.9701,-105.607 11.5988,-11.1993 11.7826,-11.2609 17.0464,-5.7143 2.9267,3.0839 44.2436,58.9642 91.8154,124.1785 47.5717,65.2142 87.1552,119.2142 87.9632,119.9999 0.8081,0.7858 0.5251,-1.1428 -0.6289,-4.2857 -13.3009,-36.225 -15.3389,-88.411 -4.9033,-125.5526 21.002,-74.7486 78.1142,-131.68003 150.7288,-150.25173 22.849,-5.8438 84.3208,-8.0112 91.8406,-3.2382 2.746,1.743 -10.8924,46.52633 -56.4286,185.28973 -33.0274,100.6451 -60.0498,183.7596 -60.0498,184.699 0,0.9393 6.041,-0.8816 13.4246,-4.0465 22.474,-9.6336 68.5637,-22.3521 102.1078,-28.1769 162.8205,-28.2732 330.14708,20.43 448.22588,130.4635 7.5671,7.0515 13.3528,13.2125 12.8572,13.6911 -0.4957,0.4786 -115.4835,1.8157 -255.52848,2.9714 l -254.6272,2.1012 -1.7602,18.9394 c -0.9681,10.4167 -3.7317,25.5779 -6.1412,33.6917 l -4.3809,14.7522 13.2243,21.7823 c 7.2733,11.9802 12.4405,22.5659 11.4826,23.5238 -2.1835,2.1835 -1.5182,3.0618 -15.2161,-20.0899 l -11.508,-19.4506 -11.3178,16.5934 c -6.2249,9.1264 -18.0091,22.0577 -26.1872,28.7363 -8.1782,6.6786 -13.3569,12.1429 -11.5083,12.1429 2.6416,0 61.4594,-9.6439 74.905,-12.2816 1.6136,-0.3166 9.7245,12.2816 18.0241,27.9958 47.3696,89.6883 61.9883,208.954803 38.1723,311.428603 -12.3941,53.32877 -38.1913,110.923867 -68.8565,153.729967 -9.2248,12.8771 -16.7832,25.77 -16.7964,28.651 -0.014,2.9183 -1.6058,4.7074 -3.5955,4.0398 -1.9643,-0.6592 -3.5896,-3.1988 -3.6117,-5.6436 -0.023,-2.4449 -34.7364,-113.701397 -77.1429,-247.236667 l -77.1026,-242.791403 -16.9918,-7.5255 c -9.3456,-4.139 -17.8286,-6.5576 -18.8512,-5.3746 -1.0226,1.1831 -40.2619,117.8653 -87.1984,259.293903 l -85.3392,257.142867 -1.9253,135.7142 c -1.0589,74.6429 -2.0661,183.1654 -2.2382,241.1611 l -0.313,105.4468 62.0097,-1.9804 c 34.1054,-1.0891 62.1257,-2.2545 62.2674,-2.5896 0.1418,-0.3351 -0.629,-44.9664 -1.7126,-99.1807 -3.9656,-198.3849 -3.9464,-201.7512 1.196,-209.5995 9.2445,-14.1088 26.5704,-28.5036 44.8109,-37.2301 17.1366,-8.1983 20.8893,-8.8847 48.5715,-8.8847 26.5143,0 31.8839,0.8832 46.2147,7.6012 17.753,8.3223 39.1293,26.5022 47.9575,40.7867 5.1644,8.3561 5.762,15.9579 7.1037,90.3678 0.8058,44.6844 2.2746,111.4586 3.2641,148.3871 l 1.7991,67.1429 94.6876,-0.7868 94.6875,-0.7868 -0.8457,-430.6418 -0.8458,-430.64177 -7.0114,-54.0338 c -3.8562,-29.7185 -7.0113,-55.6845 -7.0113,-57.7022 0,-2.0176 -24.1072,-24.5202 -53.5715,-50.0059 -29.4643,-25.4856 -53.5714,-47.6883 -53.5714,-49.3392 0,-4.1969 27.8197,-12.3252 50,-14.6089 29.0852,-2.9947 28.1748,-2.3017 29.3171,-22.3176 l 1.0104,-17.7066 0.5506,17.4487 0.5505,17.4487 28.7764,1.9819 c 125.5821,8.6493 229.5325,92.0047 262.35428,210.3758 8.846,31.9026 12.7797,76.3087 9.4325,106.478203 -1.5355,13.839 -3.5259,25.896 -4.4232,26.7933 -1.5128,1.5128 -24.68378,-18.135 -202.67588,-171.859803 -46.7886,-40.4096 -64.7004,-54.3627 -63.6612,-49.5916 0.7954,3.6515 3.9877,27.2105 7.0942,52.3533 5.6792,45.9657 6.8201,157.837903 9.014,883.86567 0.092,30.4118 -0.5577,56.019 -1.4434,56.9048 -0.8858,0.8857 -1.6106,-3.7467 -1.6106,-10.2943 z m -356.3424,-308.2782 c -6.6311,-0.5992 -18.2025,-0.6064 -25.7142,-0.017 -7.5117,0.5904 -2.0862,1.0807 12.0566,1.0894 14.1429,0.01 20.2888,-0.4744 13.6576,-1.0736 l 0,0 z m -81.5105,-684.78307 59.9376,-54.0136 -6.7391,-9.9307 c -3.7065,-5.4618 -9.474,-17.4312 -12.8166,-26.5986 l -6.0774,-16.6679 -11.7972,1.358 c -13.8491,1.5942 -86.3125,7.0094 -93.7969,7.0094 -4.8349,0 -5.1432,4.9794 -5.1432,83.0642 l 0,83.0642 8.2476,-6.6356 c 4.5362,-3.6496 35.2196,-30.9418 68.1852,-60.6494 z m 32.1386,-137.4149 0,-15.7143 -53.5714,0.2255 c -29.4643,0.124 -52.2857,0.762 -50.7143,1.4176 6.6477,2.7737 97.4545,29.4895 100.7143,29.6307 2.443,0.1057 3.5714,-4.8104 3.5714,-15.5596 l 0,1e-4 z"
       id="path4631"
       inkscape:connector-curvature="0" />
    <path
       style="display:inline;opacity:0.98999999;fill:#c4b7c8;fill-opacity:0"
       d="m -1246.967,699.55688 0,-11.9047 -25,0.158 c -13.75,0.087 -100.2143,1.3337 -192.1428,2.7706 -91.9286,1.4369 -196.5461,2.6107 -232.4834,2.6083 -56.9026,0 -65.1282,0.5491 -63.6962,4.2807 0.9043,2.3567 0.2751,5.1311 -1.3984,6.1654 -2.1462,1.3264 -2.8144,-80.0927 -2.2679,-276.3371 0.771,-276.8746 0.7381,-278.7251 -6.8325,-383.381467 -7.1209,-98.4394 -8.8864,-136.9756 -5.4573,-119.1216 0.7545,3.9286 5.4027,66.7493003 10.3293,139.60147 l 8.9574,132.458697 83.9329,-252.790667 c 46.163,-139.034803 83.4469,-253.931603 82.853,-255.326103 -0.5939,-1.3945 -8.3737,-9.3738 -17.2885,-17.7316 l -16.2087,-15.1962 -9.7992,15.2065 c -5.3895,8.3636 -43.2993,66.2171 -84.244,128.5633 -40.9447,62.3462 -73.8331,113.968603 -73.0853,114.716303 1.7903,1.7903 -9.0374,3.4259 -80.0241,12.0877 -32.7636,3.9978 -60.754,6.874 -62.2011,6.3917 -1.4471,-0.4824 36.288,-35.839903 83.8558,-78.572403 l 86.4867,-77.6954 -0.7973,-84.3756 -0.7972,-84.3756 -17.7742,1.776 c -9.7758,0.9768 -16.8658,0.7948 -15.7556,-0.4043 1.5833,-1.7102 120.8244,-12.3942 142.9815,-12.8111 2.75,-0.052 5,-1.2299 5,-2.618 0,-5.4045 -13.1519,-4.7293 -104.2857,5.3542 -82.5677,9.1356 -92.1552,10.6882 -77.1429,12.4925 27.7391,3.3338 36.3903,4.9535 34.8239,6.52 -0.8109,0.8109 -16.4862,-0.073 -34.8341,-1.9651 -31.3168,-3.2287 -71.7814,-2.6924 -81.4184,1.0793 -3.1146,1.219 -17.2523,-16.8343 -51.7388,-66.0684 -26.0992,-37.2602 -45.988,-68.1072 -44.1974,-68.549 1.7907,-0.4418 56.5731,14.9868 121.7388,34.2857 l 118.4831,35.089 57.8315,-0.8289 57.8315,-0.8288 1.6924,-7.7426 c 0.9308,-4.2584 3.3711,-13.0171 5.4228,-19.4636 l 3.7304,-11.7211 -16.1114,-5.0118 c -68.6827,-21.3652 -126.962,-78.3582 -150.304,-146.9865 -14.1946,-41.7337 -16.4683,-98.2103 -5.5899,-138.8453 9.9374,-37.1199 35.0004,-80.5318 60.9701,-105.607 11.5988,-11.1993 11.7826,-11.2609 17.0464,-5.7143 2.9267,3.0839 44.2436,58.9642 91.8154,124.1785 47.5717,65.2142 87.1552,119.2142 87.9632,119.9999 0.8081,0.7858 0.5251,-1.1428 -0.6289,-4.2857 -13.3009,-36.225 -15.3389,-88.411 -4.9033,-125.5526 21.002,-74.7486 78.1142,-131.68003 150.7288,-150.25173 22.849,-5.8438 84.3208,-8.0112 91.8406,-3.2382 2.746,1.743 -10.8924,46.52633 -56.4286,185.28973 -33.0274,100.6451 -60.0498,183.7596 -60.0498,184.699 0,0.9393 6.041,-0.8816 13.4246,-4.0465 22.474,-9.6336 68.5637,-22.3521 102.1078,-28.1769 162.8205,-28.2732 330.14708,20.43 448.22588,130.4635 7.5671,7.0515 13.3528,13.2125 12.8572,13.6911 -0.4957,0.4786 -115.4835,1.8157 -255.52848,2.9714 l -254.6272,2.1012 -1.7602,18.9394 c -0.9681,10.4167 -3.7317,25.5779 -6.1412,33.6917 l -4.3809,14.7522 13.2243,21.7823 c 7.2733,11.9802 12.4405,22.5659 11.4826,23.5238 -2.1835,2.1835 -1.5182,3.0618 -15.2161,-20.0899 l -11.508,-19.4506 -11.3178,16.5934 c -6.2249,9.1264 -18.0091,22.0577 -26.1872,28.7363 -8.1782,6.6786 -13.3569,12.1429 -11.5083,12.1429 2.6416,0 61.4594,-9.6439 74.905,-12.2816 1.6136,-0.3166 9.7245,12.2816 18.0241,27.9958 47.3696,89.6883 61.9883,208.954803 38.1723,311.428603 -12.3941,53.32877 -38.1913,110.923867 -68.8565,153.729967 -9.2248,12.8771 -16.7832,25.77 -16.7964,28.651 -0.014,2.9183 -1.6058,4.7074 -3.5955,4.0398 -1.9643,-0.6592 -3.5896,-3.1988 -3.6117,-5.6436 -0.023,-2.4449 -34.7364,-113.701397 -77.1429,-247.236667 l -77.1026,-242.791403 -16.9918,-7.5255 c -9.3456,-4.139 -17.8286,-6.5576 -18.8512,-5.3746 -1.0226,1.1831 -40.2619,117.8653 -87.1984,259.293903 l -85.3392,257.142867 -1.9253,135.7142 c -1.0589,74.6429 -2.0661,183.1654 -2.2382,241.1611 l -0.313,105.4468 62.0097,-1.9804 c 34.1054,-1.0891 62.1257,-2.2545 62.2674,-2.5896 0.1418,-0.3351 -0.629,-44.9664 -1.7126,-99.1807 -3.9656,-198.3849 -3.9464,-201.7512 1.196,-209.5995 9.2445,-14.1088 26.5704,-28.5036 44.8109,-37.2301 17.1366,-8.1983 20.8893,-8.8847 48.5715,-8.8847 26.5143,0 31.8839,0.8832 46.2147,7.6012 17.753,8.3223 39.1293,26.5022 47.9575,40.7867 5.1644,8.3561 5.762,15.9579 7.1037,90.3678 0.8058,44.6844 2.2746,111.4586 3.2641,148.3871 l 1.7991,67.1429 94.6876,-0.7868 94.6875,-0.7868 -0.8457,-430.6418 -0.8458,-430.64177 -7.0114,-54.0338 c -3.8562,-29.7185 -7.0113,-55.6845 -7.0113,-57.7022 0,-2.0176 -24.1072,-24.5202 -53.5715,-50.0059 -29.4643,-25.4856 -53.5714,-47.6883 -53.5714,-49.3392 0,-4.1969 27.8197,-12.3252 50,-14.6089 29.0852,-2.9947 28.1748,-2.3017 29.3171,-22.3176 l 1.0104,-17.7066 0.5506,17.4487 0.5505,17.4487 28.7764,1.9819 c 125.5821,8.6493 229.5325,92.0047 262.35428,210.3758 8.846,31.9026 12.7797,76.3087 9.4325,106.478203 -1.5355,13.839 -3.5259,25.896 -4.4232,26.7933 -1.5128,1.5128 -24.68378,-18.135 -202.67588,-171.859803 -46.7886,-40.4096 -64.7004,-54.3627 -63.6612,-49.5916 0.7954,3.6515 3.9877,27.2105 7.0942,52.3533 5.6792,45.9657 6.8201,157.837903 9.014,883.86567 0.092,30.4118 -0.5577,56.019 -1.4434,56.9048 -0.8858,0.8857 -1.6106,-3.7467 -1.6106,-10.2943 z m -356.3424,-308.2782 c -6.6311,-0.5992 -18.2025,-0.6064 -25.7142,-0.017 -7.5117,0.5904 -2.0862,1.0807 12.0566,1.0894 14.1429,0.01 20.2888,-0.4744 13.6576,-1.0736 l 0,0 z m -81.5105,-684.78307 59.9376,-54.0136 -6.7391,-9.9307 c -3.7065,-5.4618 -9.474,-17.4312 -12.8166,-26.5986 l -6.0774,-16.6679 -11.7972,1.358 c -13.8491,1.5942 -86.3125,7.0094 -93.7969,7.0094 -4.8349,0 -5.1432,4.9794 -5.1432,83.0642 l 0,83.0642 8.2476,-6.6356 c 4.5362,-3.6496 35.2196,-30.9418 68.1852,-60.6494 z m 32.1386,-137.4149 0,-15.7143 -53.5714,0.2255 c -29.4643,0.124 -52.2857,0.762 -50.7143,1.4176 6.6477,2.7737 97.4545,29.4895 100.7143,29.6307 2.443,0.1057 3.5714,-4.8104 3.5714,-15.5596 l 0,1e-4 z"
       id="path4633"
       inkscape:connector-curvature="0" />
    <path
       style="display:inline;opacity:0.98999999;fill:#c4b7c8;fill-opacity:0"
       d="m -1246.967,699.55688 0,-11.9047 -25,0.158 c -13.75,0.087 -100.2143,1.3337 -192.1428,2.7706 -91.9286,1.4369 -196.5461,2.6107 -232.4834,2.6083 -56.9026,0 -65.1282,0.5491 -63.6962,4.2807 0.9043,2.3567 0.2751,5.1311 -1.3984,6.1654 -2.1462,1.3264 -2.8144,-80.0927 -2.2679,-276.3371 0.771,-276.8746 0.7381,-278.7251 -6.8325,-383.381467 -7.1209,-98.4394 -8.8864,-136.9756 -5.4573,-119.1216 0.7545,3.9286 5.4027,66.7493003 10.3293,139.60147 l 8.9574,132.458697 83.9329,-252.790667 c 46.163,-139.034803 83.4469,-253.931603 82.853,-255.326103 -0.5939,-1.3945 -8.3737,-9.3738 -17.2885,-17.7316 l -16.2087,-15.1962 -9.7992,15.2065 c -5.3895,8.3636 -43.2993,66.2171 -84.244,128.5633 -40.9447,62.3462 -73.8331,113.968603 -73.0853,114.716303 1.7903,1.7903 -9.0374,3.4259 -80.0241,12.0877 -32.7636,3.9978 -60.754,6.874 -62.2011,6.3917 -1.4471,-0.4824 36.288,-35.839903 83.8558,-78.572403 l 86.4867,-77.6954 -0.7973,-84.3756 -0.7972,-84.3756 -17.7742,1.776 c -9.7758,0.9768 -16.8658,0.7948 -15.7556,-0.4043 1.5833,-1.7102 120.8244,-12.3942 142.9815,-12.8111 2.75,-0.052 5,-1.2299 5,-2.618 0,-5.4045 -13.1519,-4.7293 -104.2857,5.3542 -82.5677,9.1356 -92.1552,10.6882 -77.1429,12.4925 27.7391,3.3338 36.3903,4.9535 34.8239,6.52 -0.8109,0.8109 -16.4862,-0.073 -34.8341,-1.9651 -31.3168,-3.2287 -71.7814,-2.6924 -81.4184,1.0793 -3.1146,1.219 -17.2523,-16.8343 -51.7388,-66.0684 -26.0992,-37.2602 -45.988,-68.1072 -44.1974,-68.549 1.7907,-0.4418 56.5731,14.9868 121.7388,34.2857 l 118.4831,35.089 57.8315,-0.8289 57.8315,-0.8288 1.6924,-7.7426 c 0.9308,-4.2584 3.3711,-13.0171 5.4228,-19.4636 l 3.7304,-11.7211 -16.1114,-5.0118 c -68.6827,-21.3652 -126.962,-78.3582 -150.304,-146.9865 -14.1946,-41.7337 -16.4683,-98.2103 -5.5899,-138.8453 9.9374,-37.1199 35.0004,-80.5318 60.9701,-105.607 11.5988,-11.1993 11.7826,-11.2609 17.0464,-5.7143 2.9267,3.0839 44.2436,58.9642 91.8154,124.1785 47.5717,65.2142 87.1552,119.2142 87.9632,119.9999 0.8081,0.7858 0.5251,-1.1428 -0.6289,-4.2857 -13.3009,-36.225 -15.3389,-88.411 -4.9033,-125.5526 21.002,-74.7486 78.1142,-131.68003 150.7288,-150.25173 22.849,-5.8438 84.3208,-8.0112 91.8406,-3.2382 2.746,1.743 -10.8924,46.52633 -56.4286,185.28973 -33.0274,100.6451 -60.0498,183.7596 -60.0498,184.699 0,0.9393 6.041,-0.8816 13.4246,-4.0465 22.474,-9.6336 68.5637,-22.3521 102.1078,-28.1769 162.8205,-28.2732 330.14708,20.43 448.22588,130.4635 7.5671,7.0515 13.3528,13.2125 12.8572,13.6911 -0.4957,0.4786 -115.4835,1.8157 -255.52848,2.9714 l -254.6272,2.1012 -1.7602,18.9394 c -0.9681,10.4167 -3.7317,25.5779 -6.1412,33.6917 l -4.3809,14.7522 13.2243,21.7823 c 7.2733,11.9802 12.4405,22.5659 11.4826,23.5238 -2.1835,2.1835 -1.5182,3.0618 -15.2161,-20.0899 l -11.508,-19.4506 -11.3178,16.5934 c -6.2249,9.1264 -18.0091,22.0577 -26.1872,28.7363 -8.1782,6.6786 -13.3569,12.1429 -11.5083,12.1429 2.6416,0 61.4594,-9.6439 74.905,-12.2816 1.6136,-0.3166 9.7245,12.2816 18.0241,27.9958 47.3696,89.6883 61.9883,208.954803 38.1723,311.428603 -12.3941,53.32877 -38.1913,110.923867 -68.8565,153.729967 -9.2248,12.8771 -16.7832,25.77 -16.7964,28.651 -0.014,2.9183 -1.6058,4.7074 -3.5955,4.0398 -1.9643,-0.6592 -3.5896,-3.1988 -3.6117,-5.6436 -0.023,-2.4449 -34.7364,-113.701397 -77.1429,-247.236667 l -77.1026,-242.791403 -16.9918,-7.5255 c -9.3456,-4.139 -17.8286,-6.5576 -18.8512,-5.3746 -1.0226,1.1831 -40.2619,117.8653 -87.1984,259.293903 l -85.3392,257.142867 -1.9253,135.7142 c -1.0589,74.6429 -2.0661,183.1654 -2.2382,241.1611 l -0.313,105.4468 62.0097,-1.9804 c 34.1054,-1.0891 62.1257,-2.2545 62.2674,-2.5896 0.1418,-0.3351 -0.629,-44.9664 -1.7126,-99.1807 -3.9656,-198.3849 -3.9464,-201.7512 1.196,-209.5995 9.2445,-14.1088 26.5704,-28.5036 44.8109,-37.2301 17.1366,-8.1983 20.8893,-8.8847 48.5715,-8.8847 26.5143,0 31.8839,0.8832 46.2147,7.6012 17.753,8.3223 39.1293,26.5022 47.9575,40.7867 5.1644,8.3561 5.762,15.9579 7.1037,90.3678 0.8058,44.6844 2.2746,111.4586 3.2641,148.3871 l 1.7991,67.1429 94.6876,-0.7868 94.6875,-0.7868 -0.8457,-430.6418 -0.8458,-430.64177 -7.0114,-54.0338 c -3.8562,-29.7185 -7.0113,-55.6845 -7.0113,-57.7022 0,-2.0176 -24.1072,-24.5202 -53.5715,-50.0059 -29.4643,-25.4856 -53.5714,-47.6883 -53.5714,-49.3392 0,-4.1969 27.8197,-12.3252 50,-14.6089 29.0852,-2.9947 28.1748,-2.3017 29.3171,-22.3176 l 1.0104,-17.7066 0.5506,17.4487 0.5505,17.4487 28.7764,1.9819 c 125.5821,8.6493 229.5325,92.0047 262.35428,210.3758 8.846,31.9026 12.7797,76.3087 9.4325,106.478203 -1.5355,13.839 -3.5259,25.896 -4.4232,26.7933 -1.5128,1.5128 -24.68378,-18.135 -202.67588,-171.859803 -46.7886,-40.4096 -64.7004,-54.3627 -63.6612,-49.5916 0.7954,3.6515 3.9877,27.2105 7.0942,52.3533 5.6792,45.9657 6.8201,157.837903 9.014,883.86567 0.092,30.4118 -0.5577,56.019 -1.4434,56.9048 -0.8858,0.8857 -1.6106,-3.7467 -1.6106,-10.2943 z m -356.3424,-308.2782 c -6.6311,-0.5992 -18.2025,-0.6064 -25.7142,-0.017 -7.5117,0.5904 -2.0862,1.0807 12.0566,1.0894 14.1429,0.01 20.2888,-0.4744 13.6576,-1.0736 l 0,0 z m -81.5105,-684.78307 59.9376,-54.0136 -6.7391,-9.9307 c -3.7065,-5.4618 -9.474,-17.4312 -12.8166,-26.5986 l -6.0774,-16.6679 -11.7972,1.358 c -13.8491,1.5942 -86.3125,7.0094 -93.7969,7.0094 -4.8349,0 -5.1432,4.9794 -5.1432,83.0642 l 0,83.0642 8.2476,-6.6356 c 4.5362,-3.6496 35.2196,-30.9418 68.1852,-60.6494 z m 32.1386,-137.4149 0,-15.7143 -53.5714,0.2255 c -29.4643,0.124 -52.2857,0.762 -50.7143,1.4176 6.6477,2.7737 97.4545,29.4895 100.7143,29.6307 2.443,0.1057 3.5714,-4.8104 3.5714,-15.5596 l 0,1e-4 z"
       id="path4635"
       inkscape:connector-curvature="0" />
    <path
       style="display:inline;opacity:0.98999999;fill:#a793ac;fill-opacity:0"
       d="m -1246.967,699.55688 0,-11.9047 -25,0.158 c -13.75,0.087 -100.2143,1.3337 -192.1428,2.7706 -91.9286,1.4369 -196.5461,2.6107 -232.4834,2.6083 -56.9026,0 -65.1282,0.5491 -63.6962,4.2807 0.9043,2.3567 0.2751,5.1311 -1.3984,6.1654 -2.1462,1.3264 -2.8144,-80.0927 -2.2679,-276.3371 0.771,-276.8746 0.7381,-278.7251 -6.8325,-383.381467 -7.1209,-98.4394 -8.8864,-136.9756 -5.4573,-119.1216 0.7545,3.9286 5.4027,66.7493003 10.3293,139.60147 l 8.9574,132.458697 83.9329,-252.790667 c 46.163,-139.034803 83.4469,-253.931603 82.853,-255.326103 -0.5939,-1.3945 -8.3737,-9.3738 -17.2885,-17.7316 l -16.2087,-15.1962 -9.7992,15.2065 c -5.3895,8.3636 -43.2993,66.2171 -84.244,128.5633 -40.9447,62.3462 -73.8331,113.968603 -73.0853,114.716303 1.7903,1.7903 -9.0374,3.4259 -80.0241,12.0877 -32.7636,3.9978 -60.754,6.874 -62.2011,6.3917 -1.4471,-0.4824 36.288,-35.839903 83.8558,-78.572403 l 86.4867,-77.6954 -0.7973,-84.3756 -0.7972,-84.3756 -17.7742,1.776 c -9.7758,0.9768 -16.8658,0.7948 -15.7556,-0.4043 1.5833,-1.7102 120.8244,-12.3942 142.9815,-12.8111 2.75,-0.052 5,-1.2299 5,-2.618 0,-5.4045 -13.1519,-4.7293 -104.2857,5.3542 -82.5677,9.1356 -92.1552,10.6882 -77.1429,12.4925 27.7391,3.3338 36.3903,4.9535 34.8239,6.52 -0.8109,0.8109 -16.4862,-0.073 -34.8341,-1.9651 -31.3168,-3.2287 -71.7814,-2.6924 -81.4184,1.0793 -3.1146,1.219 -17.2523,-16.8343 -51.7388,-66.0684 -26.0992,-37.2602 -45.988,-68.1072 -44.1974,-68.549 1.7907,-0.4418 56.5731,14.9868 121.7388,34.2857 l 118.4831,35.089 57.8315,-0.8289 57.8315,-0.8288 1.6924,-7.7426 c 0.9308,-4.2584 3.3711,-13.0171 5.4228,-19.4636 l 3.7304,-11.7211 -16.1114,-5.0118 c -68.6827,-21.3652 -126.962,-78.3582 -150.304,-146.9865 -14.1946,-41.7337 -16.4683,-98.2103 -5.5899,-138.8453 9.9374,-37.1199 35.0004,-80.5318 60.9701,-105.607 11.5988,-11.1993 11.7826,-11.2609 17.0464,-5.7143 2.9267,3.0839 44.2436,58.9642 91.8154,124.1785 47.5717,65.2142 87.1552,119.2142 87.9632,119.9999 0.8081,0.7858 0.5251,-1.1428 -0.6289,-4.2857 -13.3009,-36.225 -15.3389,-88.411 -4.9033,-125.5526 21.002,-74.7486 78.1142,-131.68003 150.7288,-150.25173 22.849,-5.8438 84.3208,-8.0112 91.8406,-3.2382 2.746,1.743 -10.8924,46.52633 -56.4286,185.28973 -33.0274,100.6451 -60.0498,183.7596 -60.0498,184.699 0,0.9393 6.041,-0.8816 13.4246,-4.0465 22.474,-9.6336 68.5637,-22.3521 102.1078,-28.1769 162.8205,-28.2732 330.14708,20.43 448.22588,130.4635 7.5671,7.0515 13.3528,13.2125 12.8572,13.6911 -0.4957,0.4786 -115.4835,1.8157 -255.52848,2.9714 l -254.6272,2.1012 -1.7602,18.9394 c -0.9681,10.4167 -3.7317,25.5779 -6.1412,33.6917 l -4.3809,14.7522 13.2243,21.7823 c 7.2733,11.9802 12.4405,22.5659 11.4826,23.5238 -2.1835,2.1835 -1.5182,3.0618 -15.2161,-20.0899 l -11.508,-19.4506 -11.3178,16.5934 c -6.2249,9.1264 -18.0091,22.0577 -26.1872,28.7363 -8.1782,6.6786 -13.3569,12.1429 -11.5083,12.1429 2.6416,0 61.4594,-9.6439 74.905,-12.2816 1.6136,-0.3166 9.7245,12.2816 18.0241,27.9958 47.3696,89.6883 61.9883,208.954803 38.1723,311.428603 -12.3941,53.32877 -38.1913,110.923867 -68.8565,153.729967 -9.2248,12.8771 -16.7832,25.77 -16.7964,28.651 -0.014,2.9183 -1.6058,4.7074 -3.5955,4.0398 -1.9643,-0.6592 -3.5896,-3.1988 -3.6117,-5.6436 -0.023,-2.4449 -34.7364,-113.701397 -77.1429,-247.236667 l -77.1026,-242.791403 -16.9918,-7.5255 c -9.3456,-4.139 -17.8286,-6.5576 -18.8512,-5.3746 -1.0226,1.1831 -40.2619,117.8653 -87.1984,259.293903 l -85.3392,257.142867 -1.9253,135.7142 c -1.0589,74.6429 -2.0661,183.1654 -2.2382,241.1611 l -0.313,105.4468 62.0097,-1.9804 c 34.1054,-1.0891 62.1257,-2.2545 62.2674,-2.5896 0.1418,-0.3351 -0.629,-44.9664 -1.7126,-99.1807 -3.9656,-198.3849 -3.9464,-201.7512 1.196,-209.5995 9.2445,-14.1088 26.5704,-28.5036 44.8109,-37.2301 17.1366,-8.1983 20.8893,-8.8847 48.5715,-8.8847 26.5143,0 31.8839,0.8832 46.2147,7.6012 17.753,8.3223 39.1293,26.5022 47.9575,40.7867 5.1644,8.3561 5.762,15.9579 7.1037,90.3678 0.8058,44.6844 2.2746,111.4586 3.2641,148.3871 l 1.7991,67.1429 94.6876,-0.7868 94.6875,-0.7868 -0.8457,-430.6418 -0.8458,-430.64177 -7.0114,-54.0338 c -3.8562,-29.7185 -7.0113,-55.6845 -7.0113,-57.7022 0,-2.0176 -24.1072,-24.5202 -53.5715,-50.0059 -29.4643,-25.4856 -53.5714,-47.6883 -53.5714,-49.3392 0,-4.1969 27.8197,-12.3252 50,-14.6089 29.0852,-2.9947 28.1748,-2.3017 29.3171,-22.3176 l 1.0104,-17.7066 0.5506,17.4487 0.5505,17.4487 28.7764,1.9819 c 125.5821,8.6493 229.5325,92.0047 262.35428,210.3758 8.846,31.9026 12.7797,76.3087 9.4325,106.478203 -1.5355,13.839 -3.5259,25.896 -4.4232,26.7933 -1.5128,1.5128 -24.68378,-18.135 -202.67588,-171.859803 -46.7886,-40.4096 -64.7004,-54.3627 -63.6612,-49.5916 0.7954,3.6515 3.9877,27.2105 7.0942,52.3533 5.6792,45.9657 6.8201,157.837903 9.014,883.86567 0.092,30.4118 -0.5577,56.019 -1.4434,56.9048 -0.8858,0.8857 -1.6106,-3.7467 -1.6106,-10.2943 z m -356.3424,-308.2782 c -6.6311,-0.5992 -18.2025,-0.6064 -25.7142,-0.017 -7.5117,0.5904 -2.0862,1.0807 12.0566,1.0894 14.1429,0.01 20.2888,-0.4744 13.6576,-1.0736 l 0,0 z m -81.5105,-684.78307 59.9376,-54.0136 -6.7391,-9.9307 c -3.7065,-5.4618 -9.474,-17.4312 -12.8166,-26.5986 l -6.0774,-16.6679 -11.7972,1.358 c -13.8491,1.5942 -86.3125,7.0094 -93.7969,7.0094 -4.8349,0 -5.1432,4.9794 -5.1432,83.0642 l 0,83.0642 8.2476,-6.6356 c 4.5362,-3.6496 35.2196,-30.9418 68.1852,-60.6494 z m 32.1386,-137.4149 0,-15.7143 -53.5714,0.2255 c -29.4643,0.124 -52.2857,0.762 -50.7143,1.4176 6.6477,2.7737 97.4545,29.4895 100.7143,29.6307 2.443,0.1057 3.5714,-4.8104 3.5714,-15.5596 l 0,1e-4 z"
       id="path4637"
       inkscape:connector-curvature="0" />
    <path
       style="display:inline;opacity:0.98999999;fill:#a793ac;fill-opacity:0;stroke:#a793ac"
       d="m -1246.967,699.55688 0,-11.9047 -25,0.158 c -13.75,0.087 -100.2143,1.3337 -192.1428,2.7706 -91.9286,1.4369 -196.5461,2.6107 -232.4834,2.6083 -56.9026,0 -65.1282,0.5491 -63.6962,4.2807 0.9043,2.3567 0.2751,5.1311 -1.3984,6.1654 -2.1462,1.3264 -2.8144,-80.0927 -2.2679,-276.3371 0.771,-276.8746 0.7381,-278.7251 -6.8325,-383.381467 -7.1209,-98.4394 -8.8864,-136.9756 -5.4573,-119.1216 0.7545,3.9286 5.4027,66.7493003 10.3293,139.60147 l 8.9574,132.458697 83.9329,-252.790667 c 46.163,-139.034803 83.4469,-253.931603 82.853,-255.326103 -0.5939,-1.3945 -8.3737,-9.3738 -17.2885,-17.7316 l -16.2087,-15.1962 -9.7992,15.2065 c -5.3895,8.3636 -43.2993,66.2171 -84.244,128.5633 -40.9447,62.3462 -73.8331,113.968603 -73.0853,114.716303 1.7903,1.7903 -9.0374,3.4259 -80.0241,12.0877 -32.7636,3.9978 -60.754,6.874 -62.2011,6.3917 -1.4471,-0.4824 36.288,-35.839903 83.8558,-78.572403 l 86.4867,-77.6954 -0.7973,-84.3756 -0.7972,-84.3756 -17.7742,1.776 c -9.7758,0.9768 -16.8658,0.7948 -15.7556,-0.4043 1.5833,-1.7102 120.8244,-12.3942 142.9815,-12.8111 2.75,-0.052 5,-1.2299 5,-2.618 0,-5.4045 -13.1519,-4.7293 -104.2857,5.3542 -82.5677,9.1356 -92.1552,10.6882 -77.1429,12.4925 27.7391,3.3338 36.3903,4.9535 34.8239,6.52 -0.8109,0.8109 -16.4862,-0.073 -34.8341,-1.9651 -31.3168,-3.2287 -71.7814,-2.6924 -81.4184,1.0793 -3.1146,1.219 -17.2523,-16.8343 -51.7388,-66.0684 -26.0992,-37.2602 -45.988,-68.1072 -44.1974,-68.549 1.7907,-0.4418 56.5731,14.9868 121.7388,34.2857 l 118.4831,35.089 57.8315,-0.8289 57.8315,-0.8288 1.6924,-7.7426 c 0.9308,-4.2584 3.3711,-13.0171 5.4228,-19.4636 l 3.7304,-11.7211 -16.1114,-5.0118 c -68.6827,-21.3652 -126.962,-78.3582 -150.304,-146.9865 -14.1946,-41.7337 -16.4683,-98.2103 -5.5899,-138.8453 9.9374,-37.1199 35.0004,-80.5318 60.9701,-105.607 11.5988,-11.1993 11.7826,-11.2609 17.0464,-5.7143 2.9267,3.0839 44.2436,58.9642 91.8154,124.1785 47.5717,65.2142 87.1552,119.2142 87.9632,119.9999 0.8081,0.7858 0.5251,-1.1428 -0.6289,-4.2857 -13.3009,-36.225 -15.3389,-88.411 -4.9033,-125.5526 21.002,-74.7486 78.1142,-131.68003 150.7288,-150.25173 22.849,-5.8438 84.3208,-8.0112 91.8406,-3.2382 2.746,1.743 -10.8924,46.52633 -56.4286,185.28973 -33.0274,100.6451 -60.0498,183.7596 -60.0498,184.699 0,0.9393 6.041,-0.8816 13.4246,-4.0465 22.474,-9.6336 68.5637,-22.3521 102.1078,-28.1769 162.8205,-28.2732 330.14708,20.43 448.22588,130.4635 7.5671,7.0515 13.3528,13.2125 12.8572,13.6911 -0.4957,0.4786 -115.4835,1.8157 -255.52848,2.9714 l -254.6272,2.1012 -1.7602,18.9394 c -0.9681,10.4167 -3.7317,25.5779 -6.1412,33.6917 l -4.3809,14.7522 13.2243,21.7823 c 7.2733,11.9802 12.4405,22.5659 11.4826,23.5238 -2.1835,2.1835 -1.5182,3.0618 -15.2161,-20.0899 l -11.508,-19.4506 -11.3178,16.5934 c -6.2249,9.1264 -18.0091,22.0577 -26.1872,28.7363 -8.1782,6.6786 -13.3569,12.1429 -11.5083,12.1429 2.6416,0 61.4594,-9.6439 74.905,-12.2816 1.6136,-0.3166 9.7245,12.2816 18.0241,27.9958 47.3696,89.6883 61.9883,208.954803 38.1723,311.428603 -12.3941,53.32877 -38.1913,110.923867 -68.8565,153.729967 -9.2248,12.8771 -16.7832,25.77 -16.7964,28.651 -0.014,2.9183 -1.6058,4.7074 -3.5955,4.0398 -1.9643,-0.6592 -3.5896,-3.1988 -3.6117,-5.6436 -0.023,-2.4449 -34.7364,-113.701397 -77.1429,-247.236667 l -77.1026,-242.791403 -16.9918,-7.5255 c -9.3456,-4.139 -17.8286,-6.5576 -18.8512,-5.3746 -1.0226,1.1831 -40.2619,117.8653 -87.1984,259.293903 l -85.3392,257.142867 -1.9253,135.7142 c -1.0589,74.6429 -2.0661,183.1654 -2.2382,241.1611 l -0.313,105.4468 62.0097,-1.9804 c 34.1054,-1.0891 62.1257,-2.2545 62.2674,-2.5896 0.1418,-0.3351 -0.629,-44.9664 -1.7126,-99.1807 -3.9656,-198.3849 -3.9464,-201.7512 1.196,-209.5995 9.2445,-14.1088 26.5704,-28.5036 44.8109,-37.2301 17.1366,-8.1983 20.8893,-8.8847 48.5715,-8.8847 26.5143,0 31.8839,0.8832 46.2147,7.6012 17.753,8.3223 39.1293,26.5022 47.9575,40.7867 5.1644,8.3561 5.762,15.9579 7.1037,90.3678 0.8058,44.6844 2.2746,111.4586 3.2641,148.3871 l 1.7991,67.1429 94.6876,-0.7868 94.6875,-0.7868 -0.8457,-430.6418 -0.8458,-430.64177 -7.0114,-54.0338 c -3.8562,-29.7185 -7.0113,-55.6845 -7.0113,-57.7022 0,-2.0176 -24.1072,-24.5202 -53.5715,-50.0059 -29.4643,-25.4856 -53.5714,-47.6883 -53.5714,-49.3392 0,-4.1969 27.8197,-12.3252 50,-14.6089 29.0852,-2.9947 28.1748,-2.3017 29.3171,-22.3176 l 1.0104,-17.7066 0.5506,17.4487 0.5505,17.4487 28.7764,1.9819 c 125.5821,8.6493 229.5325,92.0047 262.35428,210.3758 8.846,31.9026 12.7797,76.3087 9.4325,106.478203 -1.5355,13.839 -3.5259,25.896 -4.4232,26.7933 -1.5128,1.5128 -24.68378,-18.135 -202.67588,-171.859803 -46.7886,-40.4096 -64.7004,-54.3627 -63.6612,-49.5916 0.7954,3.6515 3.9877,27.2105 7.0942,52.3533 5.6792,45.9657 6.8201,157.837903 9.014,883.86567 0.092,30.4118 -0.5577,56.019 -1.4434,56.9048 -0.8858,0.8857 -1.6106,-3.7467 -1.6106,-10.2943 z m -356.3424,-308.2782 c -6.6311,-0.5992 -18.2025,-0.6064 -25.7142,-0.017 -7.5117,0.5904 -2.0862,1.0807 12.0566,1.0894 14.1429,0.01 20.2888,-0.4744 13.6576,-1.0736 l 0,0 z m -81.5105,-684.78307 59.9376,-54.0136 -6.7391,-9.9307 c -3.7065,-5.4618 -9.474,-17.4312 -12.8166,-26.5986 l -6.0774,-16.6679 -11.7972,1.358 c -13.8491,1.5942 -86.3125,7.0094 -93.7969,7.0094 -4.8349,0 -5.1432,4.9794 -5.1432,83.0642 l 0,83.0642 8.2476,-6.6356 c 4.5362,-3.6496 35.2196,-30.9418 68.1852,-60.6494 z m 32.1386,-137.4149 0,-15.7143 -53.5714,0.2255 c -29.4643,0.124 -52.2857,0.762 -50.7143,1.4176 6.6477,2.7737 97.4545,29.4895 100.7143,29.6307 2.443,0.1057 3.5714,-4.8104 3.5714,-15.5596 l 0,1e-4 z"
       id="path4639"
       inkscape:connector-curvature="0" />
    <path
       style="display:inline;opacity:0.98999999;fill:url(#linearGradient4215);fill-opacity:1;stroke:#a793ac;stroke-width:2.85714293"
       d="m -1557.9444,527.65218 c 0,-3.9286 0.6485,-5.5357 1.4411,-3.5715 0.7926,1.9643 0.7926,5.1786 0,7.1429 -0.7926,1.9643 -1.4411,0.3571 -1.4411,-3.5714 z"
       id="path4641"
       inkscape:connector-curvature="0" />
    <path
       style="display:inline;opacity:0.98999999;fill:url(#linearGradient4207);fill-opacity:1;stroke:#ffffff"
       d="m -1247.7708,708.75308 c -1.1293,-1.1293 -2.0533,-5.8351 -2.0533,-10.4574 l 0,-8.404 -190.7143,2.021 c -104.8929,1.1115 -200.3572,2.3559 -212.1429,2.7653 -11.7857,0.4094 -40.3928,0.9246 -63.5714,1.1449 -35.3775,0.3364 -42.1429,1.0887 -42.1429,4.6864 0,2.3572 -1.0863,4.2857 -2.4142,4.2857 -4.6508,0 -6.1575,-80.1253 -6.2007,-329.7374 -0.038,-221.6053 -0.7161,-261.0831 -5.6708,-330.262567 -5.9671,-83.3163 -7.1215,-132.5605 -2.813,-120 1.3476,3.9286 5.7621,56.6429 9.81,117.1429 4.0479,60.499967 8.1559,117.071367 9.1289,125.714267 l 1.769,15.7143 15.429,-45.7143 c 8.486,-25.1429 45.1365,-136.1663667 81.4456,-246.71877 l 66.0166,-201.0045 -15.5358,-15.5358 -15.5357,-15.5357 -60.2963,92.2545 c -33.1629,50.74 -70.139,107.6831 -82.169,126.5403 -12.0301,18.8571 -23.404,35.784703 -25.2754,37.616803 -3.5199,3.4462 -111.6763,18.0974 -133.5959,18.0974 l -12.3948,0 11.2941,-11.6556 c 6.2118,-6.4106 45.0442,-42.076603 86.2942,-79.257803 l 75,-67.6022 -0.01,-32.885 c -0.01,-18.0868 -0.8533,-55.148 -1.8854,-82.3584 l -1.8766,-49.4733 -13.1147,0.4415 c -17.8936,0.6024 -19.4918,0.2783 -14.5432,-2.9479 2.9258,-1.9074 -0.2473,-2.2191 -10,-0.9823 -18.3667,2.3293 -19.1277,3.2506 -4.6038,5.573 27.4136,4.3836 10.7878,6.2276 -47.2951,5.2454 l -61.8835,-1.0464 -18.6594,-24.8623 c -10.2626,-13.6742 -31.2667,-43.6107 -46.6757,-66.5255 -23.7166,-35.269 -27.1703,-41.7993 -22.5034,-42.5504 5.6971,-0.9168 45.1537,9.9675 169.2084,46.677 79.188,23.4328 78.5836,23.3543 150.1748,19.5048 l 34.3735,-1.8482 3.413,-15.2509 c 1.8772,-8.3881 3.3952,-16.0994 3.3733,-17.1364 -0.023,-1.037 -10.8769,-5.962 -24.1224,-10.9444 -69.1578,-26.0144 -123.899,-85.9396 -143.6531,-157.2575 -7.2081,-26.0232 -8.7468,-92.6723 -2.7606,-119.5789 5.0727,-22.801 21.5554,-59.5423 36.4743,-81.304 13.5518,-19.7678 33.7802,-40.5457 39.4733,-40.5457 5.7321,0 5.1845,-0.7058 105.273,135.7143 41.5053,56.5714 74.6663,100.2857 73.6913,97.1429 -8.3043,-26.7686 -9.9013,-74.3125 -3.5091,-104.4662 14.9003,-70.288 69.1983,-132.7134 135.4863,-155.76613 32.1934,-11.1958 103.6796,-16.2418 112.0145,-7.9068 3.3045,3.3045 -14.6133,62.57473 -71.1274,235.28193 -23.3966,71.5 -42.256,130.3484 -41.9097,130.7743 0.3462,0.4258 13.9954,-3.6878 30.3314,-9.1413 53.8978,-17.993 94.2065,-24.806 156.8448,-26.5101 43.5226,-1.1841 62.9043,-0.4669 88.5714,3.2773 95.1753,13.8838 173.49128,46.0728 246.80848,101.4417 28.2425,21.3287 52.5146,44.6447 49.5556,47.6036 -1.0181,1.0181 -97.7563,2.8277 -214.97388,4.0215 -117.2175,1.1937 -213.8291,2.8768 -214.6926,3.7402 -0.8634,0.8634 -0.6868,7.99 0.3924,15.8368 l 1.9622,14.267 19.0454,1.7531 c 107.6823,9.9121 186.9409,56.1996 238.6826,139.3918 29.72448,47.7922 40.36268,88.7885 40.36268,155.5454 0,50.764603 -1.6233,56.654103 -13.42468,48.704903 -3.6164,-2.4359 -59.0882,-49.553503 -123.2706,-104.705803 -64.1824,-55.1522 -120.4889,-102.9782 -125.1257,-106.2798 l -8.4305,-6.003 1.3897,6.7126 c 7.7249,37.3137 10.3757,90.9511 11.6982,236.712703 2.8494,314.024567 3.971,738.849367 1.9637,743.719967 -1.1671,2.8317 -3.046,4.2246 -4.1753,3.0952 z m -413.8946,-22.8572 23.873,-1.6641 -1.7068,-54.7184 c -0.9387,-30.0951 -2.5037,-96.6116 -3.4778,-147.8145 -1.5311,-80.4805 -1.1768,-94.2454 2.6144,-101.5768 6.8889,-13.3218 29.2325,-32.159 49.2634,-41.5326 17.5214,-8.1992 19.7307,-8.5322 50.5132,-7.6129 37.3208,1.1145 49.6698,5.6858 73.6825,27.2752 25.7112,23.1167 24.4367,15.7039 26.9165,156.5432 0.913,51.8572 2.4426,111.3215 3.3989,132.1429 l 1.7389,37.8571 43.2268,-0.01 c 23.7748,-0.01 65.589,-0.8569 92.9206,-1.8937 l 49.6937,-1.8849 -2.1135,-433.4159 c -2.0676,-423.98587 -2.2515,-434.51077 -8.4515,-483.78767 -7.418,-58.9581 -0.4232,-47.7699 -66.6796,-106.6543 -25.5357,-22.6945 -46.4286,-43.0656 -46.4286,-45.2691 0,-4.9599 22.5043,-11.946 51.4286,-15.9652 11.7857,-1.6378 22.427,-3.9438 23.6474,-5.1246 1.2203,-1.1808 3.0065,-8.7984 3.9694,-16.9281 l 1.7506,-14.7812 -37.3658,0 -37.3657,0 -1.7188,13.5714 c -0.9453,7.4643 -3.6725,22.217 -6.0605,32.7838 l -4.3418,19.2124 11.5997,19.5253 c 6.3799,10.7388 11.5998,22.2674 11.5998,25.619 0,3.3515 1.3239,6.912 2.942,7.912 4.3513,2.6892 29.5164,54.0256 37.8455,77.2042 11.4377,31.8289 21.6683,82.4631 24.6592,122.045 7.9413,105.096003 -17.0957,199.891673 -76.8152,290.83927 -9.4616,14.4093 -17.2029,27.9866 -17.2029,30.1717 0,2.1852 -2.2815,3.9731 -5.0699,3.9731 -4.0875,0 -8.2701,-10.38 -21.5863,-53.5715 -32.1418,-104.252067 -136.8557,-433.63997 -139.3594,-438.36877 -1.397,-2.6385 -9.2936,-7.331 -17.548,-10.4278 l -15.0079,-5.6304 -86.4719,258.999203 -86.4719,258.999267 -1.8494,238.7166 -1.8494,238.7167 36.8927,-0.9056 c 20.291,-0.4981 47.6356,-1.6545 60.7658,-2.5697 z m -21.5855,-983.88677 55.7572,-49.9288 -5.3031,-7.4475 c -2.9167,-4.0961 -8.033,-14.4139 -11.3695,-22.9284 -3.3366,-8.5144 -7.0283,-16.4702 -8.2038,-17.6796 -1.9286,-1.9841 -73.9326,2.0173 -96.7397,5.376 l -9.2858,1.3674 0,78.65 0,78.65 9.6938,-8.0652 c 5.3315,-4.4358 34.7844,-30.5331 65.4509,-57.9939 z m 293.4268,-23.0975 c 11.7857,-1.8365 22.9822,-4.1781 24.8811,-5.2035 2.4356,-1.3152 0.3584,-7.1106 -7.0518,-19.6745 -5.7774,-9.7955 -11.2324,-17.81 -12.1222,-17.81 -0.8899,0 -3.961,3.9664 -6.8247,8.8143 -2.8637,4.8479 -12.3077,15.9153 -20.9865,24.5941 -14.8067,14.8067 -15.2724,15.6823 -7.5522,14.1992 4.5253,-0.8693 17.8706,-3.0831 29.6563,-4.9196 z m -449.3453,-70.1285 c -0.9494,-0.9494 -3.4137,-1.0509 -5.4762,-0.2254 -2.2792,0.912 -1.6022,1.5891 1.7262,1.7261 3.0119,0.124 4.6994,-0.5512 3.75,-1.5006 l 0,-10e-5 z m 71.4286,-5.7143 c -0.9494,-0.9494 -3.4137,-1.0509 -5.4762,-0.2254 -2.2792,0.912 -1.6022,1.5891 1.7262,1.7262 3.0119,0.124 4.6994,-0.5513 3.75,-1.5007 l 0,-1e-4 z m 30.1139,-3.005 c -1.9344,-0.7827 -5.7915,-0.8303 -8.5714,-0.106 -2.7799,0.7244 -1.1973,1.3647 3.517,1.4229 4.7143,0.058 6.9888,-0.5344 5.0544,-1.3171 l 0,2e-4 z m 32.8361,-2.9462 c -2.7317,-0.7151 -7.8746,-0.741 -11.4286,-0.058 -3.554,0.6834 -1.319,1.2686 4.9667,1.3003 6.2857,0.032 9.1936,-0.5275 6.4619,-1.2426 l 0,1e-4 z m 35.681,-2.9609 c -5.1072,-0.6337 -13.4643,-0.6337 -18.5715,0 -5.1071,0.6338 -0.9285,1.1524 9.2857,1.1524 10.2143,0 14.3929,-0.5186 9.2858,-1.1524 z m 13.5714,-25.076 0,-12.8571 -43.5714,0.2254 c -23.9643,0.124 -41.6429,1.0008 -39.2858,1.9484 7.409,2.9784 75.5399,22.9659 79.2858,23.26 2.3695,0.186 3.5714,-4.0463 3.5714,-12.5768 l 0,1e-4 z"
       id="path4643"
       inkscape:connector-curvature="0" />
    <g
       inkscape:groupmode="layer"
       id="layer2"
       inkscape:label="Layer 2">
      <ellipse
         style="opacity:1;fill:url(#linearGradient4204);fill-opacity:1;stroke:#ff8080;stroke-width:1.05876589;stroke-opacity:1"
         id="path4196"
         cx="-1511.4172"
         cy="-435.20511"
         rx="138.54204"
         ry="144.25633" />
    </g>
    <path
       style="fill:url(#linearGradient4278);fill-opacity:1;fill-rule:evenodd;stroke:#000000;stroke-width:1.52755547px;stroke-linecap:butt;stroke-linejoin:miter;stroke-opacity:1"
       d="m -2006.8652,-905.14671 c 22.4048,1611.10675 17.9237,1611.10675 17.9237,1611.10675 0,0 1129.20662,0 1138.16884,-8.50192 8.96174,-8.50192 -26.886,-1628.11046 -26.886,-1628.11046 z"
       id="path4270"
       inkscape:connector-curvature="0" />
    <path
       style="display:inline;opacity:0.98999999;fill:#999999;fill-opacity:0.00030272;stroke:#a793ac"
       d="M -908.27344 -763.73242 C -934.29126 -763.72588 -972.33988 -759.02693 -993.4668 -751.67969 C -1059.7548 -728.62699 -1114.0528 -666.20206 -1128.9531 -595.91406 C -1135.3453 -565.76036 -1133.7477 -518.21587 -1125.4434 -491.44727 C -1124.4684 -488.30447 -1157.6295 -532.01844 -1199.1348 -588.58984 C -1299.2233 -725.00994 -1298.6761 -724.30469 -1304.4082 -724.30469 C -1310.1013 -724.30469 -1330.331 -703.52561 -1343.8828 -683.75781 C -1358.8017 -661.99611 -1375.2828 -625.25608 -1380.3555 -602.45508 C -1386.3417 -575.54848 -1384.8038 -508.8982 -1377.5957 -482.875 C -1357.8416 -411.5571 -1303.1012 -351.63159 -1233.9434 -325.61719 C -1220.6979 -320.63479 -1209.8433 -315.71083 -1209.8203 -314.67383 C -1209.7984 -313.63683 -1211.3162 -305.92521 -1213.1934 -297.53711 L -1216.6055 -282.28711 L -1250.9805 -280.4375 C -1322.5717 -276.588 -1321.9663 -276.51056 -1401.1543 -299.94336 C -1525.209 -336.65286 -1564.6662 -347.53594 -1570.3633 -346.61914 C -1575.0302 -345.86804 -1571.576 -339.33931 -1547.8594 -304.07031 C -1532.4504 -281.15551 -1511.4462 -251.21912 -1501.1836 -237.54492 L -1482.5254 -212.68164 L -1420.6406 -211.63477 C -1362.5577 -210.65257 -1345.9321 -212.49726 -1373.3457 -216.88086 C -1387.8696 -219.20326 -1387.1089 -220.12382 -1368.7422 -222.45312 C -1358.9895 -223.68993 -1355.8164 -223.3781 -1358.7422 -221.4707 C -1363.6908 -218.2445 -1362.0928 -217.92104 -1344.1992 -218.52344 L -1331.084 -218.96484 L -1329.207 -169.49219 C -1328.1749 -142.28179 -1327.3323 -105.21961 -1327.3223 -87.132812 L -1327.3125 -54.248047 L -1402.3125 13.353516 C -1443.5625 50.534716 -1482.3956 86.200728 -1488.6074 92.611328 L -1499.9004 104.26758 L -1487.5059 104.26758 C -1465.5863 104.26758 -1357.4301 89.616122 -1353.9102 86.169922 C -1352.0388 84.337822 -1340.6649 67.409834 -1328.6348 48.552734 C -1316.6048 29.695534 -1279.6277 -27.248291 -1246.4648 -77.988281 L -1186.1699 -170.24219 L -1170.6328 -154.70703 L -1155.0977 -139.16992 L -1221.1152 61.833984 C -1225.3086 74.601671 -1229.361 86.907451 -1233.5195 99.554688 C -1237.2624 106.56126 -1252.4727 149.52333 -1252.4727 154.01953 C -1252.4727 155.19143 -1252.3443 155.84557 -1252.0801 155.97266 C -1276.1924 229.18023 -1296.5552 290.75982 -1302.5605 308.55273 L -1317.9883 354.26758 L -1319.7578 338.55273 C -1320.7308 329.90983 -1324.8388 273.33783 -1328.8867 212.83789 C -1332.9346 152.33789 -1337.3497 99.623912 -1338.6973 95.695312 C -1343.0058 83.134812 -1341.8519 132.37901 -1335.8848 215.69531 C -1330.9301 284.87475 -1330.2509 324.35368 -1330.2129 545.95898 C -1330.1697 795.57108 -1328.6625 875.69531 -1324.0117 875.69531 C -1322.6838 875.69531 -1321.5977 873.76736 -1321.5977 871.41016 C -1321.5977 867.81246 -1314.8326 867.06101 -1279.4551 866.72461 C -1256.2765 866.50431 -1227.6705 865.98753 -1215.8848 865.57812 C -1204.0991 865.16873 -1108.6331 863.924 -1003.7402 862.8125 L -813.02734 860.79297 L -813.02734 869.19727 C -813.02734 873.81957 -812.10196 878.525 -810.97266 879.6543 C -809.84323 880.78166 -807.96554 879.38936 -806.79883 876.55859 C -804.79153 871.68799 -805.91427 446.86243 -808.76367 132.83789 C -810.08617 -12.923739 -812.73604 -66.559357 -820.46094 -103.87305 L -821.85156 -110.58594 L -813.41992 -104.58398 C -808.78312 -101.28238 -752.47732 -53.456907 -688.29492 1.6953125 C -624.11252 56.847613 -568.63984 103.96644 -565.02344 106.40234 C -553.22204 114.35154 -551.59961 108.46188 -551.59961 57.697266 C -551.59961 -9.0596544 -562.23644 -50.055466 -591.96094 -97.847656 C -643.70264 -181.03986 -722.96223 -227.32813 -830.64453 -237.24023 L -849.68945 -238.99414 L -851.65234 -253.25977 C -852.73154 -261.10657 -852.90832 -268.23426 -852.04492 -269.09766 C -851.18142 -269.96106 -754.56906 -271.64419 -637.35156 -272.83789 C -520.13396 -274.03169 -423.39701 -275.84127 -422.37891 -276.85938 C -419.41991 -279.81827 -443.69109 -303.13419 -471.93359 -324.46289 C -545.25079 -379.83179 -623.56689 -412.0205 -718.74219 -425.9043 C -744.40929 -429.6485 -763.79185 -430.36574 -807.31445 -429.18164 C -869.95275 -427.47754 -910.2604 -420.66487 -964.1582 -402.67188 C -980.4942 -397.21837 -994.14403 -393.1035 -994.49023 -393.5293 C -994.83653 -393.9552 -975.97668 -452.80469 -952.58008 -524.30469 C -896.06598 -697.01189 -878.14862 -756.28144 -881.45312 -759.58594 C -884.31825 -762.45109 -894.64505 -763.73585 -908.27344 -763.73242 z M -1218.7402 -272.875 L -1218.7402 -260.01758 C -1218.7404 -251.48847 -1219.9432 -247.25542 -1222.3125 -247.44141 C -1226.0584 -247.73551 -1294.1887 -267.72277 -1301.5977 -270.70117 C -1303.9548 -271.64877 -1286.2768 -272.52639 -1262.3125 -272.65039 L -1218.7402 -272.875 z M -929.81836 -270.01953 L -892.45312 -270.01953 L -855.08789 -270.01953 L -856.83789 -255.23828 C -857.80079 -247.10858 -859.58829 -239.49135 -860.80859 -238.31055 C -862.02899 -237.12975 -872.66938 -234.82335 -884.45508 -233.18555 C -913.37938 -229.16635 -935.88477 -222.1806 -935.88477 -217.2207 C -935.88477 -215.0172 -914.99078 -194.64567 -889.45508 -171.95117 C -823.19868 -113.06677 -830.19339 -124.25497 -822.77539 -65.296875 C -816.57539 -16.019975 -816.39182 -5.4936825 -814.32422 418.49219 L -812.21094 851.90625 L -861.9043 853.79297 C -889.2359 854.82977 -931.04942 855.67555 -954.82422 855.68555 L -998.05078 855.69531 L -999.79102 817.83789 C -1000.7473 797.01649 -1002.2765 737.55251 -1003.1895 685.69531 C -1005.6693 544.85601 -1004.3943 552.26904 -1030.1055 529.15234 C -1054.1182 507.56294 -1066.4683 502.99145 -1103.7891 501.87695 C -1134.5716 500.95765 -1136.7794 501.29103 -1154.3008 509.49023 C -1174.3317 518.86383 -1196.6756 537.70164 -1203.5645 551.02344 C -1207.3557 558.35484 -1207.7108 572.11911 -1206.1797 652.59961 C -1205.2056 703.80251 -1203.6399 770.31896 -1202.7012 800.41406 L -1200.9941 855.13281 L -1224.8672 856.79688 C -1237.9974 857.71208 -1265.3418 858.86713 -1285.6328 859.36523 L -1322.5273 860.27148 L -1320.6777 621.55469 L -1318.8281 382.83789 L -1232.3555 123.83984 L -1145.8848 -135.16016 L -1130.875 -129.5293 C -1122.6206 -126.4325 -1114.7251 -121.74006 -1113.3281 -119.10156 C -1110.8244 -114.37276 -1006.1105 215.01554 -973.96875 319.26758 C -960.65255 362.45908 -956.47031 372.83789 -952.38281 372.83789 C -949.59441 372.83789 -947.3125 371.05043 -947.3125 368.86523 C -947.3125 366.68013 -939.57098 353.10266 -930.10938 338.69336 C -870.38987 247.74576 -845.35362 152.94953 -853.29492 47.853516 C -856.28582 8.2716156 -866.51543 -42.362516 -877.95312 -74.191406 C -886.28222 -97.370006 -911.44753 -148.70533 -915.79883 -151.39453 C -917.41693 -152.39453 -918.74023 -155.95514 -918.74023 -159.30664 C -918.74023 -162.65824 -923.95994 -174.18698 -930.33984 -184.92578 L -941.93945 -204.45117 L -937.59766 -223.66406 C -935.20966 -234.23086 -932.48436 -248.98297 -931.53906 -256.44727 L -929.81836 -270.01953 z M -1241.5977 -235.41797 C -1238.2316 -235.41797 -1234.8661 -235.26021 -1232.3125 -234.94336 C -1227.2054 -234.30956 -1231.3834 -233.79102 -1241.5977 -233.79102 C -1251.8119 -233.79102 -1255.9919 -234.30956 -1250.8848 -234.94336 C -1248.3312 -235.26021 -1244.9637 -235.41797 -1241.5977 -235.41797 z M -1273.3984 -232.53516 C -1271.327 -232.52467 -1269.36 -232.33997 -1267.9941 -231.98242 C -1265.2624 -231.26732 -1268.1694 -230.70823 -1274.4551 -230.74023 C -1280.7408 -230.77193 -1282.9759 -231.35566 -1279.4219 -232.03906 C -1277.6449 -232.38056 -1275.4699 -232.54564 -1273.3984 -232.53516 z M -1304.7988 -229.6543 C -1303.2453 -229.6351 -1301.7973 -229.42651 -1300.8301 -229.03516 C -1298.8957 -228.25246 -1301.1705 -227.66075 -1305.8848 -227.71875 C -1310.5991 -227.77695 -1312.1803 -228.41622 -1309.4004 -229.14062 C -1308.0104 -229.50278 -1306.3524 -229.6735 -1304.7988 -229.6543 z M -1333.2637 -226.80859 C -1332.2711 -226.76773 -1331.4181 -226.50595 -1330.9434 -226.03125 C -1329.994 -225.08185 -1331.6815 -224.4053 -1334.6934 -224.5293 C -1338.0218 -224.6664 -1338.6991 -225.34386 -1336.4199 -226.25586 C -1335.3887 -226.66861 -1334.2562 -226.84946 -1333.2637 -226.80859 z M -1223.2617 -225.60352 C -1218.7591 -225.60866 -1215.9339 -225.44624 -1215.5723 -225.07422 C -1214.3968 -223.86482 -1210.7057 -215.90893 -1207.3691 -207.39453 C -1204.0326 -198.88003 -1198.9167 -188.5629 -1196 -184.4668 L -1190.6953 -177.01953 L -1246.4531 -127.08984 C -1277.1196 -99.629044 -1306.5728 -73.531503 -1311.9043 -69.095703 L -1321.5977 -61.03125 L -1321.5977 -139.68164 L -1321.5977 -218.33008 L -1312.3125 -219.69922 C -1293.7817 -222.42816 -1242.7729 -225.58122 -1223.2617 -225.60352 z M -1404.6934 -221.09375 C -1403.7008 -221.05289 -1402.8458 -220.79111 -1402.3711 -220.31641 C -1401.4217 -219.36701 -1403.1092 -218.69045 -1406.1211 -218.81445 C -1409.4495 -218.95145 -1410.1269 -219.62902 -1407.8477 -220.54102 C -1406.8164 -220.95377 -1405.6859 -221.13461 -1404.6934 -221.09375 z M -947.32031 -192.875 C -946.43051 -192.875 -940.97467 -184.86191 -935.19727 -175.06641 C -927.78707 -162.50251 -925.70893 -156.70583 -928.14453 -155.39062 C -930.04343 -154.36523 -941.24164 -152.024 -953.02734 -150.1875 C -964.81304 -148.351 -978.15829 -146.13688 -982.68359 -145.26758 C -990.40379 -143.78448 -989.93756 -144.6601 -975.13086 -159.4668 C -966.45206 -168.1456 -957.00823 -179.21265 -954.14453 -184.06055 C -951.28083 -188.90845 -948.21021 -192.875 -947.32031 -192.875 z "
       transform="translate(-2007.6394,-931.43318)"
       id="path4643-3" />
    <path
       style="opacity:1;fill:#999999;fill-opacity:0;stroke:#ffffff;stroke-width:2.85714293;stroke-opacity:1"
       d="m -1220.3233,-262.77602 c 0.032,-6.28571 0.6168,-8.52072 1.3002,-4.96669 0.6834,3.55404 0.6575,8.6969 -0.058,11.42858 -0.7152,2.73167 -1.2743,-0.17617 -1.2426,-6.46189 z"
       id="path5840"
       inkscape:connector-curvature="0"
       transform="translate(-2007.6394,-931.43318)" />
    <path
       style="opacity:1;fill:#999999;fill-opacity:0;stroke:#ffffff;stroke-width:2.85714293;stroke-opacity:1"
       d="m -1228.1867,-249.15226 c 3.1429,-0.78521 6.6589,-2.88606 7.8134,-4.66856 1.3322,-2.0568 2.1151,-1.41409 2.1429,1.75909 0.032,3.63962 -2.094,4.90982 -7.8134,4.66857 -6.0223,-0.25404 -6.5227,-0.66484 -2.1429,-1.7591 z"
       id="path5842"
       inkscape:connector-curvature="0"
       transform="translate(-2007.6394,-931.43318)" />
    <path
       style="opacity:1;fill:#808080;fill-opacity:0;stroke:#808080;stroke-width:2.85714293;stroke-opacity:1"
       d="M -1128.9004 -507.42773 C -1129.1229 -507.46613 -1129.272 -507.06804 -1129.3223 -506.17969 C -1129.4831 -503.33695 -1130.9013 -501.80419 -1132.4727 -502.77539 C -1136.961 -505.54933 -1135.8156 -500.90563 -1130.5859 -495.12695 C -1124.4357 -488.331 -1123.842 -489.278 -1126.6836 -501.36719 C -1127.5707 -505.14112 -1128.4108 -507.34325 -1128.9004 -507.42773 z "
       transform="translate(-2007.6394,-931.43318)"
       id="path5844" />
    <path
       style="opacity:1;fill:url(#linearGradient5874);fill-opacity:1;stroke:#808080;stroke-width:2.85714293;stroke-opacity:1"
       d="M -820.50195 -111.3418 C -820.85791 -111.34301 -821.17052 -111.26909 -821.42578 -111.11133 C -824.20716 -109.39234 -824.8017 -97.485296 -822.23438 -94.917969 C -821.85291 -94.536505 -821.09691 -94.575648 -820.1582 -94.916016 C -819.85153 -94.14415 -819.58744 -94.309863 -819.3125 -95.283203 C -818.15554 -95.861978 -816.8245 -96.796588 -815.53906 -98.013672 C -811.07385 -102.24144 -810.98319 -103.32965 -814.73047 -107.70898 C -816.61661 -109.91326 -818.95947 -111.33653 -820.50195 -111.3418 z "
       transform="translate(-2007.6394,-931.43318)"
       id="path5847" />
    <path
       style="opacity:1;fill:url(#linearGradient5872);fill-opacity:1;stroke:#808080;stroke-width:2.85714293;stroke-opacity:1"
       d=""
       id="path5852"
       inkscape:connector-curvature="0"
       transform="translate(-2007.6394,-931.43318)" />
    <path
       style="opacity:1;fill:url(#linearGradient5870);fill-opacity:1;stroke:#808080;stroke-width:2.85714293;stroke-opacity:1"
       d=""
       id="path5854"
       inkscape:connector-curvature="0"
       transform="translate(-2007.6394,-931.43318)" />
    <path
       style="opacity:1;fill:url(#linearGradient5868);fill-opacity:1;stroke:#808080;stroke-width:2.85714293;stroke-opacity:1"
       d="m -813.36525,879.66447 c -1.08037,-1.08037 -1.96429,-5.29357 -1.96429,-9.36269 l 0,-7.39837 -93.57143,0.85763 c -51.46428,0.47171 -164.16393,1.8966 -250.44373,3.16643 -147.0438,2.16414 -157.1112,2.63546 -160.6848,7.52266 -2.0968,2.86762 -4.7808,4.24551 -5.9643,3.06197 -3.8778,-3.8778 -5.81,-108.08686 -6.2036,-334.57383 -0.3685,-212.04034 -1.2295,-248.86974 -9.0702,-387.97586 -1.8416,-32.67243 -2.5232,-60.22957 -1.5146,-61.238085 6.2596,-6.259628 7.3896,4.263458 22.006,204.928225 1.7741,24.35715 3.4419,44.53789 3.7061,44.84609 0.2642,0.3082 14.133,-40.83466 30.8196,-91.42857 16.6865,-50.59392 52.5515,-159.249345 79.6999,-241.456516 l 49.3607,-149.467604 -14.1624,-14.1624 -14.1624,-14.16242 -20.1997,30.77285 c -16.3278,24.87432 -95.0077,145.8182312 -136.5923,209.96466 -4.8054,7.4126 -10.5967,14.219143 -12.8696,15.1256 -13.1525,5.245543 -142.0624,20.44014 -145.368,17.13454 -1.6849,-1.68491 29.4683,-33.107026 62.4649,-63.004083 7.0124,-6.353686 28.1784,-25.507114 47.0356,-42.5632001 18.8571,-17.0560569 40.4403,-36.5958289 47.9626,-43.4217139 l 13.677,-12.410715 -0.668,-56.454688 c -0.3674,-31.05008 -1.1556,-67.06183 -1.7517,-80.02611 l -1.0836,-23.57143 -12.6396,0 c -6.9518,0 -12.6396,1.28571 -12.6396,2.85714 0,1.81772 -22.7417,2.85715 -62.5109,2.85715 l -62.511,0 -15.6899,-20.84589 c -23.1877,-30.80771 -70.4367,-100.90271 -73.5691,-109.1416 -2.5355,-6.66874 -2.1264,-7.15537 6.0152,-7.15537 4.8046,0 58.4513,14.30006 119.215,31.77788 104.2065,29.97358 112.2944,31.85918 142.4477,33.21 17.5826,0.78766 44.2114,0.5142 59.1751,-0.60768 29.4427,-2.2074 28.1812,-1.34383 31.7901,-21.7618 1.7858,-10.10374 1.6276,-10.30709 -11.9906,-15.42063 -71.1007,-26.69766 -123.3228,-78.14563 -148.0806,-145.8854 -9.9762,-27.2959 -15.0083,-82.78539 -10.6889,-117.86738 3.5131,-28.53273 14.9605,-61.01717 31.3436,-88.94425 11.0731,-18.87544 42.6757,-54.50074 48.3467,-54.50074 5.1266,0 19.8763,17.92804 62.2917,75.71428 52.7676,71.88994 105.025,141.46775 107.3138,142.88235 1.0123,0.62563 1.7387,-16.48124 1.6142,-38.01527 -0.2726,-47.1557 2.6503,-60.62186 21.8072,-100.46744 12.6806,-26.37503 17.4331,-32.93383 40.4532,-55.82875 32.2785,-32.10283 60.2461,-47.76568 99.90452,-55.95009 28.07869,-5.79468 88.81937,-7.59635 91.83074,-2.72385 2.95046,4.77393 -10.81774,52.58511 -48.98457,170.10305 -8.67611,26.71429 -23.47283,72.35715 -32.88154,101.42858 -9.40874,29.07142 -20.07157,62.01054 -23.6952,73.198 l -6.5884,20.34085 31.82097,-9.74725 c 17.50154,-5.361 44.67814,-12.32872 60.39243,-15.48383 35.97883,-7.22377 117.14574,-11.39355 157.85937,-8.10969 97.47051,7.86174 190.51914,43.19197 268.83323,102.075 27.60231,20.75374 51.87883,43.09023 51.87883,47.73309 0,5.92311 -21.44452,6.86388 -194.28572,8.52323 -88.78571,0.85237 -177.82143,2.31822 -197.85714,3.25745 l -36.42857,1.70766 0,12.53846 c 0,6.89614 0.96428,12.56357 2.14286,12.59423 1.17857,0.0306 15.98737,1.89854 32.90842,4.15082 59.44126,7.91189 103.79432,24.46846 146.99143,54.87046 51.48732,36.2366 94.93832,99.209058 109.52066,158.725544 6.38357,26.0539715 10.66249,97.395229 7.21889,120.358743 -1.81529,12.105283 -2.77046,13.510373 -8.64938,12.723373 -5.24134,-0.70166 -63.2968,-47.786545 -116.23602,-94.271287 -45.83878,-40.249943 -132.43403,-112.327715 -134.95215,-112.327715 -3.48714,0 -3.5032,-2.267371 0.61797,87.1428575 5.38246,116.7745145 6.84526,888.8154245 1.68732,890.5353445 -1.66966,0.55677 -3.91966,0.12828 -5,-0.952 z m 5.22434,-346.7262 c -2.27688,-485.542573 -4.91177,-609.689945 -13.21568,-622.679116 -2.02675,-3.170286 -2.37812,-0.738086 -1.21258,8.3934 5.67992,44.499571 7.23869,99.098914 8.59458,301.046086 0.83491,124.35323 2.18662,317.59843 3.00377,429.43383 l 1.48574,203.33703 -17.92223,1.58734 c -9.85723,0.87303 -52.81026,2.38617 -95.4512,3.36249 l -77.52899,1.77517 -1.8817,-68.12812 c -5.1495,-186.44231 -6.9753,-228.58145 -10.2963,-237.64923 -4.8337,-13.19754 -37.277,-39.47651 -55.3702,-44.8496 -8.2638,-2.45411 -25.8432,-4.20071 -42.2796,-4.20071 -25.7753,0 -29.6034,0.7416 -45.655,8.84443 -9.6364,4.86443 -24.5903,15.914 -33.2309,24.55457 l -15.7101,15.71014 2.0372,140.44543 c 1.1205,77.24497 2.6932,145.0978 3.4948,150.78403 1.0526,7.46634 0.2898,10.78669 -2.7458,11.95151 -2.3118,0.88715 -30.6796,2.53215 -63.0396,3.6556 -33.364,1.15832 -58.8363,3.20532 -58.8363,4.72818 0,1.47705 4.8215,1.98842 10.7143,1.13642 5.8929,-0.85202 74.3572,-2.25728 152.1429,-3.12282 77.7857,-0.86552 188.03569,-2.3766 244.99998,-3.35795 l 103.57143,-1.78423 0.29245,8.22735 c 0.28343,7.97314 0.37363,7.91837 2.9194,-1.77266 1.56649,-5.96317 2.01846,-139.75511 1.11963,-331.42857 z m -409.33149,321.05331 13.5714,-1.58954 0.012,-16.16046 c 0.01,-8.88825 -1.4052,-71.26103 -3.1362,-138.60614 -1.731,-67.34514 -2.3254,-127.92614 -1.3209,-134.62446 3.4789,-23.19925 39.9003,-54.65945 71.4541,-61.72088 20.0744,-4.49246 67.6292,0.21943 83.3506,8.2584 14.3108,7.31785 37.336,27.65191 42.2232,37.28834 6.8751,13.55617 8.0806,35.1226 11.76048,210.38714 0.85783,40.85715 2.27328,79.10715 3.14548,85 l 1.5858,10.71429 61.89172,-0.0143 c 34.04043,-0.009 74.47911,-0.84831 89.86368,-1.86705 l 27.972,-1.85226 -0.75563,-275.99009 c -1.57111,-573.8536831 -4.07562,-660.838597 -19.83445,-688.87771 -3.47395,-6.18103 -19.27829,-22.69174 -35.1208,-36.69049 -15.84249,-13.99871 -37.48309,-33.73937 -48.09023,-43.86811 -22.43709,-21.42512 -24.81,-18.56157 -9.44763,11.401 51.60506,100.649884 61.01623,125.705998 72.13274,192.0451983 7.5178,44.8631717 6.8042,120.2532317 -1.52223,160.8252317 -8.86397,43.19117 -18.62014,72.73968 -36.04674,109.17477 -13.77694,28.80448 -49.38088,90.3404 -56.20571,97.14286 -6.34649,6.32568 -12.66092,-10.57092 -54.98868,-147.14286 -11.8223,-38.14483 -27.6713,-88.22077 -73.6991,-232.8571445 -9.5015,-29.8571425 -21.9564,-67.7857145 -27.6776,-84.2857145 -10.1998,-29.416311 -10.6523,-30.120861 -23.2593,-36.212081 -7.0715,-3.41666 -13.737,-5.34523 -14.8122,-4.28572 -1.0756,1.05903 -40.4829,118.28303 -87.5721,260.49732 l -85.6167,258.57142 -1.5492,235.29309 -1.5492,235.29309 44.8352,-1.8288 c 24.6594,-1.00583 50.9424,-2.54409 58.4067,-3.41835 z m -105.1396,-236.7676 1.9482,-234.28571 86.2386,-259.27014 c 55.9875,-168.322462 87.5561,-259.2756 89.9946,-259.28572 2.0658,-0.009 10.1131,2.7192 17.8829,6.06166 l 14.127,6.07726 24.0295,74.637024 c 30.6369,95.160371 54.942,171.582656 85.9814,270.351346 48.16741,153.27034 47.76283,152.0864 50.74063,148.48868 6.41918,-7.75548 48.31526,-80.90051 56.41249,-98.48868 43.76986,-95.07366 52.18229,-196.79086 25.5854,-309.361489 -7.22386,-30.574771 -19.96423,-61.047114 -50.18277,-120.026881 -22.95737,-44.8076 -24.28909,-48.37158 -21.58052,-57.75449 1.58772,-5.5 4.46612,-20.54146 6.39646,-33.42546 l 3.50972,-23.42548 98.81371,-0.19886 c 143.49266,-0.28894 403.18897,-4.93586 405.44829,-7.25497 4.774,-4.90034 -64.34098,-58.46226 -104.28183,-80.81512 -55.78146,-31.21805 -106.36143,-48.88225 -173.87317,-60.72234 -32.19415,-5.64614 -42.64155,-6.16751 -96.57518,-4.81963 -67.20277,1.67955 -91.21971,5.14709 -145.025,20.93857 -51.96042,15.25 -49.51474,14.9836 -47.14168,5.13546 1.09591,-4.54817 20.00888,-64.19788 42.02877,-132.55503 57.87354,-179.65883 58.778,-182.52502 63.90151,-202.49668 7.01352,-27.33904 7.20472,-27.18857 -32.16697,-25.31404 -58.32811,2.77706 -92.67036,14.28021 -129.84916,43.49371 -35.069,27.55582 -65.3556,74.64795 -75.1023,116.77535 -5.7043,24.65535 -5.8711,78.69889 -0.2917,94.54964 2.1864,6.21153 3.3664,12.88034 2.6222,14.81959 -2.0609,5.37062 -9.1551,1.31895 -13.9601,-7.97292 -2.3635,-4.57052 -25.0423,-36.23614 -50.3972,-70.36806 -25.3549,-34.13191 -60.6863,-81.71588 -78.5143,-105.74217 -17.8279,-24.02629 -34.3813,-44.43895 -36.7854,-45.36147 -13.0482,-5.00707 -56.0484,57.82165 -71.6981,104.75991 -7.6316,22.88983 -7.6117,110.81995 0.031,135.71429 20.7333,67.53514 70.9849,122.31025 138.8637,151.36354 13.0037,5.56586 24.5769,10.69683 25.7182,11.40217 1.1413,0.70534 0.7615,8.52929 -0.8439,17.38654 -2.1931,12.09903 -4.3868,16.64523 -8.8207,18.28003 -9.8618,3.63606 -85.4568,5.6878 -105.4165,2.86114 -10.2971,-1.45825 -48.0474,-11.20942 -83.8894,-21.66925 -106.3186,-31.02715 -153.5006,-43.95869 -157.612,-43.19797 -4.3324,0.80162 22.6819,43.34091 60.5807,95.39591 l 23.1682,31.82211 14.3479,1.72449 c 15.9019,1.91126 104.8148,1.6324 92.0357,-0.28866 -4.5634,-0.68597 -7.5171,-2.6586 -6.8459,-4.57188 0.8063,-2.2982 8.5661,-3.12312 24.4716,-2.60149 12.8101,0.42012 22.9621,-0.22286 22.5602,-1.42857 -0.4019,-1.20583 0.4323,-2.83526 1.854,-3.62097 4.359,-2.4092 5.0171,7.11894 6.4134,92.85714 l 1.3494,82.857144 -73.7452,66.2676 c -40.5599,36.447171 -78.2453,71.008257 -83.7453,76.802371 l -10,10.534805 25.7143,-1.77666 c 32.0421,-2.21383 103.5397,-12.656373 109.877,-16.048002 4.3857,-2.347143 23.4851,-30.028028 64.1156,-92.9229711 9.1364,-14.1428569 37.1506,-57.0716289 62.2538,-95.3972569 l 45.6422,-69.68297 16.6504,16.47668 16.6504,16.47669 -3.9583,13.20629 c -3.6377,12.13634 -78.0203,236.51717 -88.2005,266.06342 -2.4364,7.07143 -19.2591,58.82143 -37.3837,115 -18.1246,56.17858 -34.0166,102.14286 -35.3157,102.14286 -2.8507,0 -3.7447,-9.48717 -12.249,-130 -3.6595,-51.85714 -6.9728,-89.14286 -7.3629,-82.85714 -0.3901,6.28571 1.0346,36.5 3.166,67.14286 2.3392,33.63148 4.1197,115.73417 4.4921,207.14285 0.3393,83.28572 1.1546,177.14286 1.8119,208.57143 0.6573,31.42857 1.205,95.60714 1.2172,142.61906 0.012,47.01188 0.5166,84.94046 1.1211,84.28571 0.6044,-0.65477 1.9756,-106.61905 3.0471,-235.4762 z M -553.77934,82.720068 c 2.70355,-30.358485 -3.37185,-91.9232282 -11.66054,-118.161571 -7.90017,-25.0084 -23.48894,-54.8482 -42.37266,-81.109087 -49.2618,-68.50654 -124.74283,-108.79634 -221.80271,-118.39251 l -21.42857,-2.11863 -1.76675,-10 c -0.97171,-5.5 -1.936,-7.35289 -2.14285,-4.11752 -0.74735,11.68835 -7.2242,16.07058 -29.46932,19.93892 -27.08871,4.71057 -44.52948,9.36571 -46.39437,12.3832 -1.2538,2.02871 31.41737,36.26926 48.62623,50.96197 28.13571,24.02194 44.95909,40.2754 49.80734,48.12006 4.37583,7.08025 7.17369,8.91637 11.75935,7.7172 3.78354,-0.9894 6.94808,0.0897 8.52454,2.90654 1.37894,2.46406 34.96634,32.158457 74.63866,65.987543 39.67228,33.8291139 77.27431,65.948542 83.56002,71.376542 59.20749,51.128315 93.96555,79.045715 95.9472,77.064055 1.30755,-1.30754 3.18603,-11.458083 4.17443,-22.556712 z M -1362.4724,-218.4903 c -0.9712,-1.57143 -3.9399,-2.76677 -6.5972,-2.65632 -3.9385,0.16372 -3.7754,0.65457 0.8829,2.65632 7.6455,3.28537 7.7448,3.28537 5.7143,0 z m 472.36472,-15.72797 c 28.46823,-5.41275 31.921,-8.2128 31.921,-25.8866 l 0,-6.95686 -35.31631,0 -35.31632,0 -1.68028,13.57143 c -0.92418,7.46428 -2.55003,17.75168 -3.613,22.86088 l -1.93272,9.28946 9.6436,-3.9056 c 5.30397,-2.14809 21.63629,-6.1858 36.29403,-8.97271 z"
       id="path5856"
       inkscape:connector-curvature="0"
       transform="translate(-2007.6394,-931.43318)" />
    <path
       style="opacity:1;fill:url(#linearGradient5866);fill-opacity:1;stroke:#808080;stroke-width:2.85714293;stroke-opacity:1"
       d=""
       id="path5858"
       inkscape:connector-curvature="0"
       transform="translate(-2007.6394,-931.43318)" />
  </g>
</svg>
